<?xml version="1.0" encoding="UTF-8"?><svg id="Calque_1" xmlns="http://www.w3.org/2000/svg" viewBox="0 0 450 300"><defs><style>.cls-1{fill:black;}</style></defs><path class="cls-1" d="M138.4,132.08c-2.19,0-4.23-.21-6.12-.64-1.89-.43-3.32-1.17-4.28-2.24-.69-.21-1.29-.84-1.8-1.88-.51-1.04-.76-2.25-.76-3.64,0-1.23,.24-2.48,.72-3.76,.48-1.28,1.28-2.51,2.4-3.68,1.39-1.39,2.97-2.59,4.76-3.6,1.79-1.01,4.28-2.11,7.48-3.28,1.49-2.77,3.21-5.59,5.16-8.44,1.95-2.85,3.95-5.57,6-8.16,2.05-2.59,3.99-4.89,5.8-6.92-1.92,.05-4.16,.17-6.72,.36-2.56,.19-5.25,.44-8.08,.76-2.83,.32-5.6,.77-8.32,1.36-2.72,.59-5.21,1.29-7.48,2.12-2.27,.83-4.12,1.85-5.56,3.08-.96,.8-1.44,1.63-1.44,2.48,0,.75,.37,1.57,1.12,2.48,.21,.21,.21,.33,0,.36-.21,.03-.37,.01-.48-.04-.85-.59-1.64-1.28-2.36-2.08-.72-.8-1.08-1.52-1.08-2.16,0-1.49,.76-2.79,2.28-3.88,1.52-1.09,3.56-2.03,6.12-2.8,2.56-.77,5.39-1.41,8.48-1.92,3.09-.51,6.23-.91,9.4-1.2,3.17-.29,6.16-.49,8.96-.6,2.8-.11,5.13-.16,7-.16l.56-.64c-.37-.37-.56-.77-.56-1.2,0-.64,.43-1.33,1.28-2.08,.69-.59,1.39-1.12,2.08-1.6,.32-.27,.63-.49,.92-.68,.29-.19,.55-.36,.76-.52,.75,.05,1.61,.27,2.6,.64,.99,.37,1.48,.96,1.48,1.76,0,.21-.05,.48-.16,.8-.27,.64-1.41,1.92-3.44,3.84,2.67,.32,5.07,.79,7.2,1.4,2.13,.61,3.84,1.21,5.12,1.8,2.83,1.33,4.85,2.95,6.08,4.84,1.23,1.89,1.84,3.93,1.84,6.12,0,2.61-.77,5.33-2.32,8.16-1.44,2.67-3.4,5.31-5.88,7.92-2.48,2.61-5.35,5.05-8.6,7.32-3.25,2.27-6.71,4.23-10.36,5.88-3.65,1.65-7.37,2.83-11.16,3.52-1.33,.21-2.75,.4-4.24,.56-1.49,.16-2.96,.24-4.4,.24Zm-2.56-1.12c2.88,0,5.96-.45,9.24-1.36s6.6-2.16,9.96-3.76,6.6-3.44,9.72-5.52c3.12-2.08,5.99-4.33,8.6-6.76,2.61-2.43,4.8-4.89,6.56-7.4,1.07-1.55,1.91-3.09,2.52-4.64,.61-1.55,.92-3.01,.92-4.4,0-2.99-1.53-5.53-4.6-7.64-3.07-2.11-8.17-3.35-15.32-3.72-.53,.43-.99,.81-1.36,1.16-.37,.35-.69,.65-.96,.92-1.97,2.08-4.43,4.91-7.36,8.48-2.93,3.57-5.87,7.49-8.8,11.76,1.76-.48,3.36-.95,4.8-1.4,1.44-.45,2.91-.68,4.4-.68h.16c.37,0,.56,.11,.56,.32s-.19,.35-.56,.4c-1.81,.37-3.59,.76-5.32,1.16-1.73,.4-3.37,.89-4.92,1.48-1.55,2.45-2.77,4.77-3.68,6.96-.91,2.19-1.36,4.29-1.36,6.32,0,.96,.16,1.87,.48,2.72,.32,.85,1.07,1.33,2.24,1.44-.05,0-.15,.01-.28,.04-.13,.03-.25,.04-.36,.04-.75,0-1.44-.33-2.08-1-.64-.67-1.15-1.47-1.52-2.4-.37-.93-.56-1.77-.56-2.52,0-2.35,1.04-5.71,3.12-10.08-3.89,2.13-6.83,4.37-8.8,6.72-1.97,2.35-3.07,4.51-3.28,6.48,0,.16-.01,.32-.04,.48-.03,.16-.04,.32-.04,.48,0,.85,.13,1.59,.4,2.2,.27,.61,.61,1.16,1.04,1.64,.75,.75,1.68,1.28,2.8,1.6s2.35,.48,3.68,.48Z"/><path class="cls-1" d="M183.28,130.72c-1.17,0-2.07-.27-2.68-.8-.61-.53-.87-1.23-.76-2.08,.11-.59,.27-1.25,.48-2,.21-.75,.48-1.49,.8-2.24l1.92-4.48c-.05-.11-.09-.2-.12-.28-.03-.08-.04-.15-.04-.2-.05-.21-.03-.4,.08-.56,1.39-2.13,2.67-3.92,3.84-5.36,1.17-1.44,1.95-2.16,2.32-2.16,.75,0,1.63,.51,2.64,1.52-.69,.85-1.41,1.8-2.16,2.84-.75,1.04-1.47,2.09-2.16,3.16-.75,1.12-1.53,2.33-2.36,3.64-.83,1.31-1.4,2.49-1.72,3.56-.32,.96-.48,1.71-.48,2.24,0,.75,.27,1.12,.8,1.12,.69,0,1.71-.72,3.04-2.16,.91-.96,1.91-2.15,3-3.56,1.09-1.41,2.15-2.84,3.16-4.28,1.07-1.49,2.07-2.89,3-4.2,.93-1.31,1.72-2.36,2.36-3.16,.59-.75,1.12-1.12,1.6-1.12,.69,0,1.49,.59,2.4,1.76-.75,1.07-1.65,2.44-2.72,4.12-1.07,1.68-2.04,3.39-2.92,5.12-.88,1.73-1.45,3.27-1.72,4.6-.05,.21-.09,.43-.12,.64-.03,.21-.04,.45-.04,.72,0,1.55,.4,2.32,1.2,2.32,.43,0,.95-.24,1.56-.72,.61-.48,1.21-1.04,1.8-1.68s1.04-1.17,1.36-1.6c1.71-2.29,3.33-4.67,4.88-7.12,.32-.48,.53-.72,.64-.72s.15,.09,.12,.28c-.03,.19-.07,.33-.12,.44-1.07,1.76-2.31,3.68-3.72,5.76-1.41,2.08-2.81,3.79-4.2,5.12-.75,.75-1.49,1.12-2.24,1.12-1.44,0-2.51-.35-3.2-1.04-.69-.69-1.04-1.47-1.04-2.32,0-.53,.08-1.11,.24-1.72,.16-.61,.35-1.24,.56-1.88l2.16-5.68c-.8,1.01-1.47,1.85-2,2.52-.53,.67-1.01,1.29-1.44,1.88-.37,.53-.8,1.13-1.28,1.8-.48,.67-.99,1.32-1.52,1.96-1.01,1.33-2,2.48-2.96,3.44s-1.71,1.44-2.24,1.44Z"/><path class="cls-1" d="M225.12,131.52c-1.28,0-2.16-.44-2.64-1.32-.48-.88-.64-1.83-.48-2.84,.21-1.39,.6-2.51,1.16-3.36,.56-.85,1.24-1.79,2.04-2.8,.64-.91,1.25-1.84,1.84-2.8,.59-.96,.67-1.52,.24-1.68-.27,.21-.72,.45-1.36,.72-.64,.27-1.31,.4-2,.4-.59,0-1.16-.13-1.72-.4-.56-.27-.97-.75-1.24-1.44-.69,1.28-1.53,2.68-2.52,4.2-.99,1.52-1.97,2.97-2.96,4.36-.99,1.39-1.85,2.53-2.6,3.44-.21,.21-.41,.29-.6,.24-.19-.05-.2-.19-.04-.4,1.23-1.55,2.64-3.49,4.24-5.84,1.6-2.35,3.07-4.89,4.4-7.64,1.33-2.75,2.16-5.43,2.48-8.04,1.81,.85,2.72,1.95,2.72,3.28,0,1.01-.43,2.04-1.28,3.08-.85,1.04-1.97,1.99-3.36,2.84,.69,1.01,1.57,1.52,2.64,1.52,.8,0,1.61-.25,2.44-.76,.83-.51,1.48-1.08,1.96-1.72,.43-.48,.79-.8,1.08-.96,.29-.16,.55-.24,.76-.24,.75,0,1.29,.23,1.64,.68,.35,.45,.39,.95,.12,1.48-.96,1.33-2.05,2.97-3.28,4.92-1.23,1.95-2.32,3.77-3.28,5.48-.16,.21-.37,.69-.64,1.44-.27,.75-.4,1.41-.4,2,0,.8,.32,1.2,.96,1.2,.75,0,1.6-.44,2.56-1.32,.96-.88,1.92-1.95,2.88-3.2,.96-1.25,1.83-2.47,2.6-3.64,.77-1.17,1.35-2.03,1.72-2.56,.27-.48,.48-.72,.64-.72,.05,0,.08,.05,.08,.16,0,.21-.08,.45-.24,.72-.8,1.33-1.65,2.67-2.56,4-.91,1.33-1.81,2.61-2.72,3.84-.85,1.12-1.72,2.01-2.6,2.68-.88,.67-1.77,1-2.68,1Z"/><path class="cls-1" d="M239.52,131.52c-1.44,0-2.76-.52-3.96-1.56-1.2-1.04-1.8-2.57-1.8-4.6,0-1.6,.43-3.33,1.28-5.2,.85-1.87,1.96-3.65,3.32-5.36,1.36-1.71,2.81-3.12,4.36-4.24s2.99-1.71,4.32-1.76c.21,.21,.47,.37,.76,.48,.29,.11,.57,.21,.84,.32l2.08,.48c1.17,.32,1.76,1.07,1.76,2.24,0,.69-.23,1.44-.68,2.24-.45,.8-1.13,1.49-2.04,2.08-.48,.32-1,.64-1.56,.96-.56,.32-1.13,.64-1.72,.96l-3.6,1.92c-1.12,.59-2.11,1.21-2.96,1.88-.85,.67-1.47,1.37-1.84,2.12-.27,.05-.37-.03-.32-.24,.37-.91,1.11-1.83,2.2-2.76,1.09-.93,2.2-1.75,3.32-2.44,.53-.43,1.08-.8,1.64-1.12,.56-.32,1.11-.67,1.64-1.04,.53-.37,1.05-.76,1.56-1.16,.51-.4,.95-.79,1.32-1.16,.43-.43,.73-.85,.92-1.28,.19-.43,.28-.8,.28-1.12,0-1.01-.59-1.52-1.76-1.52-.75,0-1.6,.32-2.56,.96-1.17,.8-2.29,1.75-3.36,2.84-1.07,1.09-2.08,2.28-3.04,3.56-1.01,1.39-1.91,2.99-2.68,4.8-.77,1.81-1.16,3.33-1.16,4.56s.36,2.09,1.08,2.6c.72,.51,1.56,.76,2.52,.76,1.33,0,2.61-.35,3.84-1.04,.91-.53,1.76-1.21,2.56-2.04,.8-.83,1.47-1.56,2-2.2,.43-.53,.92-1.17,1.48-1.92,.56-.75,.95-1.31,1.16-1.68,.11-.11,.19-.11,.24,0,.05,.11,.08,.19,.08,.24-.21,.37-.57,.97-1.08,1.8-.51,.83-1.24,1.85-2.2,3.08-1.12,1.44-2.29,2.56-3.52,3.36-1.23,.8-2.8,1.2-4.72,1.2Z"/><path class="cls-1" d="M238.64,155.68c-.75,0-1.57-.27-2.48-.8-.91-.53-1.67-1.19-2.28-1.96-.61-.77-.92-1.56-.92-2.36,0-.85,.48-1.92,1.44-3.2,.96-1.28,2.13-2.59,3.52-3.92,1.39-1.33,2.76-2.56,4.12-3.68,1.36-1.12,2.44-1.97,3.24-2.56,3.04-2.08,6.24-3.91,9.6-5.48,3.36-1.57,6.64-2.87,9.84-3.88,.43-.75,.85-1.81,1.28-3.2,.43-1.39,.8-2.8,1.12-4.24,.32-1.44,.48-2.59,.48-3.44-.8,1.07-1.77,2.25-2.92,3.56-1.15,1.31-2.33,2.57-3.56,3.8-1.23,1.23-2.44,2.24-3.64,3.04-1.2,.8-2.25,1.2-3.16,1.2-1.12,0-2.11-.29-2.96-.88-.85-.59-1.28-1.52-1.28-2.8,0-.64,.13-1.36,.4-2.16,.27-.8,.69-1.71,1.28-2.72,.64-1.07,1.56-2.29,2.76-3.68,1.2-1.39,2.53-2.73,4-4.04,1.47-1.31,2.95-2.4,4.44-3.28,1.49-.88,2.83-1.32,4-1.32,.69,0,1.43,.28,2.2,.84,.77,.56,1.27,1.19,1.48,1.88,.21,.53,.31,.92,.28,1.16-.03,.24-.07,.41-.12,.52-.11,.11-.27,.03-.48-.24-.16-.27-.55-.48-1.16-.64-.61-.16-1.24-.24-1.88-.24-.27,0-.53,.03-.8,.08-.27,.05-.53,.13-.8,.24-1.12,.53-2.35,1.29-3.68,2.28-1.33,.99-2.61,2.09-3.84,3.32-1.81,1.81-3.11,3.45-3.88,4.92-.77,1.47-1.16,2.65-1.16,3.56,0,1.49,.61,2.24,1.84,2.24,.75,0,1.55-.35,2.4-1.04,1.55-1.23,2.93-2.44,4.16-3.64,1.23-1.2,2.32-2.33,3.28-3.4,.91-1.07,1.69-2.03,2.36-2.88,.67-.85,1.21-1.57,1.64-2.16,.8,0,1.29,.13,1.48,.4,.19,.27,.28,.56,.28,.88,0,.53-.12,1.57-.36,3.12-.24,1.55-.57,3.17-1,4.88-.43,1.71-.96,3.15-1.6,4.32,1.44,.21,2.52,.79,3.24,1.72,.72,.93,1.08,2.01,1.08,3.24v.64c0,.21-.03,.43-.08,.64-.05,.37-.2,.55-.44,.52-.24-.03-.33-.2-.28-.52,.11-1.39-.08-2.6-.56-3.64-.48-1.04-1.6-1.56-3.36-1.56-.96,1.87-2.24,3.97-3.84,6.32-1.6,2.35-3.4,4.71-5.4,7.08-2,2.37-4.11,4.56-6.32,6.56-2.21,2-4.43,3.6-6.64,4.8-2.21,1.2-4.33,1.8-6.36,1.8Zm-.96-1.52c1.28,0,3.01-.61,5.2-1.84,1.55-.85,3.2-2.05,4.96-3.6,1.76-1.55,3.51-3.27,5.24-5.16,1.73-1.89,3.36-3.77,4.88-5.64,1.52-1.87,2.81-3.59,3.88-5.16,1.07-1.57,1.81-2.79,2.24-3.64-1.44,.32-3.23,.93-5.36,1.84-2.13,.91-4.39,2.07-6.76,3.48-2.37,1.41-4.68,3-6.92,4.76-2.24,1.76-4.21,3.63-5.92,5.6-.91,1.17-1.71,2.43-2.4,3.76-.69,1.33-1.04,2.48-1.04,3.44,0,1.44,.67,2.16,2,2.16Z"/><path class="cls-1" d="M275.68,131.36c-1.12,0-1.96-.55-2.52-1.64-.56-1.09-.84-2.04-.84-2.84,0-1.87,.56-3.81,1.68-5.84,1.12-2.03,2.55-3.95,4.28-5.76,1.73-1.81,3.56-3.28,5.48-4.4s3.71-1.68,5.36-1.68c.48,0,1.03,.2,1.64,.6,.61,.4,1.19,1.03,1.72,1.88,.11,.11,.24,.33,.4,.68,.16,.35,.16,.65,0,.92l-.08-.16c-.11-.27-.35-.49-.72-.68-.37-.19-.93-.28-1.68-.28-1.23,0-2.6,.43-4.12,1.28-1.52,.85-3.04,2-4.56,3.44-1.52,1.44-2.89,3.01-4.12,4.72-1.23,1.71-2.13,3.44-2.72,5.2-.37,.91-.56,1.68-.56,2.32,0,.8,.29,1.2,.88,1.2,.43,0,.93-.21,1.52-.64,1.12-.85,2.29-1.95,3.52-3.28,1.23-1.33,2.41-2.72,3.56-4.16,1.15-1.44,2.16-2.77,3.04-4,.88-1.23,1.51-2.13,1.88-2.72,.16-.21,.36-.33,.6-.36,.24-.03,.55-.04,.92-.04,1.07,0,1.75,.17,2.04,.52,.29,.35,.31,.71,.04,1.08-.69,1.01-1.43,2.19-2.2,3.52-.77,1.33-1.44,2.64-2,3.92-.56,1.28-.84,2.43-.84,3.44,0,.8,.32,1.2,.96,1.2,.59,0,1.23-.35,1.92-1.04,.64-.59,1.4-1.44,2.28-2.56,.88-1.12,1.76-2.29,2.64-3.52,.88-1.23,1.61-2.29,2.2-3.2,.21-.27,.39-.39,.52-.36,.13,.03,.12,.2-.04,.52-.85,1.33-1.73,2.71-2.64,4.12-.91,1.41-1.87,2.73-2.88,3.96-1.92,2.45-3.36,3.68-4.32,3.68-.85,0-1.65-.27-2.4-.8-.75-.53-1.12-1.31-1.12-2.32,0-1.07,.23-2.31,.68-3.72,.45-1.41,.87-2.52,1.24-3.32-1.12,1.71-2.4,3.41-3.84,5.12-1.44,1.71-2.79,3.13-4.04,4.28-1.25,1.15-2.17,1.72-2.76,1.72Z"/><path class="cls-1" d="M303.52,131.52c-1.28,0-2.16-.44-2.64-1.32-.48-.88-.64-1.83-.48-2.84,.21-1.39,.6-2.51,1.16-3.36,.56-.85,1.24-1.79,2.04-2.8,.64-.91,1.25-1.84,1.84-2.8,.59-.96,.67-1.52,.24-1.68-.27,.21-.72,.45-1.36,.72-.64,.27-1.31,.4-2,.4-.59,0-1.16-.13-1.72-.4-.56-.27-.97-.75-1.24-1.44-.69,1.28-1.53,2.68-2.52,4.2-.99,1.52-1.97,2.97-2.96,4.36-.99,1.39-1.85,2.53-2.6,3.44-.21,.21-.41,.29-.6,.24-.19-.05-.2-.19-.04-.4,1.23-1.55,2.64-3.49,4.24-5.84,1.6-2.35,3.07-4.89,4.4-7.64,1.33-2.75,2.16-5.43,2.48-8.04,1.81,.85,2.72,1.95,2.72,3.28,0,1.01-.43,2.04-1.28,3.08-.85,1.04-1.97,1.99-3.36,2.84,.69,1.01,1.57,1.52,2.64,1.52,.8,0,1.61-.25,2.44-.76,.83-.51,1.48-1.08,1.96-1.72,.43-.48,.79-.8,1.08-.96,.29-.16,.55-.24,.76-.24,.75,0,1.29,.23,1.64,.68,.35,.45,.39,.95,.12,1.48-.96,1.33-2.05,2.97-3.28,4.92-1.23,1.95-2.32,3.77-3.28,5.48-.16,.21-.37,.69-.64,1.44-.27,.75-.4,1.41-.4,2,0,.8,.32,1.2,.96,1.2,.75,0,1.6-.44,2.56-1.32,.96-.88,1.92-1.95,2.88-3.2,.96-1.25,1.83-2.47,2.6-3.64,.77-1.17,1.35-2.03,1.72-2.56,.27-.48,.48-.72,.64-.72,.05,0,.08,.05,.08,.16,0,.21-.08,.45-.24,.72-.8,1.33-1.65,2.67-2.56,4-.91,1.33-1.81,2.61-2.72,3.84-.85,1.12-1.72,2.01-2.6,2.68-.88,.67-1.77,1-2.68,1Z"/><path class="cls-1" d="M315.76,131.36c-.8,0-1.55-.27-2.24-.8-.69-.53-1.25-1.15-1.68-1.84-.43-.69-.64-1.28-.64-1.76,0-1.81,.56-3.72,1.68-5.72,1.12-2,2.55-3.88,4.28-5.64,1.73-1.76,3.56-3.19,5.48-4.28,1.92-1.09,3.71-1.64,5.36-1.64,.27,0,.53,.05,.8,.16,.27,.11,.61,.35,1.04,.72,2.13-4.43,4.48-8.79,7.04-13.08,2.56-4.29,5.04-7.85,7.44-10.68,2.08-2.51,4.2-4.44,6.36-5.8s4.39-2.31,6.68-2.84c1.6-.43,3.25-.64,4.96-.64h.88c.32,0,.61,.03,.88,.08,.53,.05,1.15,.21,1.84,.48,.69,.27,1.09,.56,1.2,.88,.11,.21,.11,.35,0,.4-.11,.05-.24,0-.4-.16-.37-.32-.84-.55-1.4-.68-.56-.13-1.16-.2-1.8-.2-1.01,0-2.03,.13-3.04,.4-1.01,.27-1.81,.53-2.4,.8-1.76,.91-3.57,2.17-5.44,3.8-1.87,1.63-3.71,3.48-5.52,5.56-2.61,2.99-5.08,6.24-7.4,9.76-2.32,3.52-4.37,7.04-6.16,10.56-1.79,3.52-3.17,6.8-4.16,9.84-.99,3.04-1.48,5.6-1.48,7.68,0,.32,.01,.63,.04,.92,.03,.29,.07,.57,.12,.84,.16,.69,.43,1.17,.8,1.44,.37,.27,.8,.4,1.28,.4,.53,0,1.05-.12,1.56-.36,.51-.24,.95-.52,1.32-.84,1.01-.91,2.17-2.21,3.48-3.92,1.31-1.71,2.55-3.41,3.72-5.12,.21-.27,.35-.35,.4-.24,.05,.11,.03,.21-.08,.32-.21,.37-.69,1.12-1.44,2.24-.75,1.12-1.59,2.32-2.52,3.6-.93,1.28-1.83,2.35-2.68,3.2-1.39,1.39-2.8,2.08-4.24,2.08-1.07,0-1.97-.45-2.72-1.36s-1.12-2.19-1.12-3.84c0-.53,.05-1.41,.16-2.64,.11-1.23,.27-2.27,.48-3.12-1.23,2.03-2.49,3.88-3.8,5.56-1.31,1.68-2.56,3.01-3.76,4-1.2,.99-2.25,1.48-3.16,1.48Zm-.56-1.04c.48,0,1.01-.21,1.6-.64,.96-.75,2.04-1.76,3.24-3.04,1.2-1.28,2.4-2.65,3.6-4.12,1.2-1.47,2.25-2.87,3.16-4.2,.27-.85,.64-1.87,1.12-3.04,.48-1.17,.91-2.24,1.28-3.2-.69-.11-1.48-.01-2.36,.28-.88,.29-1.51,.55-1.88,.76-1.44,.85-2.95,2.04-4.52,3.56-1.57,1.52-2.97,3.15-4.2,4.88-1.23,1.73-2.13,3.4-2.72,5-.16,.37-.24,.8-.24,1.28,0,.64,.17,1.21,.52,1.72,.35,.51,.81,.76,1.4,.76Z"/><path class="cls-1" d="M100.32,211.36c-1.12,0-1.96-.55-2.52-1.64-.56-1.09-.84-2.04-.84-2.84,0-1.87,.56-3.81,1.68-5.84,1.12-2.03,2.55-3.95,4.28-5.76,1.73-1.81,3.56-3.28,5.48-4.4,1.92-1.12,3.71-1.68,5.36-1.68,.48,0,1.03,.2,1.64,.6,.61,.4,1.19,1.03,1.72,1.88,.11,.11,.24,.33,.4,.68,.16,.35,.16,.65,0,.92l-.08-.16c-.11-.27-.35-.49-.72-.68-.37-.19-.93-.28-1.68-.28-1.23,0-2.6,.43-4.12,1.28-1.52,.85-3.04,2-4.56,3.44-1.52,1.44-2.89,3.01-4.12,4.72-1.23,1.71-2.13,3.44-2.72,5.2-.37,.91-.56,1.68-.56,2.32,0,.8,.29,1.2,.88,1.2,.43,0,.93-.21,1.52-.64,1.12-.85,2.29-1.95,3.52-3.28,1.23-1.33,2.41-2.72,3.56-4.16,1.15-1.44,2.16-2.77,3.04-4,.88-1.23,1.51-2.13,1.88-2.72,.16-.21,.36-.33,.6-.36,.24-.03,.55-.04,.92-.04,1.07,0,1.75,.17,2.04,.52,.29,.35,.31,.71,.04,1.08-.69,1.01-1.43,2.19-2.2,3.52-.77,1.33-1.44,2.64-2,3.92-.56,1.28-.84,2.43-.84,3.44,0,.8,.32,1.2,.96,1.2,.59,0,1.23-.35,1.92-1.04,.64-.59,1.4-1.44,2.28-2.56,.88-1.12,1.76-2.29,2.64-3.52,.88-1.23,1.61-2.29,2.2-3.2,.21-.27,.39-.39,.52-.36,.13,.03,.12,.2-.04,.52-.85,1.33-1.73,2.71-2.64,4.12-.91,1.41-1.87,2.73-2.88,3.96-1.92,2.45-3.36,3.68-4.32,3.68-.85,0-1.65-.27-2.4-.8-.75-.53-1.12-1.31-1.12-2.32,0-1.07,.23-2.31,.68-3.72,.45-1.41,.87-2.52,1.24-3.32-1.12,1.71-2.4,3.41-3.84,5.12-1.44,1.71-2.79,3.13-4.04,4.28-1.25,1.15-2.17,1.72-2.76,1.72Zm16.88-26.88c-.37,0-1-.28-1.88-.84s-1.77-1.21-2.68-1.96c-.85-.64-1.47-1.15-1.84-1.52-.37-.37-.83-.83-1.36-1.36-.27-.21-.4-.51-.4-.88,0-.43,.13-.79,.4-1.08,.27-.29,.56-.52,.88-.68,.27-.16,.48-.11,.64,.16,.32,.48,.73,1,1.24,1.56,.51,.56,.92,1,1.24,1.32,.53,.53,1.21,1.27,2.04,2.2,.83,.93,1.45,1.61,1.88,2.04,.27,.16,.4,.37,.4,.64s-.16,.4-.48,.4h-.08Z"/><path class="cls-1" d="M138.64,211.92c-1.33,0-2.48-.47-3.44-1.4s-1.44-2.44-1.44-4.52c0-2.67,.69-5.92,2.08-9.76,1.39-3.84,3.15-7.87,5.28-12.08,1.65-3.15,3.41-6.16,5.28-9.04,1.87-2.88,3.71-5.45,5.52-7.72,1.81-2.27,3.48-4.05,5-5.36,1.52-1.31,2.76-1.96,3.72-1.96,.91,0,1.59,.24,2.04,.72s.85,1.01,1.2,1.6c.35,.59,.81,1.07,1.4,1.44-.05,1.23-.69,2.77-1.92,4.64-1.23,1.87-2.69,3.89-4.4,6.08-1.12,1.33-2.71,3.21-4.76,5.64-2.05,2.43-4.09,4.92-6.12,7.48-1.65,2.03-3.12,3.97-4.4,5.84-1.28,1.87-2.27,3.41-2.96,4.64-.21,.37-.37,.51-.48,.4-.11-.11-.11-.27,0-.48,.53-1.07,1.37-2.44,2.52-4.12,1.15-1.68,2.44-3.48,3.88-5.4,1.44-1.92,2.85-3.77,4.24-5.56,1.39-1.79,2.59-3.35,3.6-4.68,1.01-1.33,1.71-2.21,2.08-2.64,.8-1.01,1.57-1.99,2.32-2.92,.75-.93,1.41-1.83,2-2.68,.64-.96,1.11-1.81,1.4-2.56,.29-.75,.44-1.36,.44-1.84,0-.85-.35-1.28-1.04-1.28-.48,0-1.08,.24-1.8,.72s-1.53,1.25-2.44,2.32c-1.33,1.6-2.89,3.56-4.68,5.88-1.79,2.32-3.61,4.87-5.48,7.64-1.87,2.77-3.59,5.67-5.16,8.68-1.57,3.01-2.85,6.03-3.84,9.04-.99,3.01-1.48,5.91-1.48,8.68,0,1.28,.27,2.19,.8,2.72,.53,.53,1.17,.8,1.92,.8,.8,0,1.64-.23,2.52-.68,.88-.45,1.61-1.03,2.2-1.72,.91-.96,1.8-2.03,2.68-3.2,.88-1.17,1.68-2.28,2.4-3.32,.72-1.04,1.24-1.83,1.56-2.36,.16-.27,.32-.4,.48-.4,.27,0,.27,.21,0,.64-.85,1.44-1.85,2.95-3,4.52-1.15,1.57-2.17,2.92-3.08,4.04-.85,1.07-1.88,1.92-3.08,2.56s-2.39,.96-3.56,.96Z"/><path class="cls-1" d="M151.6,211.36c-1.12,0-1.96-.55-2.52-1.64-.56-1.09-.84-2.04-.84-2.84,0-1.87,.56-3.81,1.68-5.84,1.12-2.03,2.55-3.95,4.28-5.76,1.73-1.81,3.56-3.28,5.48-4.4,1.92-1.12,3.71-1.68,5.36-1.68,.48,0,1.03,.2,1.64,.6,.61,.4,1.19,1.03,1.72,1.88,.11,.11,.24,.33,.4,.68,.16,.35,.16,.65,0,.92l-.08-.16c-.11-.27-.35-.49-.72-.68-.37-.19-.93-.28-1.68-.28-1.23,0-2.6,.43-4.12,1.28-1.52,.85-3.04,2-4.56,3.44-1.52,1.44-2.89,3.01-4.12,4.72-1.23,1.71-2.13,3.44-2.72,5.2-.37,.91-.56,1.68-.56,2.32,0,.8,.29,1.2,.88,1.2,.43,0,.93-.21,1.52-.64,1.12-.85,2.29-1.95,3.52-3.28,1.23-1.33,2.41-2.72,3.56-4.16,1.15-1.44,2.16-2.77,3.04-4,.88-1.23,1.51-2.13,1.88-2.72,.16-.21,.36-.33,.6-.36,.24-.03,.55-.04,.92-.04,1.07,0,1.75,.17,2.04,.52,.29,.35,.31,.71,.04,1.08-.69,1.01-1.43,2.19-2.2,3.52-.77,1.33-1.44,2.64-2,3.92-.56,1.28-.84,2.43-.84,3.44,0,.8,.32,1.2,.96,1.2,.59,0,1.23-.35,1.92-1.04,.64-.59,1.4-1.44,2.28-2.56,.88-1.12,1.76-2.29,2.64-3.52,.88-1.23,1.61-2.29,2.2-3.2,.21-.27,.39-.39,.52-.36,.13,.03,.12,.2-.04,.52-.85,1.33-1.73,2.71-2.64,4.12-.91,1.41-1.87,2.73-2.88,3.96-1.92,2.45-3.36,3.68-4.32,3.68-.85,0-1.65-.27-2.4-.8-.75-.53-1.12-1.31-1.12-2.32,0-1.07,.23-2.31,.68-3.72,.45-1.41,.87-2.52,1.24-3.32-1.12,1.71-2.4,3.41-3.84,5.12-1.44,1.71-2.79,3.13-4.04,4.28-1.25,1.15-2.17,1.72-2.76,1.72Z"/><path class="cls-1" d="M207.92,216.72c-1.44,0-2.4-.44-2.88-1.32-.48-.88-.72-1.75-.72-2.6,0-1.39,.28-2.84,.84-4.36,.56-1.52,1.19-3.03,1.88-4.52,1.23-2.51,2.19-4.4,2.88-5.68,.69-1.28,1.19-2.24,1.48-2.88,.29-.64,.44-1.23,.44-1.76s-.13-.88-.4-1.04c-.27-.16-.53-.24-.8-.24-.37,0-.8,.15-1.28,.44-.48,.29-.93,.65-1.36,1.08-.91,.96-1.89,2.17-2.96,3.64-1.07,1.47-2.09,2.99-3.08,4.56-.99,1.57-1.84,3-2.56,4.28-.72,1.28-1.21,2.19-1.48,2.72-.48,.96-1.04,1.44-1.68,1.44-.75,0-1.52-.53-2.32-1.6,.37-.85,.8-1.83,1.28-2.92,.48-1.09,.96-2.23,1.44-3.4,.59-1.39,1.13-2.91,1.64-4.56,.51-1.65,.76-3.04,.76-4.16s-.29-1.68-.88-1.68c-.48,0-1.12,.4-1.92,1.2-.75,.69-1.67,1.75-2.76,3.16-1.09,1.41-2.2,2.97-3.32,4.68-1.12,1.71-2.09,3.35-2.92,4.92-.83,1.57-1.35,2.87-1.56,3.88-.11,.27-.35,.4-.72,.4-.48,0-.99-.21-1.52-.64-.53-.43-.77-1.12-.72-2.08,0-.16,.21-.76,.64-1.8,.43-1.04,.95-2.25,1.56-3.64,.61-1.39,1.21-2.75,1.8-4.08,.59-1.33,1.07-2.4,1.44-3.2-.37-.32-.57-.56-.6-.72-.03-.16-.01-.32,.04-.48,.16-.21,.4-.63,.72-1.24,.32-.61,.64-1.23,.96-1.84,.32-.61,.51-1.03,.56-1.24,.21-.11,.65-.28,1.32-.52,.67-.24,1.32-.36,1.96-.36h.32c.64,0,.96,.19,.96,.56s-.19,.85-.56,1.44c-.16,.27-.51,.89-1.04,1.88-.53,.99-1.15,2.12-1.84,3.4-.69,1.28-1.32,2.49-1.88,3.64-.56,1.15-.97,2.04-1.24,2.68-.27,.59-.35,1.2-.24,1.84,1.07-1.76,2.35-3.72,3.84-5.88,1.49-2.16,3.07-4.09,4.72-5.8,.64-.75,1.33-1.12,2.08-1.12,1.49,0,2.57,.35,3.24,1.04,.67,.69,1,1.47,1,2.32,0,1.01-.29,2.19-.88,3.52-.21,.53-.59,1.48-1.12,2.84-.53,1.36-1.07,2.68-1.6,3.96,.8-1.12,1.8-2.53,3-4.24,1.2-1.71,2.45-3.4,3.76-5.08,1.31-1.68,2.49-3.08,3.56-4.2,1.07-1.12,1.84-1.68,2.32-1.68,1.17,0,2.23,.41,3.16,1.24,.93,.83,1.4,1.53,1.4,2.12,0,.85-.4,1.97-1.2,3.36-.8,1.39-2.13,3.57-4,6.56-1.07,1.71-2.12,3.61-3.16,5.72-1.04,2.11-1.56,3.93-1.56,5.48,0,1.39,.4,2.08,1.2,2.08,.48,0,.99-.24,1.52-.72,.37-.32,.75-.67,1.12-1.04,.37-.37,.75-.69,1.12-.96-.43,.96-.88,1.73-1.36,2.32-.48,.59-1.09,.88-1.84,.88Z"/><path class="cls-1" d="M220.08,211.36c-1.12,0-1.96-.55-2.52-1.64-.56-1.09-.84-2.04-.84-2.84,0-1.87,.56-3.81,1.68-5.84,1.12-2.03,2.55-3.95,4.28-5.76,1.73-1.81,3.56-3.28,5.48-4.4s3.71-1.68,5.36-1.68c.48,0,1.03,.2,1.64,.6,.61,.4,1.19,1.03,1.72,1.88,.11,.11,.24,.33,.4,.68,.16,.35,.16,.65,0,.92l-.08-.16c-.11-.27-.35-.49-.72-.68-.37-.19-.93-.28-1.68-.28-1.23,0-2.6,.43-4.12,1.28-1.52,.85-3.04,2-4.56,3.44-1.52,1.44-2.89,3.01-4.12,4.72-1.23,1.71-2.13,3.44-2.72,5.2-.37,.91-.56,1.68-.56,2.32,0,.8,.29,1.2,.88,1.2,.43,0,.93-.21,1.52-.64,1.12-.85,2.29-1.95,3.52-3.28,1.23-1.33,2.41-2.72,3.56-4.16,1.15-1.44,2.16-2.77,3.04-4,.88-1.23,1.51-2.13,1.88-2.72,.16-.21,.36-.33,.6-.36,.24-.03,.55-.04,.92-.04,1.07,0,1.75,.17,2.04,.52,.29,.35,.31,.71,.04,1.08-.69,1.01-1.43,2.19-2.2,3.52-.77,1.33-1.44,2.64-2,3.92-.56,1.28-.84,2.43-.84,3.44,0,.8,.32,1.2,.96,1.2,.59,0,1.23-.35,1.92-1.04,.64-.59,1.4-1.44,2.28-2.56,.88-1.12,1.76-2.29,2.64-3.52,.88-1.23,1.61-2.29,2.2-3.2,.21-.27,.39-.39,.52-.36,.13,.03,.12,.2-.04,.52-.85,1.33-1.73,2.71-2.64,4.12-.91,1.41-1.87,2.73-2.88,3.96-1.92,2.45-3.36,3.68-4.32,3.68-.85,0-1.65-.27-2.4-.8-.75-.53-1.12-1.31-1.12-2.32,0-1.07,.23-2.31,.68-3.72,.45-1.41,.87-2.52,1.24-3.32-1.12,1.71-2.4,3.41-3.84,5.12-1.44,1.71-2.79,3.13-4.04,4.28-1.25,1.15-2.17,1.72-2.76,1.72Z"/><path class="cls-1" d="M252.8,211.52c-1.39,0-2.36-.41-2.92-1.24-.56-.83-.84-1.8-.84-2.92,0-1.28,.2-2.57,.6-3.88,.4-1.31,.85-2.51,1.36-3.6,.51-1.09,.92-1.93,1.24-2.52,.91-1.71,1.36-2.83,1.36-3.36,0-.59-.27-.77-.8-.56-.43,.16-1.01,.61-1.76,1.36-.75,.75-1.52,1.6-2.32,2.56s-1.51,1.84-2.12,2.64c-.61,.8-1,1.33-1.16,1.6-1.49,2.13-2.53,3.89-3.12,5.28-.59,1.39-1.01,2.4-1.28,3.04-.11,.27-.4,.4-.88,.4s-.96-.2-1.44-.6c-.48-.4-.72-1-.72-1.8,0-.43,.24-1.19,.72-2.28,.48-1.09,1.07-2.39,1.76-3.88,.64-1.44,1.28-2.89,1.92-4.36,.64-1.47,1.15-2.63,1.52-3.48-.37-.32-.56-.56-.56-.72s.03-.29,.08-.4c.11-.27,.32-.71,.64-1.32,.32-.61,.64-1.23,.96-1.84,.32-.61,.53-1,.64-1.16,.16-.11,.57-.29,1.24-.56,.67-.27,1.32-.4,1.96-.4h.32c.64,0,.96,.19,.96,.56s-.19,.85-.56,1.44c-.16,.27-.53,.95-1.12,2.04-.59,1.09-1.25,2.33-2,3.72-.75,1.39-1.43,2.71-2.04,3.96-.61,1.25-1.05,2.2-1.32,2.84-.16,.48-.23,.95-.2,1.4,.03,.45,.15,.52,.36,.2,1.49-2.24,2.88-4.16,4.16-5.76s2.56-3.09,3.84-4.48c1.28-1.39,2.69-2.83,4.24-4.32,.53,.21,1.09,.32,1.68,.32s1.09,.16,1.52,.48c.21,.16,.32,.43,.32,.8,0,.75-.44,1.85-1.32,3.32-.88,1.47-1.85,3.11-2.92,4.92-.8,1.39-1.6,2.99-2.4,4.8-.8,1.81-1.2,3.39-1.2,4.72,0,.69,.12,1.27,.36,1.72,.24,.45,.63,.68,1.16,.68,.48,0,1.01-.19,1.6-.56,.43-.27,1.36-1.16,2.8-2.68,1.44-1.52,3.01-3.59,4.72-6.2,.16-.16,.27-.24,.32-.24,.11,0,.16,.05,.16,.16s-.08,.32-.24,.64c-1.76,2.99-3.51,5.32-5.24,7-1.73,1.68-3.08,2.52-4.04,2.52Z"/><path class="cls-1" d="M264.4,210.72c-1.17,0-2.07-.27-2.68-.8-.61-.53-.87-1.23-.76-2.08,.11-.59,.27-1.25,.48-2,.21-.75,.48-1.49,.8-2.24l1.92-4.48c-.05-.11-.09-.2-.12-.28-.03-.08-.04-.15-.04-.2-.05-.21-.03-.4,.08-.56,1.39-2.13,2.67-3.92,3.84-5.36,1.17-1.44,1.95-2.16,2.32-2.16,.75,0,1.63,.51,2.64,1.52-.69,.85-1.41,1.8-2.16,2.84-.75,1.04-1.47,2.09-2.16,3.16-.75,1.12-1.53,2.33-2.36,3.64-.83,1.31-1.4,2.49-1.72,3.56-.32,.96-.48,1.71-.48,2.24,0,.75,.27,1.12,.8,1.12,.69,0,1.71-.72,3.04-2.16,.91-.96,1.91-2.15,3-3.56,1.09-1.41,2.15-2.84,3.16-4.28,1.07-1.49,2.07-2.89,3-4.2,.93-1.31,1.72-2.36,2.36-3.16,.59-.75,1.12-1.12,1.6-1.12,.69,0,1.49,.59,2.4,1.76-.75,1.07-1.65,2.44-2.72,4.12-1.07,1.68-2.04,3.39-2.92,5.12-.88,1.73-1.45,3.27-1.72,4.6-.05,.21-.09,.43-.12,.64-.03,.21-.04,.45-.04,.72,0,1.55,.4,2.32,1.2,2.32,.43,0,.95-.24,1.56-.72,.61-.48,1.21-1.04,1.8-1.68s1.04-1.17,1.36-1.6c1.71-2.29,3.33-4.67,4.88-7.12,.32-.48,.53-.72,.64-.72s.15,.09,.12,.28c-.03,.19-.07,.33-.12,.44-1.07,1.76-2.31,3.68-3.72,5.76-1.41,2.08-2.81,3.79-4.2,5.12-.75,.75-1.49,1.12-2.24,1.12-1.44,0-2.51-.35-3.2-1.04-.69-.69-1.04-1.47-1.04-2.32,0-.53,.08-1.11,.24-1.72,.16-.61,.35-1.24,.56-1.88l2.16-5.68c-.8,1.01-1.47,1.85-2,2.52-.53,.67-1.01,1.29-1.44,1.88-.37,.53-.8,1.13-1.28,1.8-.48,.67-.99,1.32-1.52,1.96-1.01,1.33-2,2.48-2.96,3.44s-1.71,1.44-2.24,1.44Z"/><path class="cls-1" d="M290.4,211.68c-1.65,0-3.05-.61-4.2-1.84-1.15-1.23-1.72-2.88-1.72-4.96,0-1.55,.35-3.2,1.04-4.96,.8-1.87,1.85-3.64,3.16-5.32,1.31-1.68,2.73-3.07,4.28-4.16,1.55-1.09,3.07-1.64,4.56-1.64,1.01,0,2,.28,2.96,.84s1.31,1.45,1.04,2.68c-.05,.16-.15,.27-.28,.32-.13,.05-.2,.05-.2,0-.37-1.07-1.17-1.6-2.4-1.6-.69,0-1.41,.24-2.16,.72-1.49,1.12-2.89,2.44-4.2,3.96-1.31,1.52-2.41,3.05-3.32,4.6-.91,1.55-1.52,2.96-1.84,4.24-.11,.53-.2,1-.28,1.4s-.12,.81-.12,1.24c0,1.33,.35,2.28,1.04,2.84,.69,.56,1.52,.84,2.48,.84,1.55,0,2.99-.48,4.32-1.44,1.17-.91,2.27-1.95,3.28-3.12,1.01-1.17,2-2.48,2.96-3.92,.16-.27,.32-.4,.48-.4,.05,0,.08,.05,.08,.16,0,.16-.11,.43-.32,.8-.8,1.17-1.71,2.44-2.72,3.8-1.01,1.36-2.13,2.47-3.36,3.32-.75,.53-1.51,.93-2.28,1.2-.77,.27-1.53,.4-2.28,.4Z"/><path class="cls-1" d="M303.76,210.72c-1.17,0-2.07-.27-2.68-.8-.61-.53-.87-1.23-.76-2.08,.11-.59,.27-1.25,.48-2,.21-.75,.48-1.49,.8-2.24l1.92-4.48c-.05-.11-.09-.2-.12-.28-.03-.08-.04-.15-.04-.2-.05-.21-.03-.4,.08-.56,1.39-2.13,2.67-3.92,3.84-5.36,1.17-1.44,1.95-2.16,2.32-2.16,.75,0,1.63,.51,2.64,1.52-.69,.85-1.41,1.8-2.16,2.84-.75,1.04-1.47,2.09-2.16,3.16-.75,1.12-1.53,2.33-2.36,3.64-.83,1.31-1.4,2.49-1.72,3.56-.32,.96-.48,1.71-.48,2.24,0,.75,.27,1.12,.8,1.12,.69,0,1.71-.72,3.04-2.16,.91-.96,1.91-2.15,3-3.56,1.09-1.41,2.15-2.84,3.16-4.28,1.07-1.49,2.07-2.89,3-4.2,.93-1.31,1.72-2.36,2.36-3.16,.59-.75,1.12-1.12,1.6-1.12,.69,0,1.49,.59,2.4,1.76-.75,1.07-1.65,2.44-2.72,4.12-1.07,1.68-2.04,3.39-2.92,5.12-.88,1.73-1.45,3.27-1.72,4.6-.05,.21-.09,.43-.12,.64-.03,.21-.04,.45-.04,.72,0,1.55,.4,2.32,1.2,2.32,.43,0,.95-.24,1.56-.72,.61-.48,1.21-1.04,1.8-1.68s1.04-1.17,1.36-1.6c1.71-2.29,3.33-4.67,4.88-7.12,.32-.48,.53-.72,.64-.72s.15,.09,.12,.28c-.03,.19-.07,.33-.12,.44-1.07,1.76-2.31,3.68-3.72,5.76-1.41,2.08-2.81,3.79-4.2,5.12-.75,.75-1.49,1.12-2.24,1.12-1.44,0-2.51-.35-3.2-1.04-.69-.69-1.04-1.47-1.04-2.32,0-.53,.08-1.11,.24-1.72,.16-.61,.35-1.24,.56-1.88l2.16-5.68c-.8,1.01-1.47,1.85-2,2.52-.53,.67-1.01,1.29-1.44,1.88-.37,.53-.8,1.13-1.28,1.8-.48,.67-.99,1.32-1.52,1.96-1.01,1.33-2,2.48-2.96,3.44s-1.71,1.44-2.24,1.44Z"/><path class="cls-1" d="M332.16,211.52c-1.28,0-2.16-.44-2.64-1.32-.48-.88-.64-1.83-.48-2.84,.21-1.39,.6-2.51,1.16-3.36,.56-.85,1.24-1.79,2.04-2.8,.64-.91,1.25-1.84,1.84-2.8,.59-.96,.67-1.52,.24-1.68-.27,.21-.72,.45-1.36,.72-.64,.27-1.31,.4-2,.4-.59,0-1.16-.13-1.72-.4-.56-.27-.97-.75-1.24-1.44-.69,1.28-1.53,2.68-2.52,4.2-.99,1.52-1.97,2.97-2.96,4.36-.99,1.39-1.85,2.53-2.6,3.44-.21,.21-.41,.29-.6,.24-.19-.05-.2-.19-.04-.4,1.23-1.55,2.64-3.49,4.24-5.84,1.6-2.35,3.07-4.89,4.4-7.64,1.33-2.75,2.16-5.43,2.48-8.04,1.81,.85,2.72,1.95,2.72,3.28,0,1.01-.43,2.04-1.28,3.08-.85,1.04-1.97,1.99-3.36,2.84,.69,1.01,1.57,1.52,2.64,1.52,.8,0,1.61-.25,2.44-.76,.83-.51,1.48-1.08,1.96-1.72,.43-.48,.79-.8,1.08-.96,.29-.16,.55-.24,.76-.24,.75,0,1.29,.23,1.64,.68,.35,.45,.39,.95,.12,1.48-.96,1.33-2.05,2.97-3.28,4.92-1.23,1.95-2.32,3.77-3.28,5.48-.16,.21-.37,.69-.64,1.44-.27,.75-.4,1.41-.4,2,0,.8,.32,1.2,.96,1.2,.75,0,1.6-.44,2.56-1.32,.96-.88,1.92-1.95,2.88-3.2,.96-1.25,1.83-2.47,2.6-3.64,.77-1.17,1.35-2.03,1.72-2.56,.27-.48,.48-.72,.64-.72,.05,0,.08,.05,.08,.16,0,.21-.08,.45-.24,.72-.8,1.33-1.65,2.67-2.56,4-.91,1.33-1.81,2.61-2.72,3.84-.85,1.12-1.72,2.01-2.6,2.68-.88,.67-1.77,1-2.68,1Z"/><path class="cls-1" d="M346.56,211.52c-1.44,0-2.76-.52-3.96-1.56-1.2-1.04-1.8-2.57-1.8-4.6,0-1.6,.43-3.33,1.28-5.2,.85-1.87,1.96-3.65,3.32-5.36,1.36-1.71,2.81-3.12,4.36-4.24s2.99-1.71,4.32-1.76c.21,.21,.47,.37,.76,.48,.29,.11,.57,.21,.84,.32l2.08,.48c1.17,.32,1.76,1.07,1.76,2.24,0,.69-.23,1.44-.68,2.24-.45,.8-1.13,1.49-2.04,2.08-.48,.32-1,.64-1.56,.96-.56,.32-1.13,.64-1.72,.96l-3.6,1.92c-1.12,.59-2.11,1.21-2.96,1.88-.85,.67-1.47,1.37-1.84,2.12-.27,.05-.37-.03-.32-.24,.37-.91,1.11-1.83,2.2-2.76,1.09-.93,2.2-1.75,3.32-2.44,.53-.43,1.08-.8,1.64-1.12,.56-.32,1.11-.67,1.64-1.04,.53-.37,1.05-.76,1.56-1.16,.51-.4,.95-.79,1.32-1.16,.43-.43,.73-.85,.92-1.28,.19-.43,.28-.8,.28-1.12,0-1.01-.59-1.52-1.76-1.52-.75,0-1.6,.32-2.56,.96-1.17,.8-2.29,1.75-3.36,2.84-1.07,1.09-2.08,2.28-3.04,3.56-1.01,1.39-1.91,2.99-2.68,4.8-.77,1.81-1.16,3.33-1.16,4.56s.36,2.09,1.08,2.6c.72,.51,1.56,.76,2.52,.76,1.33,0,2.61-.35,3.84-1.04,.91-.53,1.76-1.21,2.56-2.04,.8-.83,1.47-1.56,2-2.2,.43-.53,.92-1.17,1.48-1.92,.56-.75,.95-1.31,1.16-1.68,.11-.11,.19-.11,.24,0,.05,.11,.08,.19,.08,.24-.21,.37-.57,.97-1.08,1.8-.51,.83-1.24,1.85-2.2,3.08-1.12,1.44-2.29,2.56-3.52,3.36-1.23,.8-2.8,1.2-4.72,1.2Z"/></svg>