<?xml version="1.0" encoding="UTF-8"?><svg id="Calque_1" xmlns="http://www.w3.org/2000/svg" viewBox="0 0 450 300"><defs><style>.cls-1{fill:#fff;}</style></defs><path class="cls-1" d="M113.1,97.86c0,1.62,.78,2.94,1.92,3.6-2.64,0-4.98-2.52-4.98-5.4,0-9.06,18.24-17.64,34.68-17.7,16.14-.06,26.4,6.72,26.1,17.88-.48,20.34-38.82,43.62-69.78,43.62-3.6,0-10.56-.9-10.56-6.3,0-6.66,12.66-16.02,25.44-20.52,0,.06-.12,.12-.36,.3-9.72,4.5-22.38,13.38-22.38,19.62,0,2.58,4.14,3,6.54,3,26.76,0,67.5-23.7,67.5-43.5,0-7.68-9.3-12-18.12-12.12-17.7-.24-36,11.58-36,17.52Zm11.04,24.54c1.02,0,2.04-.18,3.48-.9-.24,.84-2.94,2.64-4.14,2.64-.78,0-1.68-.6-1.68-1.8,0-4.26,11.28-21.3,19.68-30.54,1.32-1.5,5.4-5.94,7.8-5.94,.42,0,.96,.12,1.38,.3,2.7,.96,4.08,3.66,3.18,2.94-.96-.54-2.28,.12-3.78,1.32-1.02,.84-2.1,1.92-4.5,4.44-8.7,9.12-21.42,24.96-21.42,27.54Z"/><path class="cls-1" d="M182.94,112.2c-6.06,6.18-14.1,14.82-17.7,15.54h-.48c-.96,0-2.82-1.62-2.82-3.06,0-2.58,3.3-8.64,6.72-13.38,2.1-2.94,4.62-5.82,6.12-7.02,.3-.3,.66-.36,.84-.36,1.44,0,3.78,2.34,3.78,3.9,0,.24-.24-.06-.78-.12-.9-.12-3.42,3-5.46,5.64-3.06,4.02-6.06,9.24-6.06,10.98,2.88-1.2,9-6.6,11.88-9.36,3.12-3.06,7.56-8.28,10.98-10.92,.3-.24,.6-.3,.84-.3,1.44,0,3.72,2.34,3.72,3.84,0,.24-.18-.06-.72-.12-.42,0-1.2,.54-1.98,1.38-.9,.96-2.58,3.12-4.56,5.76-3,4.02-5.22,8.28-5.22,9.96,3.78-1.14,12.3-9.3,15.96-12.78,.36-.3,.66,.18,.48,.36-5.22,5.7-15,15.72-18.6,15.72-.3,0-.66-.12-.96-.36-.96-.48-2.16-1.86-2.16-2.94,0-.6,.36-1.68,.66-2.58,1.02-2.76,3.3-7.02,5.52-9.78Z"/><path class="cls-1" d="M219.24,104.16c.36-.24,.6-.3,.84-.3,1.44,0,3.72,2.34,3.72,3.84,0,.24-.18-.06-.66-.12-.9-.06-3,2.28-4.8,4.68-1.62,2.16-3.72,4.98-4.98,7.2,3.18-4.14,9.18-9.18,14.34-12.9,2.34-1.68,4.14-2.7,5.4-2.82,.66-.06,3.12,2.52,2.7,3-1.32,1.38-6.3,5.76-8.28,10.44,2.88-.24,7.02-2.94,10.74-6.24,.06-.06,.42-.12,.48,0-1.08,1.44-8.28,8.16-12.42,8.16-1.08,0-2.88-2.1-2.88-2.82,0-1.68,1.92-5.16,3.48-6.96-5.52,3.24-8.34,5.64-12.42,10.14-3.06,3.3-6.66,8.58-5.34,9.18-1.74,.42-3.18-1.44-3.6-3.12-.12-.54,.18-1.68,.9-3.06,1.5-3.42,4.2-7.56,6.6-10.98,2.1-3.06,4.68-6.12,6.18-7.32Z"/><path class="cls-1" d="M235.32,124.08c-.06,.72,.48,1.14,1.8,1.14,4.38,0,15.36-8.34,21.42-13.38,.18-.12,.6,.18,.42,.36-4.5,4.2-16.44,15.66-24.42,15.66-1.86,0-4.26-2.16-4.26-3.78,0-1.44,.36-2.64,.84-3.96,1.44-3.42,4.5-7.2,8.28-10.38,4.98-4.14,10.32-6,12.9-6,.9,0,3.66,1.38,3.66,3.06,0,3.72-11.52,12.36-18.24,12.54-1.08,1.26-2.22,3.18-2.4,4.74Zm3.18-5.94c5.22-.6,15.18-10.32,15.54-12.6-6.66,2.16-13.56,9.42-15.54,12.6Z"/><path class="cls-1" d="M273,122.4c1.32-.48,2.64-.96,3.96-1.38,.96-.3,1.92-.12,1.08,.18-1.92,.78-3.84,1.62-5.7,2.4-7.68,13.38-17.58,28.44-29.1,31.5-.66,.18-1.32,.24-1.98,.24-2.22,0-4.08-1.02-4.08-3.54,0-.66,.12-1.44,.42-2.34,2.4-7.62,14.22-17.34,28.02-23.94,1.32-2.28,6.36-11.34,6.36-11.34,.06-.06-1.44,1.02-2.58,2.04-.9,.84-4.2,3.78-7.56,6.42-3.42,2.64-6.96,5.22-8.22,5.22-.12,0-.42-.06-.6-.18-1.08-.66-2.58-2.82-2.58-4.02,0-6.54,13.8-19.92,24.78-19.92,2.34,0,5.34,.96,5.34,3.78,0,1.02-.6,2.04-1.14,2.82-.12,.06-.18,0-.12-.06,.24-.54,.6-1.26,.6-2.16,0-1.8-1.14-2.7-2.94-2.58-3.48,.18-7.8,2.7-11.76,6-5.7,4.86-10.08,12.24-9.48,12.72,.24,.24,2.64-1.32,5.28-3.06,2.88-1.92,5.7-4.14,7.68-5.82,4.14-3.48,5.04-4.38,6.06-4.86,1.14-.54,3.66,2.7,3.42,3.42-.18-.18-.48-.36-1.5,1.68l-3.66,6.78Zm-8.46,4.98c-10.92,5.76-19.26,12.6-23.46,20.4-.66,1.2-.96,2.04-.96,2.64,0,.84,.54,1.14,1.32,1.14,.84,0,1.86-.36,2.82-.84,7.02-3.78,14.16-13.44,20.28-23.34Z"/><path class="cls-1" d="M295.68,115.98c-1.8,1.8-13.5,11.88-16.02,11.88-.12,0-.42-.12-.54-.18-1.08-.54-2.64-2.82-2.64-4.02,0-6.54,13.74-19.92,24.78-19.92,2.28,0,5.28,.96,5.28,3.78,0,1.02-.54,2.04-1.14,2.82-.12,.06-.24,0-.18-.06,.3-.54,.66-1.26,.66-2.16,0-1.8-1.14-2.7-2.94-2.58-3.48,.18-7.86,2.7-11.76,6-5.7,4.86-10.2,12.42-9.66,12.72,.12,.06,.24,.06,.42,0,1.98-.66,10.38-6.72,13.5-9.36,1.08-.96,4.98-4.74,6.48-5.58,1.2-.6,3.24,2.7,3,3.42-.3-.6-5.7,5.94-7.5,9.78-.36,.84-.6,1.56-.6,2.04,3.78-1.08,12.36-9.3,16.08-12.78,.3-.3,.6,.18,.42,.36-5.22,5.7-15,15.72-18.6,15.72-.3,0-.6-.12-1.02-.36-.84-.48-1.98-1.74-1.98-2.82,0-.6,.24-1.32,.48-2.22,.72-2.22,2.34-4.98,3.48-6.48Z"/><path class="cls-1" d="M318.54,104.16c.36-.24,.6-.3,.84-.3,1.44,0,3.72,2.34,3.72,3.84,0,.24-.18-.06-.66-.12-.9-.06-3,2.28-4.8,4.68-1.62,2.16-3.72,4.98-4.98,7.2,3.18-4.14,9.18-9.18,14.34-12.9,2.34-1.68,4.14-2.7,5.4-2.82,.66-.06,3.12,2.52,2.7,3-1.32,1.38-6.3,5.76-8.28,10.44,2.88-.24,7.02-2.94,10.74-6.24,.06-.06,.42-.12,.48,0-1.08,1.44-8.28,8.16-12.42,8.16-1.08,0-2.88-2.1-2.88-2.82,0-1.68,1.92-5.16,3.48-6.96-5.52,3.24-8.34,5.64-12.42,10.14-3.06,3.3-6.66,8.58-5.34,9.18-1.74,.42-3.18-1.44-3.6-3.12-.12-.54,.18-1.68,.9-3.06,1.5-3.42,4.2-7.56,6.6-10.98,2.1-3.06,4.68-6.12,6.18-7.32Z"/><path class="cls-1" d="M355.5,104.76c3.72-5.76,7.44-10.74,10.38-14.76,1.86-2.34,3.54-4.26,4.98-5.46,.9-.72,1.68-1.2,2.22-1.2,3.36-.18,5.76,3.3,4.68,2.64-2.04-.96-6.06,4.68-8.58,7.92-2.64,3.3-5.1,6.84-8.04,11.22-5.28,7.92-10.08,15.84-11.58,19.62,3.18-.24,13.74-10.5,16.38-12.96,.36-.3,.66,.18,.48,.36-2.88,3.24-13.62,14.52-17.04,15.6-.72,.24-1.38,.06-1.98-.24-.96-.54-2.28-1.8-2.28-3.12,0-1.2,1.32-4.32,4.26-9.72-2.1,1.68-14.46,13.2-17.58,13.2-1.08,0-3-2.7-3-4.08,0-3.24,5.4-10.92,11.76-15.06,4.62-3.06,8.7-4.98,12.3-4.98,1.14,0,2.1,.42,2.64,1.02Zm-.54,.84c-.78-.24-1.68-.24-2.52,0-2.52,.66-6.48,3.72-9.78,6.96-5.4,5.1-9.42,11.4-8.94,11.7,.72,.42,10.32-6.24,17.34-12.36l3.9-6.3Z"/><path class="cls-1" d="M82.35,187.98c-1.74,1.8-13.5,11.88-16.02,11.88-.12,0-.42-.12-.54-.18-1.08-.54-2.64-2.82-2.64-4.02,0-6.54,13.74-19.92,24.78-19.92,2.28,0,5.28,.96,5.28,3.78,0,1.02-.54,2.04-1.14,2.82-.12,.06-.24,0-.18-.06,.3-.54,.66-1.26,.66-2.16,0-1.8-1.14-2.7-2.94-2.58-3.48,.18-7.86,2.7-11.76,6-5.7,4.86-10.2,12.42-9.6,12.72,.06,.06,.18,.06,.36,0,1.98-.66,10.38-6.72,13.5-9.36,1.08-.96,4.98-4.74,6.48-5.58,1.2-.6,3.24,2.7,3,3.42-.3-.6-5.7,5.94-7.5,9.78-.36,.84-.6,1.56-.6,2.04,3.78-1.08,12.36-9.3,16.08-12.78,.3-.3,.6,.18,.42,.36-5.22,5.7-15,15.72-18.6,15.72-.3,0-.6-.12-1.02-.36-.84-.48-1.98-1.74-1.98-2.82,0-.6,.24-1.32,.48-2.22,.72-2.22,2.34-4.98,3.48-6.48Zm15.06-15.42c.24,0-.3,.72-2.7,.72-7.5,0-14.34-4.5-14.34-6.72,0-1.14,2.94-2.46,4.32-2.46,.42,0,.06,.12,.06,.72,0,2.28,6.36,7.74,12.66,7.74Z"/><path class="cls-1" d="M128.37,162c1.8-2.34,3.48-4.26,4.98-5.46,.9-.72,1.68-1.2,2.22-1.2,3.36-.18,5.76,3.3,4.62,2.64-2.1-.96-6,4.68-8.64,7.92-2.58,3.3-5.04,6.84-8.04,11.22-5.22,7.92-9.72,15.54-11.16,19.38,2.58,.3,12.54-9.48,16.08-12.72,.36-.3,.6,.18,.42,.36-2.94,3.36-13.38,14.28-16.98,15.6-.78,.3-1.38,.06-1.92-.24-.48-.24-1.8-1.5-2.16-2.4-.06-.12-.18-.24-.18-.9,0-1.8,2.76-7.62,10.08-19.08,3.72-5.82,7.56-11.04,10.68-15.12Z"/><path class="cls-1" d="M140.01,187.98c-1.8,1.8-13.5,11.88-16.02,11.88-.12,0-.42-.12-.54-.18-1.08-.54-2.64-2.82-2.64-4.02,0-6.54,13.74-19.92,24.78-19.92,2.28,0,5.28,.96,5.28,3.78,0,1.02-.54,2.04-1.14,2.82-.12,.06-.24,0-.18-.06,.3-.54,.66-1.26,.66-2.16,0-1.8-1.14-2.7-2.94-2.58-3.48,.18-7.86,2.7-11.76,6-5.7,4.86-10.2,12.42-9.66,12.72,.12,.06,.24,.06,.42,0,1.98-.66,10.38-6.72,13.5-9.36,1.08-.96,4.98-4.74,6.48-5.58,1.2-.6,3.24,2.7,3,3.42-.3-.6-5.7,5.94-7.5,9.78-.36,.84-.6,1.56-.6,2.04,3.78-1.08,12.36-9.3,16.08-12.78,.3-.3,.6,.18,.42,.36-5.22,5.7-15,15.72-18.6,15.72-.3,0-.6-.12-1.02-.36-.84-.48-1.98-1.74-1.98-2.82,0-.6,.24-1.32,.48-2.22,.72-2.22,2.34-4.98,3.48-6.48Z"/><path class="cls-1" d="M191.07,196.44c0-3.42,6.54-13.44,9.66-16.32-10.92,7.56-17.16,17.94-18.84,17.94-.84,0-2.76-1.92-2.76-3.12,0-2.28,4.62-10.92,8.64-14.58-6.06,3.66-11.64,9.3-16.02,14.22-1.02,1.14-1.68,1.92-2.1,2.46-1.68,1.98-1.98,3.18-1.08,3.6-1.8,.42-3.36-1.44-3.84-3.12-.12-.42,.12-2.04,1.68-4.8,2.58-4.86,6.18-10.38,9.48-14.28,.84-1.02,1.68-1.86,2.34-2.4,.24-.24,.6-.3,.78-.3,1.5,0,3.78,2.34,3.78,3.84,0,.24-.24-.06-.72-.12-.42-.06-1.26,.54-2.04,1.5-2.58,2.94-7.86,10.8-9.24,13.14,3.84-5.1,16.8-16.8,19.32-17.34,.12-.06,.24-.06,.36-.06,1.2,0,3.18,3,2.58,3.6-3.06,3.24-8.46,11.88-8.46,13.98,5.64-7.14,17.04-18.24,19.56-18.24,1.32,0,3.3,3.24,2.52,3.9-1.5,1.2-10.86,14.22-10.86,16.86,3.9-.9,12.66-9.36,16.5-13.02,.42-.3,.72,.18,.54,.36-5.22,5.7-15.12,15.72-18.66,15.72-1.38,0-3.12-2.28-3.12-3.42Z"/><path class="cls-1" d="M222.57,187.98c-1.8,1.8-13.5,11.88-16.02,11.88-.12,0-.42-.12-.54-.18-1.08-.54-2.64-2.82-2.64-4.02,0-6.54,13.74-19.92,24.78-19.92,2.28,0,5.28,.96,5.28,3.78,0,1.02-.54,2.04-1.14,2.82-.12,.06-.24,0-.18-.06,.3-.54,.66-1.26,.66-2.16,0-1.8-1.14-2.7-2.94-2.58-3.48,.18-7.86,2.7-11.76,6-5.7,4.86-10.2,12.42-9.66,12.72,.12,.06,.24,.06,.42,0,1.98-.66,10.38-6.72,13.5-9.36,1.08-.96,4.98-4.74,6.48-5.58,1.2-.6,3.24,2.7,3,3.42-.3-.6-5.7,5.94-7.5,9.78-.36,.84-.6,1.56-.6,2.04,3.78-1.08,12.36-9.3,16.08-12.78,.3-.3,.6,.18,.42,.36-5.22,5.7-15,15.72-18.6,15.72-.3,0-.6-.12-1.02-.36-.84-.48-1.98-1.74-1.98-2.82,0-.6,.24-1.32,.48-2.22,.72-2.22,2.34-4.98,3.48-6.48Z"/><path class="cls-1" d="M252.09,196.62c3.78-1.02,12.36-9.24,16.2-12.84,.36-.3,.66,.18,.48,.36-5.22,5.7-15,15.6-18.6,15.6-.6,0-1.26-.54-1.86-1.26-.66-.78-1.08-1.68-1.08-2.34,0-3.42,6.96-13.44,10.08-16.26-4.92,2.22-13.74,9.48-18.18,14.28-.78,.78-1.5,1.68-2.16,2.52-1.62,1.92-2.04,3.54-1.14,3.96-1.8,.42-3.24-1.5-3.72-3.24-.12-.42,.18-2.04,1.68-4.8,1.44-2.82,3.72-6.36,5.7-9.12,2.16-3.06,4.8-6.24,6.36-7.44,.24-.24,.6-.3,.78-.3,1.5,0,3.78,2.34,3.78,3.84,0,.24-.24-.06-.72-.12-.78-.06-3,2.46-4.8,4.8-2.82,3.72-5.94,8.16-6.84,9.84,.66-.96,1.8-2.16,3.06-3.36,6.72-6.6,17.28-14.7,19.32-14.7,1.44,0,3.36,3.24,2.58,3.9-1.5,1.2-10.8,13.86-10.92,16.68Z"/><path class="cls-1" d="M281.07,184.2c-6.06,6.18-14.1,14.82-17.7,15.54h-.48c-.96,0-2.82-1.62-2.82-3.06,0-2.58,3.3-8.64,6.72-13.38,2.1-2.94,4.62-5.82,6.12-7.02,.3-.3,.66-.36,.84-.36,1.44,0,3.78,2.34,3.78,3.9,0,.24-.24-.06-.78-.12-.9-.12-3.42,3-5.46,5.64-3.06,4.02-6.06,9.24-6.06,10.98,2.88-1.2,9-6.6,11.88-9.36,3.12-3.06,7.56-8.28,10.98-10.92,.3-.24,.6-.3,.84-.3,1.44,0,3.72,2.34,3.72,3.84,0,.24-.18-.06-.72-.12-.42,0-1.2,.54-1.98,1.38-.9,.96-2.58,3.12-4.56,5.76-3,4.02-5.22,8.28-5.22,9.96,3.78-1.14,12.3-9.3,15.96-12.78,.36-.3,.66,.18,.48,.36-5.22,5.7-15,15.72-18.6,15.72-.3,0-.66-.12-.96-.36-.96-.48-2.16-1.86-2.16-2.94,0-.6,.36-1.68,.66-2.58,1.02-2.76,3.3-7.02,5.52-9.78Z"/><path class="cls-1" d="M296.07,197.28c5.52-.6,15.6-8.7,21.42-13.44,.18-.12,.6,.12,.42,.3-5.16,4.86-16.74,15.72-24.18,15.72-1.92,0-4.08-1.8-4.38-3.72-.06-.48-.06-1.08,.12-1.8,.48-2.52,2.64-6.72,6.66-10.62,4.92-4.86,10.98-7.98,15.24-7.98,1.38,0,3.42,2.04,3.42,2.94,0,2.28-2.94,4.5-4.92,6-.12,.12-.42,0-.3-.18,.96-.96,3.42-5.7,2.94-6.12-6.42,.12-18.18,13.68-18.18,17.88,0,.96,1.2,1.08,1.74,1.02Z"/><path class="cls-1" d="M330.63,184.2c-6.06,6.18-14.1,14.82-17.7,15.54h-.48c-.96,0-2.82-1.62-2.82-3.06,0-2.58,3.3-8.64,6.72-13.38,2.1-2.94,4.62-5.82,6.12-7.02,.3-.3,.66-.36,.84-.36,1.44,0,3.78,2.34,3.78,3.9,0,.24-.24-.06-.78-.12-.9-.12-3.42,3-5.46,5.64-3.06,4.02-6.06,9.24-6.06,10.98,2.88-1.2,9-6.6,11.88-9.36,3.12-3.06,7.56-8.28,10.98-10.92,.3-.24,.6-.3,.84-.3,1.44,0,3.72,2.34,3.72,3.84,0,.24-.18-.06-.72-.12-.42,0-1.2,.54-1.98,1.38-.9,.96-2.58,3.12-4.56,5.76-3,4.02-5.22,8.28-5.22,9.96,3.78-1.14,12.3-9.3,15.96-12.78,.36-.3,.66,.18,.48,.36-5.22,5.7-15,15.72-18.6,15.72-.3,0-.66-.12-.96-.36-.96-.48-2.16-1.86-2.16-2.94,0-.6,.36-1.68,.66-2.58,1.02-2.76,3.3-7.02,5.52-9.78Z"/><path class="cls-1" d="M351.75,176.16c.36-.24,.6-.3,.84-.3,1.44,0,3.72,2.34,3.72,3.84,0,.24-.18-.06-.66-.12-.9-.06-3,2.28-4.8,4.68-1.62,2.16-3.72,4.98-4.98,7.2,3.18-4.14,9.18-9.18,14.34-12.9,2.34-1.68,4.14-2.7,5.4-2.82,.66-.06,3.12,2.52,2.7,3-1.32,1.38-6.3,5.76-8.28,10.44,2.88-.24,7.02-2.94,10.74-6.24,.06-.06,.42-.12,.48,0-1.08,1.44-8.28,8.16-12.42,8.16-1.08,0-2.88-2.1-2.88-2.82,0-1.68,1.92-5.16,3.48-6.96-5.52,3.24-8.34,5.64-12.42,10.14-3.06,3.3-6.66,8.58-5.34,9.18-1.74,.42-3.18-1.44-3.6-3.12-.12-.54,.18-1.68,.9-3.06,1.5-3.42,4.2-7.56,6.6-10.98,2.1-3.06,4.68-6.12,6.18-7.32Z"/><path class="cls-1" d="M367.83,196.08c-.06,.72,.48,1.14,1.8,1.14,4.38,0,15.36-8.34,21.42-13.38,.18-.12,.6,.18,.42,.36-4.5,4.2-16.44,15.66-24.42,15.66-1.86,0-4.26-2.16-4.26-3.78,0-1.44,.36-2.64,.84-3.96,1.44-3.42,4.5-7.2,8.28-10.38,4.98-4.14,10.32-6,12.9-6,.9,0,3.66,1.38,3.66,3.06,0,3.72-11.52,12.36-18.24,12.54-1.08,1.26-2.22,3.18-2.4,4.74Zm3.18-5.94c5.22-.6,15.18-10.32,15.54-12.6-6.66,2.16-13.56,9.42-15.54,12.6Z"/></svg>