<?xml version="1.0" encoding="UTF-8"?>
<svg id="Calque_1" data-name="Calque 1" xmlns="http://www.w3.org/2000/svg" viewBox="0 0 13.62 10.83">
  <path d="m4.96,2.15l.1-.38c.71-.05,1.54-.18,2.5-.39-.28.66-.53,1.4-.74,2.24l-.64,2.48c-.46,1.79-.98,3.14-1.56,4.05.56.1,1.05.15,1.48.15,1.14,0,2.12-.22,2.97-.65.84-.44,1.51-1.07,2.01-1.91.5-.83.75-1.76.75-2.76,0-1.32-.42-2.38-1.27-3.19-.84-.8-1.95-1.2-3.31-1.2-1.15,0-2.23.25-3.25.75s-1.82,1.16-2.42,1.98-.89,1.62-.89,2.39.36,1.31,1.09,1.67c.21.11.34.2.4.28.06.08.09.17.09.28,0,.14-.06.27-.18.38-.12.11-.26.17-.42.17-.35,0-.68-.21-1.01-.62-.44-.58-.67-1.18-.67-1.79,0-1.02.33-2,1-2.95.67-.95,1.59-1.71,2.78-2.27,1.19-.56,2.51-.84,3.96-.84,1.79,0,3.22.44,4.28,1.31,1.06.87,1.59,1.97,1.59,3.29,0,1.23-.37,2.35-1.11,3.38-.74,1.03-1.63,1.76-2.68,2.19s-2.09.65-3.14.65c-.34,0-.92-.03-1.75-.09-.7-.05-1.37-.07-2-.07-.29,0-.74,0-1.33.03l.22-.44c.6-.03.97-.08,1.11-.14.15-.07.27-.17.38-.33.19-.27.44-.87.77-1.78l.67-2.32.78-2.9c.04-.14.06-.26.06-.36,0-.09-.03-.17-.1-.23-.07-.06-.16-.08-.27-.08-.05,0-.14,0-.27.03Z"/>
</svg>