<?xml version="1.0" standalone="no"?>
<!DOCTYPE svg PUBLIC "-//W3C//DTD SVG 20010904//EN"
 "http://www.w3.org/TR/2001/REC-SVG-20010904/DTD/svg10.dtd">
<svg version="1.0" xmlns="http://www.w3.org/2000/svg"
 width="2048.000000pt" height="2732.000000pt" viewBox="0 0 2048.000000 2732.000000"
 preserveAspectRatio="xMidYMid meet">

<g transform="translate(0.000000,2732.000000) scale(0.100000,-0.100000)"
fill="#000000" stroke="none">
<path d="M0 13660 l0 -13660 10240 0 10240 0 0 13660 0 13660 -10240 0 -10240
0 0 -13660z m9086 8431 c-3 -5 -16 -11 -28 -14 -13 -2 -31 -8 -40 -12 -13 -5
-18 -3 -18 8 0 8 6 18 13 20 21 9 78 7 73 -2z m199 -50 c-6 -21 -25 -29 -25
-11 0 6 5 10 10 10 6 0 10 8 10 17 0 9 3 14 6 10 3 -3 3 -15 -1 -26z m293 11
c2 -7 -6 -12 -17 -12 -21 0 -27 11 -14 24 9 9 26 2 31 -12z m-458 -19 c0 -10
-5 -25 -10 -33 -9 -13 -12 -12 -25 4 -22 29 -18 46 10 46 17 0 25 -5 25 -17z
m460 -18 c7 -8 16 -12 21 -9 5 3 9 -2 9 -10 0 -23 -49 -42 -97 -38 l-43 3 15
29 c10 18 25 30 42 33 16 2 31 5 34 6 4 0 12 -6 19 -14z m169 -31 c-8 -10 -9
-18 -2 -22 5 -4 12 -13 14 -20 3 -8 14 1 29 24 29 44 61 62 38 23 -7 -13 -16
-26 -19 -29 -3 -3 -11 -15 -18 -28 -12 -22 -13 -22 -36 -5 -28 20 -30 37 -12
76 8 18 13 22 15 11 2 -8 -2 -22 -9 -30z m-1175 20 c9 -3 16 -17 16 -31 0 -21
-4 -24 -22 -19 -13 3 -31 6 -40 6 -36 0 -18 31 29 49 1 1 8 -2 17 -5z m-106
-85 c-7 -4 -15 -3 -19 2 -3 6 -11 4 -19 -5 -7 -9 -16 -13 -21 -10 -5 3 -9 -4
-9 -14 0 -11 -8 -23 -17 -26 -46 -18 -64 -32 -59 -48 5 -22 -3 -28 -29 -18
-19 6 -18 7 3 26 12 10 22 26 22 36 0 12 8 18 23 18 20 0 25 7 33 47 8 40 13
47 37 50 15 2 27 -1 27 -7 0 -5 7 -10 16 -10 8 0 12 5 9 10 -3 6 -3 16 2 23 5
7 9 -3 11 -27 2 -24 -2 -42 -10 -47z m492 71 c0 -5 -2 -10 -4 -10 -3 0 -8 5
-11 10 -3 6 -1 10 4 10 6 0 11 -4 11 -10z m711 -30 c15 0 10 -26 -7 -41 -8 -7
-13 -21 -11 -31 7 -23 2 -23 -23 4 -11 12 -20 18 -20 14 0 -5 -7 -3 -15 4 -15
13 -11 35 6 25 5 -4 9 -1 9 6 0 6 10 20 23 31 19 17 22 18 25 4 2 -9 8 -16 13
-16z m-1404 3 c-11 -3 -16 -11 -13 -19 6 -16 -10 -19 -19 -4 -10 16 4 30 28
29 18 -1 19 -2 4 -6z m1188 -11 c-3 -3 -11 0 -18 7 -9 10 -8 11 6 5 10 -3 15
-9 12 -12z m386 -45 c-10 -9 -11 -8 -5 6 3 10 9 15 12 12 3 -3 0 -11 -7 -18z
m-65 -16 c8 6 14 7 14 2 0 -6 10 -14 21 -20 21 -9 20 -10 -12 -25 -29 -15 -35
-15 -42 -2 -4 7 -20 15 -35 15 -24 2 -24 2 -4 6 12 2 19 9 16 15 -4 6 0 14 7
19 9 6 15 3 17 -7 3 -12 7 -13 18 -3z m-1296 -23 c0 -13 -23 -5 -28 10 -2 7 2
10 12 6 9 -3 16 -11 16 -16z m370 8 c0 -3 -4 -8 -10 -11 -5 -3 -10 -1 -10 4 0
6 5 11 10 11 6 0 10 -2 10 -4z m760 -32 c0 -8 -5 -12 -10 -9 -6 4 -8 11 -5 16
9 14 15 11 15 -7z m-1139 -71 c13 -16 12 -17 -3 -4 -10 7 -18 15 -18 17 0 8 8
3 21 -13z m639 7 c0 -5 -4 -10 -10 -10 -5 0 -10 5 -10 10 0 6 5 10 10 10 6 0
10 -4 10 -10z m-123 -26 c-3 -3 -12 -4 -19 -1 -8 3 -5 6 6 6 11 1 17 -2 13 -5z
m538 -34 c-28 -12 -37 -12 -30 0 3 6 16 10 28 9 21 0 21 -1 2 -9z m-1175 -4
c0 -3 -4 -8 -10 -11 -5 -3 -10 -1 -10 4 0 6 5 11 10 11 6 0 10 -2 10 -4z
m-340 -26 c0 -5 -2 -10 -4 -10 -3 0 -8 5 -11 10 -3 6 -1 10 4 10 6 0 11 -4 11
-10z m9 -143 c0 -9 -2 -9 -5 0 -3 7 -13 9 -22 6 -14 -4 -14 -3 -2 5 16 12 30
7 29 -11z m-379 5 c0 -5 -7 -9 -15 -9 -8 0 -12 4 -9 9 3 4 9 8 15 8 5 0 9 -4
9 -8z m-947 -87 c-3 -9 -8 -14 -10 -11 -3 3 -2 9 2 15 9 16 15 13 8 -4z m9537
-274 c0 -5 -6 -14 -14 -20 -12 -10 -13 -8 -9 8 5 21 23 30 23 12z m-690 -17
c0 -2 -7 -4 -15 -4 -8 0 -15 4 -15 10 0 5 7 7 15 4 8 -4 15 -8 15 -10z m739
-17 c8 -10 7 -14 -4 -14 -8 0 -15 6 -15 14 0 7 2 13 4 13 2 0 9 -6 15 -13z
m-10044 -7 c-3 -5 -11 -10 -16 -10 -6 0 -7 5 -4 10 3 6 11 10 16 10 6 0 7 -4
4 -10z m-63 -22 c-7 -7 -12 -8 -12 -2 0 14 12 26 19 19 2 -3 -1 -11 -7 -17z
m10148 -2 c0 -2 -7 -6 -15 -10 -8 -3 -15 -1 -15 4 0 6 7 10 15 10 8 0 15 -2
15 -4z m-10203 -22 c-3 -3 -12 -4 -19 -1 -8 3 -5 6 6 6 11 1 17 -2 13 -5z
m-132 -153 c-3 -6 -11 -11 -17 -11 -6 0 -6 6 2 15 14 17 26 13 15 -4z m13416
-431 c173 -18 385 -78 528 -149 152 -77 351 -253 401 -355 25 -52 70 -210 70
-247 0 -25 -291 -502 -1130 -1849 -152 -245 -332 -535 -400 -645 -67 -110
-128 -209 -135 -220 -7 -11 -31 -40 -54 -65 l-41 -45 6 43 c5 30 2 53 -9 75
-9 18 -30 63 -47 101 -25 57 -49 88 -133 171 -123 123 -222 189 -462 310 -198
101 -357 161 -516 197 -131 29 -367 32 -436 5 -24 -9 -43 -14 -43 -12 0 2 61
98 136 212 75 114 213 325 307 468 217 332 220 337 367 545 257 365 537 740
927 1241 23 30 51 66 62 80 44 57 213 123 356 138 115 12 132 12 246 1z
m-11500 -50 c-22 -19 -41 -26 -41 -15 0 5 51 34 60 34 3 0 -6 -9 -19 -19z
m-941 -732 c0 -3 -9 -4 -19 -1 -16 4 -17 8 -8 18 11 12 26 3 27 -17z m-303
-94 c-3 -3 -12 -4 -19 -1 -8 3 -5 6 6 6 11 1 17 -2 13 -5z m-37 -64 c0 -5 -5
-10 -11 -10 -5 0 -7 5 -4 10 3 6 8 10 11 10 2 0 4 -4 4 -10z m-70 -10 c0 -5
-4 -10 -10 -10 -5 0 -10 5 -10 10 0 6 5 10 10 10 6 0 10 -4 10 -10z m-70 -10
c0 -5 -5 -10 -11 -10 -5 0 -7 5 -4 10 3 6 8 10 11 10 2 0 4 -4 4 -10z m1920
-12 c0 -5 -4 -6 -10 -3 -5 3 -18 -8 -29 -25 l-19 -32 -7 31 c-3 17 -4 34 -1
39 7 11 66 3 66 -10z m185 12 c3 -5 -1 -10 -9 -10 -9 0 -16 -7 -16 -15 0 -12
7 -14 26 -9 20 5 25 3 22 -7 -3 -8 -10 -14 -16 -13 -7 1 -30 2 -52 3 -28 1
-40 5 -40 16 0 8 9 15 20 15 10 0 25 7 32 15 15 17 25 19 33 5z m722 4 c-3 -3
-12 -4 -19 -1 -8 3 -5 6 6 6 11 1 17 -2 13 -5z m1040 0 c-3 -3 -12 -4 -19 -1
-8 3 -5 6 6 6 11 1 17 -2 13 -5z m-2147 -14 c0 -5 -2 -10 -4 -10 -3 0 -8 5
-11 10 -3 6 -1 10 4 10 6 0 11 -4 11 -10z m920 -50 c0 -20 -1 -20 -25 3 -17
15 -24 29 -19 41 6 16 8 16 25 -3 11 -11 19 -30 19 -41z m240 50 c0 -5 -6 -10
-14 -10 -8 0 -18 5 -21 10 -3 6 3 10 14 10 12 0 21 -4 21 -10z m808 -14 c16
-18 19 -26 10 -32 -6 -4 -14 -2 -16 4 -2 7 -12 12 -23 12 -18 0 -26 20 -12 33
10 11 17 8 41 -17z m92 10 c0 -14 -29 -30 -38 -21 -3 3 0 5 6 5 7 0 12 7 12
15 0 8 5 15 10 15 6 0 10 -6 10 -14z m-1980 -37 c0 -16 -30 -22 -46 -9 -11 10
-12 15 -3 20 14 9 49 1 49 -11z m1796 -6 c-10 -10 -19 5 -10 18 6 11 8 11 12
0 2 -7 1 -15 -2 -18z m-3516 7 c0 -5 -7 -10 -16 -10 -8 0 -12 5 -9 10 3 6 10
10 16 10 5 0 9 -4 9 -10z m4270 -6 c0 -2 -7 -4 -15 -4 -8 0 -15 4 -15 10 0 5
7 7 15 4 8 -4 15 -8 15 -10z m-3240 -14 c6 -11 7 -20 3 -20 -4 0 -18 -3 -30
-6 -18 -5 -23 -2 -23 13 0 38 32 46 50 13z m1779 11 c12 -8 12 -12 -2 -25 -10
-10 -18 -12 -22 -6 -3 5 -18 10 -32 10 -21 0 -24 2 -13 15 14 17 47 19 69 6z
m891 5 c0 -3 -4 -8 -10 -11 -5 -3 -10 -1 -10 4 0 6 5 11 10 11 6 0 10 -2 10
-4z m-2034 -37 c33 14 87 14 102 -1 7 -7 12 -26 12 -42 0 -17 4 -38 10 -46 5
-9 5 -19 -2 -27 -17 -21 -28 -15 -28 15 0 32 -36 53 -91 52 -52 -1 -84 6 -81
19 1 7 -2 20 -8 31 -14 27 20 33 43 7 15 -17 21 -18 43 -8z m309 21 c18 -8 17
-9 -7 -9 -16 -1 -28 4 -28 9 0 12 8 12 35 0z m2585 -15 c14 -19 14 -19 -2 -6
-10 7 -18 18 -18 24 0 6 1 8 3 6 1 -2 9 -13 17 -24z m-1843 -7 c-3 -8 -6 -5
-6 6 -1 11 2 17 5 13 3 -3 4 -12 1 -19z m-797 -3 c0 -17 -2 -18 -24 -9 -23 9
-20 24 4 24 11 0 20 -7 20 -15z m160 0 c0 -8 -4 -15 -10 -15 -5 0 -10 7 -10
15 0 8 5 15 10 15 6 0 10 -7 10 -15z m2590 -29 c0 -3 -4 -8 -10 -11 -5 -3 -10
-1 -10 4 0 6 5 11 10 11 6 0 10 -2 10 -4z m-5030 -10 c0 -3 -4 -8 -10 -11 -5
-3 -10 -1 -10 4 0 6 5 11 10 11 6 0 10 -2 10 -4z m2280 -11 c0 -9 9 -15 24
-15 31 0 76 -17 76 -28 0 -5 -24 -18 -52 -29 l-53 -21 -10 32 c-5 17 -14 37
-19 45 -5 8 -4 16 5 22 20 13 29 11 29 -6z m-2355 -13 c-3 -3 -11 0 -18 7 -9
10 -8 11 6 5 10 -3 15 -9 12 -12z m1730 8 c3 -5 -3 -10 -15 -10 -12 0 -18 5
-15 10 3 6 10 10 15 10 5 0 12 -4 15 -10z m840 0 c3 -5 2 -10 -3 -10 -5 0 -13
-10 -17 -22 -6 -20 -8 -21 -12 -5 -9 34 16 63 32 37z m75 -10 c0 -5 -4 -10
-10 -10 -5 0 -10 5 -10 10 0 6 5 10 10 10 6 0 10 -4 10 -10z m577 4 c-3 -3
-12 -4 -19 -1 -8 3 -5 6 6 6 11 1 17 -2 13 -5z m-1222 -14 c-3 -5 -10 -10 -16
-10 -5 0 -9 5 -9 10 0 6 7 10 16 10 8 0 12 -4 9 -10z m170 0 c3 -5 2 -10 -4
-10 -5 0 -13 5 -16 10 -3 6 -2 10 4 10 5 0 13 -4 16 -10z m985 -27 c0 -25 -1
-26 -16 -11 -9 9 -13 21 -10 27 13 20 26 11 26 -16z m2497 21 c-3 -3 -12 -4
-19 -1 -8 3 -5 6 6 6 11 1 17 -2 13 -5z m-4002 -54 c3 -5 1 -10 -4 -10 -6 0
-11 5 -11 10 0 6 2 10 4 10 3 0 8 -4 11 -10z m4205 0 c0 -5 -2 -10 -4 -10 -3
0 -8 5 -11 10 -3 6 -1 10 4 10 6 0 11 -4 11 -10z m-3800 -42 c0 -24 -14 -30
-44 -18 -33 12 -33 21 1 42 29 18 43 10 43 -24z m-240 -23 c0 -16 -27 -28 -35
-15 -7 12 17 40 28 33 4 -2 7 -10 7 -18z m56 -12 c-11 -11 -19 6 -11 24 8 17
8 17 12 0 3 -10 2 -21 -1 -24z m884 2 c0 -8 -7 -15 -16 -15 -14 0 -14 3 -4 15
7 8 14 15 16 15 2 0 4 -7 4 -15z m3517 -17 c-3 -8 -6 -5 -6 6 -1 11 2 17 5 13
3 -3 4 -12 1 -19z m56 5 c-7 -2 -21 -2 -30 0 -10 3 -4 5 12 5 17 0 24 -2 18
-5z m131 -18 c20 -30 20 -35 1 -35 -17 0 -55 35 -55 50 0 20 38 9 54 -15z m86
15 c0 -5 -9 -10 -21 -10 -11 0 -17 5 -14 10 3 6 13 10 21 10 8 0 14 -4 14 -10z
m50 -1 c0 -5 7 -9 16 -9 8 0 13 4 10 9 -5 7 13 8 47 2 4 0 7 -6 7 -12 0 -8
-17 -10 -51 -7 -52 5 -86 22 -49 25 11 1 20 -2 20 -8z m-4845 -29 c3 -5 1 -10
-4 -10 -6 0 -11 5 -11 10 0 6 2 10 4 10 3 0 8 -4 11 -10z m3759 -6 c25 -10 19
-34 -9 -34 -18 0 -25 5 -25 20 0 21 8 24 34 14z m1113 -10 c-3 -3 -12 -4 -19
-1 -8 3 -5 6 6 6 11 1 17 -2 13 -5z m-80 -10 c-3 -3 -12 -4 -19 -1 -8 3 -5 6
6 6 11 1 17 -2 13 -5z m486 -1 c-7 -2 -19 -2 -25 0 -7 3 -2 5 12 5 14 0 19 -2
13 -5z m-243 -23 c-13 -11 -29 -20 -36 -20 -22 0 -28 -23 -9 -37 15 -10 16
-16 7 -25 -17 -17 -15 -51 2 -45 8 3 32 8 53 11 l38 6 -32 -10 c-52 -16 -41
-34 16 -27 37 4 51 2 55 -8 7 -18 -6 -26 -23 -15 -8 4 -19 4 -25 -1 -47 -40
-60 -49 -66 -49 -4 0 -15 18 -25 40 -13 28 -22 37 -29 30 -5 -5 -18 -10 -27
-10 -22 0 -29 -19 -17 -43 18 -34 -14 -51 -38 -19 -12 15 -13 14 -14 -14 0
-19 -6 -34 -15 -38 -8 -3 -15 -12 -15 -20 0 -20 50 -66 72 -66 9 0 18 -5 20
-10 4 -12 69 7 79 23 9 13 69 -2 76 -20 4 -11 15 -13 45 -8 35 6 39 5 38 -11
-4 -38 1 -52 20 -57 11 -3 20 -13 20 -23 0 -21 -28 -54 -46 -54 -22 0 -44 42
-45 85 0 36 -1 38 -11 18 -14 -29 -26 -29 -37 -1 -7 20 -8 19 -14 -10 -4 -20
-13 -32 -22 -32 -27 0 -55 20 -55 38 0 27 -129 59 -137 34 -3 -8 2 -10 14 -6
13 4 15 3 4 -4 -18 -13 -51 -3 -51 16 0 8 -7 23 -16 33 -9 10 -16 33 -17 52
-1 33 -2 34 -25 24 -18 -9 -25 -8 -32 4 -7 10 -4 15 10 17 21 4 22 7 24 59 1
40 -6 41 -32 8 -11 -14 -23 -25 -26 -25 -3 0 -6 11 -6 25 0 14 -4 25 -10 25
-5 0 -8 -6 -6 -12 3 -7 7 -25 10 -41 6 -25 5 -27 -19 -21 -15 4 -25 2 -25 -5
0 -6 -7 -8 -15 -5 -8 4 -15 1 -15 -5 0 -6 -4 -11 -10 -11 -5 0 -10 11 -10 24
0 14 5 28 10 31 6 3 10 1 10 -4 0 -6 5 -11 10 -11 13 0 13 37 0 45 -5 3 -21
-8 -36 -24 -15 -17 -31 -28 -35 -25 -5 2 -18 -5 -29 -16 -20 -20 -47 -19 -35
1 4 5 -3 9 -13 9 -11 0 -25 7 -33 16 -21 26 -67 46 -72 31 -3 -6 -5 -3 -4 8 1
17 6 20 31 16 17 -2 36 -11 43 -20 11 -15 12 -15 13 0 0 9 -17 24 -40 34 -40
18 -52 35 -25 35 13 0 67 -21 108 -42 25 -12 31 -5 23 27 -6 22 -9 25 -21 15
-12 -10 -16 -9 -22 6 -4 10 -2 19 5 22 7 2 12 10 12 18 0 8 2 14 4 14 2 0 11
3 19 6 11 4 16 -2 19 -17 2 -12 9 -24 16 -25 7 -1 8 0 2 3 -18 9 0 23 31 23
32 0 40 -16 12 -23 -10 -3 0 -5 22 -4 34 2 41 6 43 25 4 27 26 24 30 -5 2 -16
10 -20 45 -19 36 1 45 6 60 31 l17 30 -6 -28 c-4 -17 0 -36 10 -52 22 -34 33
-31 29 8 -2 23 -1 27 5 13 7 -16 11 -14 35 17 15 20 27 43 27 51 0 19 9 20 46
6 20 -8 31 -7 43 3 16 14 38 25 55 26 5 1 -1 -8 -14 -19z m-150 -20 c-6 -11
-17 -20 -25 -20 -13 0 -13 3 -3 20 7 11 19 20 26 20 10 0 10 -5 2 -20z m1507
4 c-3 -3 -12 -4 -19 -1 -8 3 -5 6 6 6 11 1 17 -2 13 -5z m-1947 -28 c0 -8 -6
-16 -12 -19 -10 -4 -10 -7 0 -18 28 -30 3 -39 -43 -15 -24 13 -25 15 -10 27 9
8 21 19 28 26 16 17 37 16 37 -1z m3043 -10 c4 -10 1 -13 -8 -9 -8 3 -12 9 -9
14 7 12 11 11 17 -5z m-3273 -11 c9 -11 10 -18 1 -29 -6 -7 -9 -21 -5 -30 4
-11 1 -16 -10 -16 -10 0 -16 9 -16 23 0 13 -6 29 -12 35 -10 10 -10 15 2 22
20 13 26 12 40 -5z m1257 9 c-3 -3 -12 -4 -19 -1 -8 3 -5 6 6 6 11 1 17 -2 13
-5z m2437 -23 c3 -4 -6 -6 -19 -3 -14 2 -25 6 -25 8 0 8 39 4 44 -5z m-3604
-21 c0 -5 -7 -10 -16 -10 -8 0 -12 5 -9 10 3 6 10 10 16 10 5 0 9 -4 9 -10z
m1074 -6 c9 -4 21 -14 26 -24 8 -15 6 -17 -13 -13 -26 7 -47 22 -47 34 0 11
12 11 34 3z m536 -20 c13 -33 13 -34 -5 -34 -8 0 -24 -5 -34 -12 -19 -12 -51
-5 -51 11 0 5 15 13 33 17 l32 8 -38 11 c-46 13 -38 25 15 25 32 0 40 -4 48
-26z m-430 -14 c0 -5 -7 -10 -15 -10 -8 0 -15 5 -15 10 0 6 7 10 15 10 8 0 15
-4 15 -10z m320 -9 c0 -11 -9 -21 -22 -24 -32 -9 -36 2 -9 24 29 24 31 24 31
0z m345 -4 c11 -2 1 -5 -22 -6 -24 0 -43 3 -43 8 0 12 33 20 40 10 3 -4 14 -9
25 -12z m-135 3 c0 -5 -7 -10 -15 -10 -8 0 -15 5 -15 10 0 6 7 10 15 10 8 0
15 -4 15 -10z m1680 -5 c8 -9 8 -15 2 -15 -18 0 -42 12 -42 21 0 14 26 10 40
-6z m265 -5 c3 -6 -1 -7 -9 -4 -18 7 -21 14 -7 14 6 0 13 -4 16 -10z m-2669
-17 c14 -18 19 -63 8 -63 -13 0 -33 35 -34 58 0 27 8 28 26 5z m202 4 c6 -6
13 -24 17 -40 6 -21 4 -27 -9 -27 -9 0 -16 -8 -16 -20 0 -11 -4 -20 -10 -20
-5 0 -15 9 -22 20 -8 12 -24 20 -41 20 -25 0 -28 3 -25 28 2 21 8 27 25 25 11
-1 27 4 33 12 15 18 34 19 48 2z m2157 -19 c-19 -11 -30 -5 -21 11 4 6 14 7
22 4 15 -5 14 -7 -1 -15z m-1925 -6 c0 -13 8 -17 32 -17 43 0 45 -18 3 -35
-27 -11 -34 -18 -29 -32 4 -13 0 -18 -16 -18 -24 0 -37 24 -22 43 5 7 6 21 1
32 -13 33 -10 45 11 45 12 0 20 -7 20 -18z m374 2 c4 -9 4 -19 2 -21 -8 -8
-26 8 -26 23 0 19 16 18 24 -2z m-8190 -12 c6 -10 -24 -72 -35 -72 -15 0 -16
15 -3 48 14 31 28 40 38 24z m6396 -13 c0 -5 -4 -9 -10 -9 -5 0 -10 7 -10 16
0 8 5 12 10 9 6 -3 10 -10 10 -16z m842 -39 c-2 -17 1 -37 8 -45 10 -12 9 -15
-8 -15 -17 0 -21 8 -24 46 -4 50 -2 55 16 48 8 -3 11 -17 8 -34z m2298 30 c0
-5 -7 -10 -16 -10 -8 0 -12 5 -9 10 3 6 10 10 16 10 5 0 9 -4 9 -10z m100 -5
c0 -2 -16 -5 -35 -7 -21 -2 -35 0 -35 7 0 7 14 9 35 7 19 -2 35 -5 35 -7z
m340 5 c0 -5 -5 -10 -11 -10 -5 0 -7 5 -4 10 3 6 8 10 11 10 2 0 4 -4 4 -10z
m-3520 -20 c0 -13 -7 -20 -20 -20 -23 0 -26 10 -8 28 18 18 28 15 28 -8z
m3778 14 c12 -4 22 -10 22 -16 0 -11 -39 -6 -65 10 l-20 11 20 1 c11 0 30 -3
43 -6z m-1171 -41 c-3 -3 -11 -2 -17 2 -8 5 -7 11 2 22 12 15 13 14 16 -1 2
-10 1 -20 -1 -23z m148 23 c28 -8 42 -15 33 -15 -10 -1 -18 -6 -18 -12 0 -6 7
-9 15 -5 9 3 15 0 15 -9 0 -8 9 -15 19 -15 11 0 23 -4 26 -10 10 -16 -35 -12
-51 5 -10 10 -21 12 -32 6 -9 -4 -23 -6 -29 -4 -12 4 -17 -13 -14 -49 3 -22
-18 -33 -25 -13 -4 10 -13 13 -25 10 -14 -5 -22 1 -30 19 -7 15 -22 26 -38 29
l-26 3 30 9 c30 8 43 17 73 47 21 20 17 20 77 4z m894 -3 c10 -17 10 -17 11 0
0 9 5 17 10 17 16 0 12 -56 -5 -70 -12 -10 -16 -9 -21 4 -15 39 -44 6 -44 -51
0 -13 -5 -23 -10 -23 -15 0 -49 60 -43 76 3 8 -1 14 -11 14 -9 0 -16 5 -16 12
0 6 -9 2 -20 -10 -11 -12 -20 -26 -20 -32 0 -5 -4 -10 -8 -10 -18 0 -20 12 -4
30 10 10 23 26 31 35 10 13 26 16 62 13 27 -1 49 0 49 5 0 14 29 7 39 -10z
m491 -8 c0 -23 -2 -24 -27 -13 -38 16 -39 18 -23 28 28 18 50 11 50 -15z
m-3090 -24 c5 -19 5 -31 -1 -31 -5 0 -9 -7 -9 -16 0 -14 -3 -14 -15 -4 -11 9
-13 16 -5 24 5 5 10 23 10 40 0 35 7 30 20 -13z m2320 25 c0 -3 -4 -8 -10 -11
-5 -3 -10 -1 -10 4 0 6 5 11 10 11 6 0 10 -2 10 -4z m-3286 -13 c4 -4 -3 -15
-16 -24 -18 -14 -20 -20 -10 -32 17 -20 52 -10 52 14 0 20 28 24 63 10 15 -5
12 -9 -17 -19 -40 -15 -46 -27 -16 -35 26 -7 26 -27 1 -27 -34 0 -33 -17 1
-29 18 -6 45 -24 61 -39 21 -20 30 -23 36 -14 5 9 14 10 32 3 21 -9 21 -10 4
-11 -11 0 -26 -4 -33 -8 -19 -12 -3 -42 22 -42 21 -1 21 -1 -3 -21 -22 -18
-25 -19 -42 -3 -11 10 -19 23 -19 31 0 7 -10 29 -22 48 -16 24 -28 33 -40 29
-20 -6 -85 14 -109 33 -8 7 -21 13 -27 13 -7 0 -12 4 -12 10 0 6 9 6 26 0 33
-13 34 -13 34 5 0 8 -9 20 -20 27 -26 16 -25 20 6 57 26 32 35 36 48 24z
m2906 -3 c0 -5 -4 -10 -9 -10 -6 0 -13 5 -16 10 -3 6 1 10 9 10 9 0 16 -4 16
-10z m47 -24 c-19 -19 -27 -20 -27 -3 0 20 22 39 33 28 6 -6 4 -16 -6 -25z
m81 0 l3 -27 -21 21 c-11 11 -18 25 -14 31 10 18 29 4 32 -25z m-614 -2 c3 -8
14 -14 25 -14 21 0 37 -17 27 -27 -12 -12 -86 30 -86 48 0 21 25 16 34 -7z
m424 14 c-6 -18 -28 -21 -28 -4 0 9 7 16 16 16 9 0 14 -5 12 -12z m260 -32 c7
1 8 0 2 -3 -5 -2 -10 -14 -10 -26 0 -21 0 -21 -22 2 -15 15 -19 25 -11 28 7 2
10 12 7 21 -3 11 0 9 8 -4 7 -12 19 -20 26 -18z m113 2 c11 -8 10 -9 -3 -4
-21 6 -24 -14 -6 -32 6 -6 8 -15 5 -19 -4 -4 -19 5 -33 19 -26 25 -26 26 -8
45 11 10 22 15 25 10 4 -5 13 -14 20 -19z m449 11 c0 -5 -7 -9 -15 -9 -15 0
-20 12 -9 23 8 8 24 -1 24 -14z m-3846 5 c9 -3 16 -12 16 -20 0 -8 9 -14 20
-14 11 0 20 -7 20 -15 0 -23 -22 -17 -57 15 -43 38 -42 50 1 34z m493 -10 c6
-16 -15 -37 -29 -28 -4 3 -8 14 -8 25 0 23 28 26 37 3z m1253 6 c0 -5 -7 -10
-15 -10 -8 0 -15 5 -15 10 0 6 7 10 15 10 8 0 15 -4 15 -10z m1316 -6 c-3 -9
-6 -20 -6 -25 0 -15 -27 -10 -34 6 -3 9 0 15 9 15 8 0 15 5 15 10 0 6 5 10 11
10 6 0 8 -7 5 -16z m-2646 -23 c0 -23 -1 -23 -18 -8 -14 13 -21 14 -31 4 -9
-9 -14 -9 -21 3 -11 18 2 27 41 26 24 -1 29 -5 29 -25z m580 -45 c0 -9 -3 -16
-8 -16 -12 0 -33 40 -27 50 8 13 35 -14 35 -34z m2175 24 c3 -5 -1 -10 -10
-10 -9 0 -13 5 -10 10 3 6 8 10 10 10 2 0 7 -4 10 -10z m65 1 c0 -5 3 -16 6
-25 4 -11 1 -16 -10 -16 -10 0 -16 9 -16 25 0 14 5 25 10 25 6 0 10 -4 10 -9z
m-2915 -21 c12 10 15 10 15 -3 0 -11 5 -14 17 -10 14 5 13 3 -3 -14 -18 -19
-44 -20 -44 -2 0 5 -6 9 -14 9 -15 0 -28 24 -18 35 4 3 12 -2 19 -11 10 -14
15 -15 28 -4z m815 -35 c0 -51 -10 -57 -34 -20 -16 25 -16 27 6 45 13 11 24
19 26 20 1 0 2 -20 2 -45z m1859 31 c9 -11 6 -15 -19 -18 -33 -5 -44 17 -12
25 9 3 18 5 18 6 1 0 7 -5 13 -13z m356 4 c10 -17 -5 -70 -20 -70 -19 0 -30
40 -15 50 7 4 9 13 6 19 -4 6 -1 11 8 11 8 0 18 -5 21 -10z m-2712 -27 c-7 -2
-19 -2 -25 0 -7 3 -2 5 12 5 14 0 19 -2 13 -5z m417 -14 c0 -11 -4 -17 -10
-14 -5 3 -10 13 -10 21 0 8 5 14 10 14 6 0 10 -9 10 -21z m-1413 -5 c-3 -3
-12 -4 -19 -1 -8 3 -5 6 6 6 11 1 17 -2 13 -5z m3148 -11 c0 -23 17 -27 31 -9
11 15 16 17 28 7 19 -16 10 -39 -17 -44 -15 -2 -10 -6 18 -11 22 -4 47 -11 55
-15 19 -10 23 -71 4 -71 -8 0 -14 9 -14 20 0 13 -7 20 -19 20 -22 0 -37 -16
-20 -22 12 -4 2 -78 -11 -78 -4 0 -10 18 -14 40 -3 22 -10 39 -14 39 -4 -1
-25 0 -47 1 l-40 2 33 14 c37 16 37 19 17 67 -18 44 -19 60 -2 55 6 -3 12 -10
12 -15z m217 -56 c-8 -31 -41 13 -35 47 l6 27 17 -28 c9 -15 15 -36 12 -46z
m-1807 52 c4 -6 5 -13 1 -16 -8 -8 -56 6 -56 17 0 13 47 13 55 -1z m2275 -11
c0 -7 11 -23 25 -36 13 -13 21 -30 18 -38 -4 -10 5 -16 28 -21 l34 -7 -34 -7
c-31 -6 -38 -3 -73 32 -22 22 -37 43 -34 48 3 5 -4 11 -15 14 -12 3 -18 10
-14 16 9 15 65 14 65 -1z m-740 -20 c0 -19 -2 -20 -10 -8 -13 19 -13 30 0 30
6 0 10 -10 10 -22z m-1635 -8 c-3 -5 -13 -6 -21 -3 -12 4 -13 8 -3 14 15 9 32
2 24 -11z m-846 -16 c2 -2 2 -7 -2 -10 -8 -9 -47 6 -47 17 0 9 37 3 49 -7z
m941 12 c0 -11 -19 -15 -25 -6 -3 5 1 10 9 10 9 0 16 -2 16 -4z m2010 -56
c-12 -22 -30 -18 -30 6 0 8 9 14 20 14 18 0 19 -3 10 -20z m-2990 0 c0 -5 -4
-10 -10 -10 -5 0 -10 5 -10 10 0 6 5 10 10 10 6 0 10 -4 10 -10z m2487 -76
c-2 -13 0 -24 5 -24 5 0 6 -4 3 -10 -12 -20 -23 -9 -27 25 -4 38 -1 48 14 39
6 -4 8 -17 5 -30z m543 -35 c9 -21 18 -29 30 -26 23 6 44 -8 35 -22 -8 -13
-61 -6 -82 11 -14 12 -18 82 -4 74 4 -3 14 -20 21 -37z m-220 -13 c0 -13 3
-31 6 -40 4 -11 1 -16 -10 -16 -10 0 -16 9 -16 24 0 13 -3 31 -6 40 -4 11 -1
16 10 16 10 0 16 -9 16 -24z m430 -22 c0 -8 -4 -12 -10 -9 -5 3 -10 10 -10 16
0 5 5 9 10 9 6 0 10 -7 10 -16z m-3280 -14 c0 -5 -4 -10 -9 -10 -6 0 -13 5
-16 10 -3 6 1 10 9 10 9 0 16 -4 16 -10z m245 0 c4 -7 -3 -8 -22 -4 -38 9 -42
14 -10 14 14 0 29 -5 32 -10z m-7191 -9 c3 -5 -1 -11 -9 -15 -15 -6 -29 7 -18
18 9 9 21 8 27 -3z m66 -1 c0 -5 -5 -10 -11 -10 -5 0 -7 5 -4 10 3 6 8 10 11
10 2 0 4 -4 4 -10z m-395 -40 c3 -5 1 -10 -4 -10 -6 0 -11 5 -11 10 0 6 2 10
4 10 3 0 8 -4 11 -10z m345 -30 c0 -11 -7 -20 -15 -20 -8 0 -15 9 -15 20 0 11
7 20 15 20 8 0 15 -9 15 -20z m-380 1 c0 -5 -7 -12 -16 -15 -14 -5 -15 -4 -4
9 14 17 20 19 20 6z m-50 -41 c0 -5 -7 -10 -15 -10 -8 0 -15 5 -15 10 0 6 7
10 15 10 8 0 15 -4 15 -10z m610 -10 c0 -5 -12 -10 -26 -10 -14 0 -23 4 -19
10 3 6 15 10 26 10 10 0 19 -4 19 -10z m-820 -10 c0 -5 -7 -10 -15 -10 -8 0
-15 5 -15 10 0 6 7 10 15 10 8 0 15 -4 15 -10z m750 0 c0 -5 -7 -10 -15 -10
-8 0 -15 5 -15 10 0 6 7 10 15 10 8 0 15 -4 15 -10z m-540 -25 c0 -8 -7 -15
-15 -15 -26 0 -18 20 13 29 1 1 2 -6 2 -14z m-160 -51 c0 -21 -4 -33 -10 -29
-17 10 -11 65 7 65 2 0 3 -16 3 -36z m50 32 c0 -11 -19 -15 -25 -6 -3 5 1 10
9 10 9 0 16 -2 16 -4z m266 -34 c-4 -28 0 -48 14 -75 11 -20 20 -39 20 -42 0
-13 -23 -2 -43 20 -16 18 -28 23 -44 19 -13 -4 -23 -10 -23 -14 0 -4 10 -12
23 -18 23 -11 23 -11 -25 -16 -21 -2 -19 -24 3 -28 35 -5 33 -25 -2 -37 -43
-15 -59 -14 -59 4 0 8 -9 15 -20 15 -11 0 -23 -7 -26 -15 -7 -17 -34 -21 -34
-5 0 13 37 50 50 50 6 0 10 13 10 29 0 21 -6 32 -20 36 -24 8 -27 25 -4 25 8
0 22 7 30 15 21 21 51 19 71 -5 10 -11 25 -20 35 -20 19 0 33 16 19 22 -9 3
16 78 26 78 3 0 3 -17 -1 -38z m-88 19 c25 -14 -22 -35 -48 -21 -11 6 -20 8
-20 5 0 -4 -5 -3 -10 0 -6 4 -8 9 -6 13 6 11 67 13 84 3z m-315 -54 c4 -10 -3
-12 -24 -9 -16 2 -29 8 -29 13 0 14 47 10 53 -4z m224 -3 c-3 -3 -12 -4 -19
-1 -8 3 -5 6 6 6 11 1 17 -2 13 -5z m-707 -65 c0 -19 1 -20 18 -3 16 17 17 17
21 -1 3 -17 -32 -54 -51 -55 -5 0 -8 18 -8 40 0 22 5 40 10 40 6 0 10 -9 10
-21z m410 13 c0 -10 -45 -32 -65 -32 -8 0 -15 -4 -15 -10 0 -16 -17 -12 -24 6
-4 10 4 19 27 29 36 16 77 19 77 7z m80 -12 c0 -5 -4 -10 -9 -10 -6 0 -13 5
-16 10 -3 6 1 10 9 10 9 0 16 -4 16 -10z m14752 -36 c-14 -10 -15 -14 -2 -30
14 -16 14 -16 -7 -3 -21 12 -21 15 -6 31 9 10 13 18 9 18 -4 0 -4 5 0 11 4 8
9 7 15 -2 4 -8 1 -17 -9 -25z m-14612 1 c-25 -26 -51 -35 -30 -10 6 8 9 19 5
25 -4 6 5 10 21 10 l27 0 -23 -25z m-325 -27 c16 -39 12 -47 -10 -24 -9 9 -23
16 -31 16 -12 0 -12 4 -4 20 15 29 29 25 45 -12z m75 3 c0 -6 -4 -13 -10 -16
-5 -3 -10 1 -10 9 0 9 5 16 10 16 6 0 10 -4 10 -9z m190 -9 c0 -5 -18 -15 -40
-22 -35 -11 -40 -17 -40 -43 0 -28 -1 -29 -37 -22 -49 9 -53 12 -53 38 0 16 3
18 9 8 7 -11 15 -11 45 -1 20 6 36 18 36 25 0 8 14 15 33 18 17 2 35 5 40 5 4
1 7 -2 7 -6z m14650 -6 c0 -2 -7 -7 -16 -10 -8 -3 -12 -2 -9 4 6 10 25 14 25
6z m-15150 -36 c0 -5 -2 -10 -4 -10 -3 0 -8 5 -11 10 -3 6 -1 10 4 10 6 0 11
-4 11 -10z m15107 -25 c0 -8 -4 -12 -9 -9 -5 3 -6 10 -3 15 9 13 12 11 12 -6z
m-15007 -10 c0 -8 -7 -15 -15 -15 -16 0 -20 12 -8 23 11 12 23 8 23 -8z m-60
-39 c0 -3 -4 -8 -10 -11 -5 -3 -10 -1 -10 4 0 6 5 11 10 11 6 0 10 -2 10 -4z
m150 -11 c0 -9 -6 -12 -15 -9 -8 4 -15 10 -15 15 0 5 7 9 15 9 8 0 15 -7 15
-15z m-79 -102 c13 -14 -6 -27 -28 -19 -10 4 -14 15 -11 31 6 31 0 31 -34 0
-15 -14 -34 -25 -41 -25 -8 0 -18 -7 -21 -16 -4 -10 -14 -14 -26 -11 -11 3
-18 2 -15 -2 2 -5 -7 -13 -20 -19 -32 -15 -32 -32 0 -32 16 0 25 -6 25 -16 0
-13 -8 -15 -40 -12 -32 3 -40 0 -40 -13 0 -35 -78 -41 -99 -8 -11 19 -11 21 3
16 10 -4 16 -1 16 8 0 18 48 55 72 55 11 0 33 14 50 30 16 17 40 30 53 30 15
0 26 7 30 20 4 13 19 22 43 26 20 4 44 10 52 15 11 6 16 1 18 -19 2 -15 8 -32
13 -39z m-71 -33 c0 -5 -4 -10 -10 -10 -5 0 -10 5 -10 10 0 6 5 10 10 10 6 0
10 -4 10 -10z m124 -57 c-21 -15 -44 -17 -44 -3 0 6 9 10 19 10 11 0 23 10 27
23 7 20 8 20 12 3 2 -11 -4 -25 -14 -33z m14766 -37 c0 -2 -8 -10 -17 -17 -16
-13 -17 -12 -4 4 13 16 21 21 21 13z m-14834 -44 c-4 -3 -12 0 -19 7 -9 9 -9
14 3 21 11 7 16 5 18 -6 2 -9 1 -18 -2 -22z m-349 -28 c-3 -3 -12 -4 -19 -1
-8 3 -5 6 6 6 11 1 17 -2 13 -5z m186 -5 c20 -1 20 -2 -3 -8 -14 -4 -27 -16
-30 -29 -7 -33 -24 -29 -31 7 -6 31 4 43 29 35 8 -2 23 -4 35 -5z m-73 -34 c0
-8 -4 -15 -9 -15 -13 0 -22 16 -14 24 11 11 23 6 23 -9z m-83 -27 c-3 -8 -6
-5 -6 6 -1 11 2 17 5 13 3 -3 4 -12 1 -19z m-1 -76 c-12 -12 -18 8 -10 35 l8
28 4 -28 c2 -16 1 -31 -2 -35z m15024 -2 c0 -5 -4 -10 -10 -10 -5 0 -10 5 -10
10 0 6 5 10 10 10 6 0 10 -4 10 -10z m-15020 -30 c0 -5 -7 -7 -15 -4 -8 4 -15
8 -15 10 0 2 7 4 15 4 8 0 15 -4 15 -10z m-270 -49 c0 -4 -7 -16 -15 -27 -13
-18 -14 -16 -15 20 0 33 2 37 15 26 8 -7 15 -16 15 -19z m76 -10 c21 -16 22
-20 9 -37 -14 -18 -14 -18 -15 4 0 16 -6 22 -21 22 -16 0 -20 -5 -16 -20 3
-11 1 -23 -4 -26 -10 -6 -12 20 -3 54 8 27 19 28 50 3z m15180 -3 c3 -4 -1 -5
-10 -4 -8 1 -18 5 -22 8 -3 4 1 5 10 4 8 -1 18 -5 22 -8z m-9759 -314 c-3 -3
-12 -4 -19 -1 -8 3 -5 6 6 6 11 1 17 -2 13 -5z m2093 -90 c0 -21 -4 -23 -25
-18 -14 3 -31 1 -39 -5 -23 -19 -28 4 -6 31 26 33 70 28 70 -8z m-190 16 c0
-5 -4 -10 -10 -10 -5 0 -10 5 -10 10 0 6 5 10 10 10 6 0 10 -4 10 -10z m240
-10 c0 -5 -2 -10 -4 -10 -3 0 -8 5 -11 10 -3 6 -1 10 4 10 6 0 11 -4 11 -10z
m534 -41 c-3 -5 -10 -7 -15 -3 -5 3 -7 10 -3 15 3 5 10 7 15 3 5 -3 7 -10 3
-15z m-54 1 c0 -5 -7 -7 -15 -4 -8 4 -15 8 -15 10 0 2 7 4 15 4 8 0 15 -4 15
-10z m-3090 -70 c0 -5 -7 -10 -16 -10 -8 0 -12 5 -9 10 3 6 10 10 16 10 5 0 9
-4 9 -10z m3637 -1 c24 -9 26 -12 11 -20 -17 -10 -58 7 -58 23 0 11 14 10 47
-3z m-4094 -50 c-4 -16 -8 -17 -14 -7 -7 10 -9 10 -9 -2 0 -12 -2 -13 -9 -1
-5 7 -6 22 -4 32 4 14 9 16 23 9 12 -7 16 -17 13 -31z m4164 35 c-3 -3 -12 -4
-19 -1 -8 3 -5 6 6 6 11 1 17 -2 13 -5z m-4480 -10 c-3 -3 -12 -4 -19 -1 -8 3
-5 6 6 6 11 1 17 -2 13 -5z m4694 -20 c8 -8 33 -14 55 -14 58 0 114 -11 108
-21 -3 -5 4 -9 15 -9 11 0 23 5 26 10 6 10 35 8 102 -6 16 -3 20 -9 16 -24 -5
-19 -11 -20 -52 -14 -25 4 -50 10 -56 14 -5 3 -31 8 -58 9 -26 1 -62 7 -80 12
-17 5 -51 9 -74 9 -23 0 -45 4 -48 10 -3 5 -28 12 -56 16 -27 4 -52 11 -56 17
-4 6 5 8 25 4 17 -4 34 -2 37 4 8 13 75 1 96 -17z m-4746 6 c4 -6 -7 -10 -27
-9 -27 0 -30 2 -13 9 27 12 33 12 40 0z m61 -15 c-4 -12 5 -15 44 -16 28 -1
56 -2 63 -3 6 -1 11 6 9 15 -2 14 6 16 42 14 25 -2 52 -8 62 -13 14 -8 9 -12
-29 -27 -27 -10 -57 -15 -71 -11 -16 4 -28 1 -33 -7 -10 -16 -95 -39 -116 -31
-8 3 -17 -2 -21 -12 -5 -13 -9 -14 -21 -4 -8 7 -26 10 -40 8 -13 -3 -22 -1
-19 4 3 5 -1 17 -10 27 -16 18 -15 19 31 27 26 4 54 8 61 9 8 0 18 8 23 18 12
21 33 23 25 2z m259 -6 c10 -30 2 -32 -12 -3 -6 13 -7 24 -3 24 5 0 12 -9 15
-21z m2103 -47 c2 -8 -10 -12 -35 -13 -37 -1 -37 -2 12 -10 66 -12 74 -12 113
-4 26 6 32 4 32 -9 0 -11 9 -16 33 -16 18 0 39 -6 45 -12 10 -10 17 -10 32 0
10 6 26 9 34 6 8 -3 28 1 44 9 33 16 166 23 142 7 -23 -15 56 -13 80 3 17 10
22 9 29 -2 5 -8 16 -11 30 -6 16 5 20 3 15 -9 -3 -9 -10 -16 -15 -16 -5 0 -9
-9 -9 -20 0 -27 -29 -72 -42 -64 -5 3 -6 14 -3 23 4 14 -1 18 -25 18 -17 0
-26 -3 -21 -6 5 -3 -8 -26 -30 -51 -57 -66 -61 -70 -52 -70 4 0 3 -4 -3 -8
-12 -8 -49 -84 -46 -94 1 -5 -2 -8 -8 -8 -5 0 -10 -6 -10 -12 0 -7 -9 -31 -20
-53 -14 -30 -18 -34 -17 -16 1 13 -4 26 -10 28 -7 3 -13 -2 -13 -10 0 -9 -14
-17 -34 -21 -23 -5 -37 -14 -42 -28 -3 -11 -9 -16 -13 -10 -3 5 -15 11 -26 13
-12 3 -21 14 -23 27 -2 12 -8 22 -14 22 -6 0 -8 -10 -4 -24 5 -20 2 -24 -22
-28 -48 -9 -57 -13 -69 -33 -10 -17 -12 -14 -17 25 -4 25 -6 59 -5 75 3 36 -2
57 -16 67 -6 4 -5 19 3 41 14 38 16 87 4 87 -23 0 -60 -58 -66 -104 -3 -28 -9
-52 -14 -55 -6 -6 -9 -32 -13 -119 -1 -33 -19 -40 -27 -11 -3 11 -1 11 8 -1 9
-11 11 -11 8 -1 -3 9 -21 14 -55 15 -40 1 -54 -3 -63 -18 -10 -16 -9 -18 4
-13 9 4 16 2 16 -3 0 -19 -18 -19 -38 1 -26 23 -28 34 -7 25 9 -3 15 0 15 9 0
19 -17 28 -24 13 -3 -7 -3 -3 0 9 3 13 1 31 -5 40 -6 10 -11 14 -11 9 0 -5 -6
-3 -14 3 -11 9 -18 3 -35 -34 -15 -32 -27 -45 -42 -45 -12 0 -17 -4 -14 -11 4
-6 12 -8 19 -6 7 3 13 -4 13 -14 1 -10 -2 -19 -7 -19 -5 0 -8 -12 -6 -27 2
-25 -1 -28 -25 -29 -24 -1 -27 1 -18 17 5 11 14 19 19 19 6 0 10 7 10 15 0 28
-35 15 -54 -20 -21 -39 -28 -42 -46 -20 -14 16 -50 21 -50 6 0 -5 6 -12 13
-14 7 -3 5 -6 -5 -6 -12 -1 -18 -9 -18 -24 0 -31 -9 -38 -32 -26 -19 10 -18
11 7 35 16 15 24 31 21 42 -3 9 -2 31 3 47 5 17 10 22 10 13 1 -10 5 -18 11
-18 6 0 5 10 -2 25 -12 28 -28 33 -28 10 0 -8 -4 -15 -10 -15 -5 0 -10 9 -10
20 0 16 -4 18 -17 11 -10 -5 -30 -14 -45 -21 -22 -10 -25 -16 -17 -27 6 -7 18
-13 25 -13 8 0 14 -4 14 -8 0 -11 -48 -52 -60 -52 -6 0 -13 -6 -16 -14 -7 -18
-42 -9 -55 15 -6 12 -20 19 -37 18 -18 -1 -21 -3 -9 -6 18 -5 18 -5 0 -18 -16
-12 -16 -14 -2 -20 16 -6 16 -44 0 -45 -3 -1 -23 -3 -44 -6 -27 -4 -46 -1 -64
12 -20 13 -28 14 -31 5 -5 -15 -9 -8 -68 105 -23 43 -49 113 -59 154 -20 84
-25 93 -48 84 -20 -7 -26 -32 -14 -64 17 -48 37 -131 37 -158 0 -15 7 -40 15
-56 18 -33 13 -56 -10 -56 -8 0 -15 -8 -15 -17 0 -15 -3 -15 -22 4 -25 25 -30
102 -8 127 7 9 8 16 2 16 -5 0 -13 -8 -16 -17 -6 -14 -9 -14 -22 6 -29 41 -45
394 -20 425 10 12 207 43 321 50 151 10 251 20 326 31 48 8 96 11 108 8 14 -3
21 -1 21 8 0 10 2 11 8 2 5 -8 22 -9 61 -1 37 6 68 6 97 -1 51 -13 66 -13 39
0 -15 7 -6 8 30 5 28 -2 68 -1 90 4 47 9 57 8 63 -8z m-2583 -39 c8 -27 -10
-31 -23 -5 -11 19 -4 48 8 35 4 -4 11 -18 15 -30z m3183 30 c-15 -2 -42 -2
-60 0 -18 2 -6 4 27 4 33 0 48 -2 33 -4z m179 -19 c-3 -3 -12 -4 -19 -1 -8 3
-5 6 6 6 11 1 17 -2 13 -5z m22 -55 c20 0 84 -2 144 -4 88 -3 107 -1 107 11 0
8 10 14 25 14 16 0 25 -6 25 -16 0 -11 6 -15 20 -11 11 3 20 1 20 -4 0 -5 4
-9 9 -9 5 0 7 9 4 20 -4 15 -1 20 13 19 11 0 14 -3 7 -6 -23 -9 -14 -26 10
-18 12 4 37 8 55 9 25 2 32 -1 32 -16 0 -12 6 -18 16 -16 10 2 19 -2 21 -9 3
-7 -8 -10 -33 -8 -39 4 -61 24 -41 37 18 12 -2 10 -39 -4 -55 -20 -53 -63 4
-74 24 -5 32 -3 32 7 0 9 3 10 8 4 11 -16 46 -15 55 1 10 18 31 18 24 -1 -5
-12 -2 -12 18 -3 35 16 40 38 10 38 -30 0 -33 16 -5 23 11 3 18 1 14 -4 -3 -5
6 -9 20 -9 14 0 26 -4 26 -8 0 -9 15 -12 58 -13 12 -1 22 -5 22 -9 0 -5 12 -6
27 -4 35 7 76 -4 68 -16 -4 -6 -11 -7 -17 -4 -6 4 -8 3 -5 -2 3 -5 -25 -46
-61 -91 -78 -94 -162 -209 -162 -219 0 -10 -72 -118 -84 -126 -5 -4 -17 2 -27
13 -9 10 -23 19 -32 19 -9 0 -20 7 -25 16 -8 14 -12 12 -30 -11 -12 -15 -22
-32 -22 -36 0 -17 -17 -9 -28 14 -6 12 -11 16 -11 10 -2 -23 -18 -13 -17 10 1
19 -3 22 -33 19 -20 -2 -42 -13 -55 -29 -20 -23 -24 -24 -37 -10 -13 12 -18
13 -34 1 -10 -8 -28 -13 -39 -13 -17 1 -18 2 -4 6 25 6 5 43 -23 43 -11 0 -29
5 -40 10 -13 7 -25 8 -37 1 -12 -8 -13 -10 -3 -11 31 0 -1 -13 -41 -16 -24 -2
-44 -8 -46 -14 -2 -5 -11 -10 -20 -11 -11 0 -12 -2 -4 -6 16 -6 6 -23 -14 -23
-11 0 -13 6 -8 23 3 12 11 24 15 25 11 4 12 32 2 32 -22 -1 -49 -39 -63 -89
-6 -24 -7 -23 -11 12 -4 28 -2 36 8 33 16 -6 18 25 3 40 -12 12 11 116 30 139
5 6 8 14 5 17 -6 6 16 94 34 142 7 16 9 31 6 34 -2 3 3 11 13 18 16 13 16 13
-1 14 -21 0 -18 19 14 82 20 40 42 61 33 31 -5 -16 -4 -16 10 1 16 19 16 19
16 -3 0 -13 4 -19 10 -16 6 4 8 16 5 28 -5 21 -5 21 6 0 9 -17 21 -23 48 -24z
m-3582 4 c3 -9 -8 -10 -35 -4 -2 1 0 6 3 12 8 12 27 7 32 -8z m-97 -39 c0 -7
-4 -16 -10 -19 -5 -3 -10 0 -10 7 0 7 -3 24 -6 38 -5 24 -5 24 10 6 9 -11 16
-25 16 -32z m-93 -6 c-3 -8 -6 -5 -6 6 -1 11 2 17 5 13 3 -3 4 -12 1 -19z
m1732 -161 c2 -100 4 -214 5 -254 0 -39 4 -69 9 -66 4 2 7 -3 7 -12 0 -9 -4
-13 -10 -10 -5 3 -10 2 -10 -4 0 -5 9 -13 20 -16 11 -4 17 -11 14 -17 -4 -6
-9 -7 -13 0 -7 11 -69 27 -91 23 -8 -1 -25 -12 -37 -24 -19 -17 -23 -18 -23
-4 0 27 19 69 29 63 5 -4 16 -3 25 0 15 6 15 7 0 18 -9 7 -14 20 -12 31 4 21
-44 39 -71 26 -9 -4 -36 -18 -61 -29 -25 -12 -51 -22 -57 -22 -7 0 -13 -4 -13
-10 0 -5 -15 -10 -34 -10 -31 0 -34 3 -40 38 -26 159 -33 368 -13 395 8 12 49
22 137 36 145 23 176 27 210 29 l25 2 4 -183z m-1842 121 c-3 -8 -6 -5 -6 6
-1 11 2 17 5 13 3 -3 4 -12 1 -19z m-242 2 c-3 -5 -14 -10 -23 -9 -14 0 -13 2
3 9 27 11 27 11 20 0z m222 4 c-3 -3 -12 -4 -19 -1 -8 3 -5 6 6 6 11 1 17 -2
13 -5z m4778 -4 c3 -5 -2 -10 -12 -11 -16 0 -16 -1 2 -9 19 -8 19 -9 -2 -9
-25 -1 -26 0 -17 23 7 18 20 21 29 6z m-5055 -14 c0 -9 -30 -14 -35 -6 -4 6 3
10 14 10 12 0 21 -2 21 -4z m113 -3 c-7 -2 -19 -2 -25 0 -7 3 -2 5 12 5 14 0
19 -2 13 -5z m1573 -110 c-3 -65 -7 -127 -7 -138 -2 -18 13 -96 40 -207 6 -26
6 -36 -2 -31 -6 4 -8 0 -4 -10 3 -10 2 -17 -4 -17 -5 0 -14 10 -19 23 -7 18
-9 19 -9 3 -1 -11 -6 -16 -15 -13 -10 4 -13 -1 -10 -16 3 -12 -5 2 -16 32 -20
54 -24 87 -35 246 -3 44 -8 114 -11 156 l-6 76 32 1 c18 0 35 3 38 6 3 3 12 6
19 6 12 0 13 -21 9 -117z m3464 105 c0 -4 7 -5 15 -2 10 4 15 0 15 -15 0 -12
-6 -21 -15 -21 -8 0 -18 0 -22 0 -5 0 -8 8 -8 18 0 13 -9 17 -33 17 -17 0 -32
3 -32 8 0 4 18 7 40 5 22 -1 40 -5 40 -10z m-4950 -23 c-13 -16 -40 -20 -40
-7 0 14 12 22 33 22 16 0 17 -3 7 -15z m3720 5 c0 -6 -9 -30 -20 -52 -11 -23
-20 -47 -21 -52 0 -6 -11 -33 -24 -61 -23 -47 -24 -48 -25 -19 0 16 -4 34 -9
40 -5 5 10 38 38 81 43 69 61 86 61 63z m1180 -30 c0 -13 6 -17 20 -13 12 3
22 -1 26 -11 3 -9 11 -16 17 -16 6 0 21 -10 34 -22 18 -17 26 -19 35 -10 19
19 66 15 78 -7 11 -21 8 -23 -36 -47 -13 -7 -27 -8 -35 -3 -22 14 -55 11 -69
-6 -18 -21 -3 -32 21 -16 18 10 24 10 38 -3 10 -9 21 -13 24 -9 4 3 7 -1 7
-10 0 -9 10 -19 23 -22 19 -5 22 -13 22 -48 0 -44 -41 -119 -54 -98 -4 6 -18
12 -31 13 -21 3 -25 -2 -28 -27 -2 -23 0 -27 8 -15 9 13 11 13 20 0 6 -10 6
-16 -3 -19 -7 -2 -15 -10 -20 -17 -4 -7 -14 -11 -22 -8 -18 7 -20 50 -2 57 6
3 -7 6 -30 6 -24 1 -43 -3 -43 -9 0 -5 4 -10 10 -10 9 0 40 -51 40 -66 0 -3
-11 -4 -25 -2 -31 6 -49 -14 -40 -43 6 -19 5 -21 -16 -15 -13 4 -73 13 -132
20 -59 7 -113 18 -119 24 -7 7 -24 12 -39 12 -15 0 -31 5 -35 11 -3 6 -15 9
-25 6 -14 -4 -19 0 -19 14 0 10 4 19 9 19 5 0 16 18 25 40 9 22 38 71 65 108
33 45 45 69 38 74 -8 5 -6 8 6 8 9 0 17 6 17 13 0 8 11 20 25 27 22 12 30 28
26 53 -1 5 4 5 10 1 9 -5 10 -2 6 9 -4 11 -2 14 9 10 7 -3 14 0 14 6 0 20 38
50 57 45 10 -3 27 1 37 9 24 18 56 10 56 -13z m180 20 c0 -5 -2 -10 -4 -10 -3
0 -8 5 -11 10 -3 6 -1 10 4 10 6 0 11 -4 11 -10z m-5540 -20 c0 -5 -5 -10 -11
-10 -5 0 -7 5 -4 10 3 6 8 10 11 10 2 0 4 -4 4 -10z m256 -5 c11 -27 -12 -41
-62 -39 -32 1 -50 7 -56 18 -5 9 -13 14 -19 11 -5 -4 -9 -1 -9 5 0 7 6 10 13
7 8 -3 20 -1 28 4 24 15 99 11 105 -6z m-386 -19 c0 -3 -4 -8 -10 -11 -5 -3
-10 -1 -10 4 0 6 5 11 10 11 6 0 10 -2 10 -4z m80 -1 c0 -2 -8 -9 -18 -14 -14
-7 -19 -6 -19 3 0 6 9 13 19 13 10 1 18 0 18 -2z m70 -11 c0 -2 -7 -4 -15 -4
-8 0 -15 4 -15 10 0 5 7 7 15 4 8 -4 15 -8 15 -10z m1560 13 c0 -2 12 -37 26
-77 14 -41 26 -83 28 -94 1 -12 9 -34 17 -51 9 -16 19 -48 23 -70 4 -22 16
-64 27 -94 20 -56 18 -91 -7 -91 -8 0 -14 -5 -14 -11 0 -5 -5 -7 -10 -4 -17
10 -70 -5 -70 -21 0 -11 -5 -11 -25 -2 -22 10 -23 12 -8 23 9 7 13 17 9 23
-10 17 -41 15 -57 -4 -11 -14 -13 -14 -21 0 -5 9 -16 16 -23 16 -8 0 -15 7
-15 16 0 10 6 14 15 10 8 -3 15 -1 15 5 0 7 -12 9 -30 7 -25 -4 -35 1 -55 27
-13 18 -21 36 -17 40 4 5 1 5 -5 1 -7 -4 -13 -2 -13 4 0 6 -3 9 -7 7 -5 -3 -8
7 -9 23 -1 15 -11 38 -23 51 -12 13 -35 47 -50 76 -26 47 -27 53 -12 68 15 15
15 16 -1 9 -13 -4 -20 1 -27 17 -12 32 -8 34 25 12 16 -10 25 -13 22 -8 -4 6
-3 17 2 25 7 11 14 11 41 -3 33 -15 33 -15 51 13 10 17 30 32 45 36 15 3 42
10 58 14 30 8 95 13 95 7z m-1728 -58 c-6 -22 -14 -27 -47 -32 -5 -1 -12 -5
-15 -9 -3 -3 -23 -9 -44 -13 -34 -7 -38 -6 -33 9 4 9 2 16 -3 16 -6 0 -10 6
-10 14 0 9 7 12 23 9 16 -3 18 -2 9 5 -11 7 -8 11 13 16 14 4 30 4 35 1 6 -4
10 -2 10 3 0 5 10 13 22 19 30 13 49 -6 40 -38z m223 32 c7 -12 -2 -17 -47
-25 -31 -6 -37 -4 -32 8 5 13 23 20 61 25 6 0 14 -3 18 -8z m5725 -21 c0 -5
-4 -10 -9 -10 -6 0 -13 5 -16 10 -3 6 1 10 9 10 9 0 16 -4 16 -10z m70 -11 c0
-14 -16 -11 -29 5 -10 12 -8 13 8 9 12 -3 21 -9 21 -14z m-4500 2 c0 -6 -9 -9
-19 -8 -11 0 -17 5 -15 9 7 11 34 10 34 -1z m-1400 -22 c0 -18 -2 -19 -15 -5
-8 8 -15 17 -15 20 0 3 7 6 15 6 9 0 15 -9 15 -21z m5948 10 c-2 -3 4 -14 12
-24 14 -17 14 -18 -5 -8 -13 8 -26 8 -37 2 -23 -12 -23 -1 0 22 15 16 38 22
30 8z m-6256 -47 c-2 -7 1 -19 8 -27 7 -9 10 -18 6 -22 -3 -3 -6 -1 -6 5 0 7
-5 12 -11 12 -6 0 -9 -7 -5 -15 3 -8 1 -15 -4 -15 -6 0 -10 5 -10 10 0 6 -5
10 -11 10 -5 0 -7 -4 -4 -10 4 -6 -7 -10 -27 -9 -18 1 -26 3 -17 6 10 2 19 13
22 23 4 17 2 18 -15 9 -25 -14 -32 -6 -24 27 7 25 8 26 21 8 13 -18 14 -18 22
1 7 17 9 15 14 -15 6 -35 6 -34 8 9 1 44 1 44 20 25 10 -10 16 -25 13 -32z
m228 -11 c-1 -13 -30 34 -30 48 0 9 7 3 15 -13 8 -15 15 -31 15 -35z m5960 37
c0 -4 -4 -8 -10 -8 -5 0 -10 -9 -10 -21 0 -17 4 -20 28 -14 16 3 39 2 53 -4
l24 -9 -29 -11 c-37 -15 -54 -9 -106 38 l-42 38 46 0 c25 0 46 -4 46 -9z
m-149 -21 c-10 -9 -11 -8 -5 6 3 10 9 15 12 12 3 -3 0 -11 -7 -18z m-1629 -19
c-8 -8 -9 -4 -5 13 4 13 8 18 11 10 2 -7 -1 -18 -6 -23z m1578 -5 c0 -16 3
-38 6 -50 5 -17 2 -23 -10 -23 -9 0 -16 7 -16 15 0 8 -4 15 -10 15 -13 0 -13
12 0 44 13 34 30 33 30 -1z m-6155 2 l-30 -13 30 -1 c27 -1 28 -3 11 -13 -14
-8 -24 -8 -37 1 -24 14 -50 14 -46 0 1 -6 -4 -14 -12 -17 -8 -2 -11 0 -7 6 3
6 0 12 -6 15 -7 3 6 8 30 12 23 4 45 12 48 16 3 5 15 9 27 9 19 -1 18 -3 -8
-15z m285 -11 c0 -17 -20 -19 -20 -1 0 7 -7 4 -15 -7 -9 -13 -15 -15 -15 -7 0
16 31 41 42 35 5 -3 8 -12 8 -20z m6000 6 c13 -8 13 -11 -2 -27 -17 -16 -18
-16 -18 0 0 9 -4 17 -10 17 -5 0 -10 5 -10 10 0 13 20 13 40 0z m-1724 -29
c-3 -5 4 -11 16 -14 18 -5 20 -11 15 -44 -4 -21 -7 -56 -8 -78 0 -32 -2 -36
-9 -20 -5 11 -9 14 -9 7 -1 -7 -5 -11 -11 -7 -5 3 -7 12 -4 20 4 8 10 12 15 9
5 -3 9 5 8 18 0 13 -3 17 -6 9 -5 -11 -7 -11 -14 0 -6 10 -9 11 -9 2 0 -7 -4
-13 -10 -13 -5 0 -10 7 -10 15 0 8 4 15 10 15 5 0 7 7 4 15 -4 8 -3 23 2 33 7
16 9 23 13 37 0 3 4 5 7 5 3 0 3 -4 0 -9z m-4608 -26 c23 -2 39 -12 31 -19 -2
-2 -35 2 -74 9 -44 7 -62 14 -50 17 11 4 31 4 45 1 14 -3 35 -6 48 -8z m6300
3 c8 -8 15 -8 27 2 9 8 19 9 28 3 6 -5 22 -8 35 -7 12 0 22 -3 22 -8 0 -5 -6
-8 -12 -5 -7 2 -23 -4 -34 -15 -14 -13 -24 -16 -29 -9 -3 6 1 11 9 11 9 0 16
5 16 10 0 13 -16 13 -39 -2 -15 -9 -23 -9 -35 1 -17 14 -21 31 -8 31 4 0 13
-5 20 -12z m-4764 -38 c8 -17 10 -27 4 -24 -6 4 -3 -7 8 -25 10 -17 22 -31 27
-31 5 0 6 -8 3 -17 -4 -10 -4 -14 0 -11 12 13 74 -134 74 -177 0 -9 5 -13 10
-10 6 3 10 5 10 3 0 -2 4 -18 10 -37 l9 -33 -21 18 c-21 19 -21 19 -14 -8 3
-16 4 -28 2 -28 -9 0 -56 93 -50 101 3 5 -9 24 -25 41 -17 18 -31 41 -31 50 0
9 -4 20 -10 23 -5 3 -10 15 -10 26 0 11 -7 22 -15 25 -8 4 -13 9 -10 13 2 4
-2 29 -10 55 -11 37 -12 50 -2 61 18 21 24 18 41 -15z m5261 20 c17 -4 23 -8
13 -9 -14 -1 -14 -5 -5 -26 7 -14 17 -23 24 -20 12 4 28 -11 28 -27 0 -4 8
-16 17 -27 16 -19 16 -20 -15 -30 -18 -5 -43 -11 -56 -13 -16 -2 -25 -10 -27
-25 -3 -20 1 -23 26 -23 17 0 30 5 30 10 0 6 9 10 20 10 13 0 20 7 20 19 0 21
19 31 57 31 22 0 24 -3 19 -25 -7 -27 11 -36 20 -10 7 17 44 21 44 4 0 -6 -9
-13 -20 -16 -37 -10 -19 -47 24 -48 11 0 21 -6 24 -14 3 -8 0 -11 -6 -7 -7 4
-9 -5 -5 -29 3 -20 1 -41 -6 -49 -9 -11 -8 -15 4 -20 16 -6 21 -56 5 -56 -5 0
-10 5 -10 10 0 6 -8 10 -19 10 -16 0 -18 7 -16 48 2 46 -8 82 -23 82 -4 0 -7
-27 -6 -60 2 -62 -3 -68 -37 -49 -13 6 -25 7 -32 1 -27 -21 -58 -24 -78 -6
-18 16 -19 16 -19 -1 0 -15 -5 -14 -36 10 -40 30 -43 30 -46 -8 -3 -34 -10
-34 -25 0 -9 19 -10 30 -2 40 6 7 9 20 5 28 -7 18 5 20 23 3 8 -7 11 -8 8 -2
-3 6 0 22 8 37 15 30 3 36 -21 12 -21 -21 -44 -19 -44 4 0 15 6 19 26 18 15
-1 29 4 32 12 3 9 0 11 -8 6 -10 -6 -12 -2 -7 14 7 30 -1 51 -20 51 -12 0 -13
-3 -4 -13 12 -15 5 -27 -16 -27 -10 0 -12 7 -8 19 3 11 -1 26 -11 36 -15 14
-15 18 -3 26 8 5 20 9 27 9 6 0 12 7 12 15 0 20 -19 19 -42 -2 -14 -12 -21
-14 -30 -5 -9 9 -5 14 13 20 13 5 23 13 22 18 -1 5 7 19 17 32 21 23 72 28
135 12z m-6995 -10 c0 -5 -2 -10 -4 -10 -3 0 -8 5 -11 10 -3 6 -1 10 4 10 6 0
11 -4 11 -10z m181 -5 l34 -14 -31 -1 c-17 0 -37 7 -44 15 -16 19 -2 19 41 0z
m6551 -12 c-10 -4 -10 -8 -1 -19 9 -11 8 -14 -4 -14 -8 0 -23 3 -32 6 -14 6
-13 9 7 19 13 7 28 13 33 13 6 0 4 -2 -3 -5z m-6719 -35 c-2 -5 -12 -8 -21 -7
-10 0 -12 3 -5 5 7 3 9 13 6 22 -6 14 -5 15 9 2 9 -8 14 -18 11 -22z m1507 9
c0 -7 14 -32 30 -57 37 -55 38 -50 4 19 -14 29 -23 55 -21 58 7 6 43 -58 51
-90 3 -15 11 -27 16 -27 5 0 6 -7 3 -17 -5 -12 -3 -14 7 -8 9 6 11 4 5 -5 -6
-10 -11 -9 -22 5 -7 11 -13 14 -13 8 0 -6 8 -21 19 -34 10 -13 34 -57 54 -98
l36 -74 -27 -38 c-15 -21 -34 -39 -43 -39 -21 0 -59 -87 -59 -137 0 -31 -9
-33 -48 -13 -19 11 -39 17 -44 14 -4 -3 -8 4 -8 14 0 22 -73 99 -89 94 -6 -2
-8 -16 -5 -31 4 -20 1 -30 -9 -34 -11 -4 -13 0 -10 14 3 10 1 25 -4 32 -19 24
-21 57 -5 73 15 15 14 17 -1 29 -11 8 -18 28 -19 55 -1 23 -8 48 -16 56 -12
12 -12 22 -3 57 9 30 9 50 2 70 -16 41 -43 32 -55 -18 -3 -16 -8 -37 -10 -45
-3 -8 -5 -18 -5 -22 -2 -16 -21 -7 -21 9 0 27 -12 6 -16 -28 -5 -41 -10 -46
-34 -31 -18 11 -20 9 -20 -19 0 -17 6 -37 14 -45 8 -8 22 -39 31 -69 18 -65
30 -225 16 -225 -5 0 -13 9 -16 20 -3 11 -12 20 -20 20 -8 0 -17 9 -20 20 -3
11 -11 20 -16 20 -5 0 -9 7 -9 15 0 8 -5 15 -11 15 -7 0 -10 28 -8 85 2 47 0
85 -4 85 -5 0 -5 5 -1 11 9 15 24 -9 24 -38 0 -30 14 -29 28 2 10 22 10 25 -5
23 -21 -4 -35 57 -26 115 4 25 2 37 -6 37 -7 0 -9 -4 -6 -10 3 -5 0 -7 -8 -4
-15 5 -27 -22 -27 -62 0 -12 -7 -27 -15 -34 -8 -7 -15 -26 -15 -42 0 -16 -3
-27 -8 -24 -4 2 -6 -14 -5 -36 2 -39 2 -39 -15 -16 -32 43 -53 88 -47 98 3 6
-3 24 -15 40 -31 43 -21 76 30 96 22 9 37 20 34 25 -3 5 5 9 17 9 12 0 30 7
40 16 10 9 33 17 51 17 18 1 39 8 47 15 8 8 24 11 38 7 15 -3 22 -2 19 4 -7
10 7 15 149 55 135 37 145 38 145 13z m-1423 7 c-3 -3 -12 -4 -19 -1 -8 3 -5
6 6 6 11 1 17 -2 13 -5z m90 0 c-3 -3 -12 -4 -19 -1 -8 3 -5 6 6 6 11 1 17 -2
13 -5z m6198 -4 c3 -5 1 -10 -4 -10 -6 0 -11 5 -11 10 0 6 2 10 4 10 3 0 8 -4
11 -10z m99 -15 c-6 -16 -24 -21 -24 -7 0 11 11 22 21 22 5 0 6 -7 3 -15z
m-2243 -25 c11 6 24 8 29 5 6 -4 9 -1 8 6 -2 6 2 13 8 16 6 2 10 -10 10 -31
-1 -37 -16 -64 -16 -29 0 16 -5 20 -20 16 -11 -3 -17 -9 -14 -14 3 -5 -9 -9
-25 -9 -17 0 -31 -5 -31 -12 0 -6 -13 1 -30 17 -16 16 -30 32 -30 35 0 4 16 5
35 4 20 -2 33 1 30 6 -3 4 1 10 7 13 7 2 14 -4 16 -15 3 -15 7 -16 23 -8z
m2426 -21 c-2 -23 -10 -24 -27 -4 -11 13 -10 14 6 8 17 -6 17 -5 5 10 -12 15
-12 17 2 11 9 -3 15 -14 14 -25z m458 21 c4 -6 -6 -10 -22 -10 -22 0 -25 2
-13 10 19 12 27 12 35 0z m172 -12 c-3 -8 -6 -5 -6 6 -1 11 2 17 5 13 3 -3 4
-12 1 -19z m-2848 -10 c0 -22 -1 -22 -9 -3 -5 11 -9 14 -9 8 -1 -18 -21 -16
-21 2 0 8 9 15 20 15 14 0 20 -6 19 -22z m2731 12 c-19 -13 -30 -13 -30 0 0 6
10 10 23 10 18 0 19 -2 7 -10z m-7147 -15 c4 -8 2 -17 -3 -20 -6 -4 -10 3 -10
14 0 25 6 27 13 6z m3001 -4 c3 -5 -9 -11 -27 -14 -40 -6 -47 0 -16 12 31 13
37 13 43 2z m-118 -10 c-3 -5 4 -11 16 -14 18 -5 19 -8 8 -21 -7 -9 -9 -16 -4
-16 26 -1 -35 -30 -65 -31 -32 -1 -34 -2 -11 -9 23 -7 23 -8 6 -15 -14 -6 -24
-2 -38 15 -22 27 -20 42 7 46 10 2 26 12 35 22 12 16 28 26 48 31 2 1 1 -3 -2
-8z m1891 -23 c-3 -8 -6 -5 -6 6 -1 11 2 17 5 13 3 -3 4 -12 1 -19z m-819 0
c-6 -18 -28 -21 -28 -4 0 9 7 16 16 16 9 0 14 -5 12 -12z m451 -33 c0 -5 -4
-3 -9 5 -5 8 -9 22 -9 30 0 16 17 -16 18 -35z m388 -7 c-2 -13 -4 -5 -4 17 -1
22 1 32 4 23 2 -10 2 -28 0 -40z m243 42 c0 -5 -4 -10 -10 -10 -5 0 -10 5 -10
10 0 6 5 10 10 10 6 0 10 -4 10 -10z m525 0 c3 -5 -1 -10 -9 -10 -9 0 -16 5
-16 10 0 6 4 10 9 10 6 0 13 -4 16 -10z m-605 -10 c0 -5 -4 -10 -10 -10 -5 0
-10 5 -10 10 0 6 5 10 10 10 6 0 10 -4 10 -10z m2430 6 c0 -3 -4 -8 -10 -11
-5 -3 -10 -1 -10 4 0 6 5 11 10 11 6 0 10 -2 10 -4z m-1070 -15 c0 -6 -4 -13
-10 -16 -5 -3 -10 1 -10 9 0 9 5 16 10 16 6 0 10 -4 10 -9z m-2990 -21 c0 -5
-5 -10 -11 -10 -5 0 -7 5 -4 10 3 6 8 10 11 10 2 0 4 -4 4 -10z m4060 6 c0 -3
-4 -8 -10 -11 -5 -3 -10 -1 -10 4 0 6 5 11 10 11 6 0 10 -2 10 -4z m-5792 -13
c-1 -5 11 -27 26 -51 16 -23 26 -45 23 -48 -3 -3 -15 12 -26 34 -11 23 -25 44
-31 47 -6 4 -8 11 -5 16 7 11 16 12 13 2z m4680 -32 c-7 -11 -15 -18 -20 -15
-11 7 3 34 18 34 12 0 12 -4 2 -19z m-3398 -1 c0 -5 -4 -10 -10 -10 -5 0 -10
5 -10 10 0 6 5 10 10 10 6 0 10 -4 10 -10z m3590 -10 c0 -5 -5 -10 -11 -10 -5
0 -7 5 -4 10 3 6 8 10 11 10 2 0 4 -4 4 -10z m-1406 -9 c3 -5 -1 -11 -9 -15
-9 -3 -15 0 -15 9 0 16 16 20 24 6z m1031 0 c3 -5 1 -12 -5 -16 -5 -3 -10 1
-10 9 0 18 6 21 15 7z m592 -17 c-9 -9 -28 6 -21 18 4 6 10 6 17 -1 6 -6 8
-13 4 -17z m541 -39 c-3 -3 -9 2 -12 12 -6 14 -5 15 5 6 7 -7 10 -15 7 -18z
m29 -42 c4 -9 1 -19 -5 -21 -7 -2 -10 -13 -6 -28 4 -15 2 -24 -5 -24 -6 0 -11
19 -11 45 0 45 15 60 27 28z m183 13 c0 -2 -9 -6 -20 -9 -11 -3 -20 -1 -20 4
0 5 9 9 20 9 11 0 20 -2 20 -4z m-120 -15 c0 -6 -4 -13 -10 -16 -5 -3 -10 -16
-11 -28 -1 -20 -2 -20 -9 3 -8 25 -8 25 -10 -5 -2 -26 -3 -27 -7 -7 -3 14 3
32 13 43 18 20 34 25 34 10z m-612 -23 c-3 -22 -33 -34 -44 -16 -6 9 23 37 39
38 5 0 7 -10 5 -22z m711 3 c7 -5 12 -14 10 -20 -3 -7 -11 -3 -21 9 -18 21
-13 26 11 11z m-6739 -51 c0 -5 -5 -10 -11 -10 -5 0 -7 5 -4 10 3 6 8 10 11
10 2 0 4 -4 4 -10z m6235 0 c18 -8 17 -9 -7 -9 -16 -1 -28 4 -28 9 0 12 8 12
35 0z m260 1 c3 -5 1 -12 -5 -16 -6 -4 -8 -11 -4 -16 4 -6 11 -6 20 2 11 9 14
7 14 -15 0 -21 -5 -26 -23 -26 -13 0 -32 9 -41 19 -10 11 -24 17 -32 14 -9 -3
-14 2 -14 16 0 21 19 20 49 -3 11 -8 13 -8 7 2 -8 13 0 32 14 32 5 0 11 -4 15
-9z m-6635 -21 c0 -5 -5 -10 -11 -10 -5 0 -7 5 -4 10 3 6 8 10 11 10 2 0 4 -4
4 -10z m380 -249 c0 -21 -6 -32 -20 -36 -11 -4 -18 -10 -15 -15 3 -5 -3 -14
-14 -19 -10 -6 -22 -22 -25 -36 -7 -28 -22 -32 -52 -11 -13 10 -25 11 -35 5
-24 -15 -41 -11 -34 10 4 14 0 20 -17 25 -33 9 -46 6 -23 -5 15 -7 10 -8 -17
-4 -32 5 -38 3 -36 -12 3 -39 -3 -61 -18 -67 -25 -9 -53 11 -47 34 4 14 0 20
-11 20 -10 0 -14 5 -11 10 3 6 0 10 -8 10 -18 0 -88 68 -92 90 -2 9 -17 32
-35 51 -17 19 -40 51 -51 72 -11 20 -24 37 -29 37 -6 0 -10 5 -10 10 0 14 26
13 50 -2 16 -10 24 -10 39 -1 15 10 20 9 25 -2 3 -8 14 -12 26 -10 12 2 20 -1
20 -10 0 -15 42 -12 117 8 37 10 42 15 45 42 2 16 9 31 16 31 6 1 22 2 33 3
19 1 20 3 8 18 -8 9 39 -36 104 -100 96 -96 117 -122 117 -146z m770 249 c0
-5 -7 -7 -15 -4 -8 4 -15 8 -15 10 0 2 7 4 15 4 8 0 15 -4 15 -10z m5700 -30
c0 -5 -4 -10 -10 -10 -5 0 -10 5 -10 10 0 6 5 10 10 10 6 0 10 -4 10 -10z
m-360 -14 c0 -15 -18 -31 -26 -23 -7 7 7 37 17 37 5 0 9 -6 9 -14z m-6630 -16
c0 -5 -4 -10 -9 -10 -6 0 -13 5 -16 10 -3 6 1 10 9 10 9 0 16 -4 16 -10z
m6844 -33 c-9 -25 -22 -21 -19 6 3 32 4 32 15 21 6 -6 8 -18 4 -27z m35 -9
c-1 -35 -2 -38 -8 -18 -7 23 -4 60 5 60 2 0 4 -19 3 -42z m-6744 22 c3 -5 1
-10 -4 -10 -6 0 -11 5 -11 10 0 6 2 10 4 10 3 0 8 -4 11 -10z m6595 -1 c0 -6
8 -9 18 -7 11 3 19 0 19 -8 0 -8 -11 -12 -29 -11 -19 1 -28 7 -28 20 0 9 5 17
10 17 6 0 10 -5 10 -11z m200 -19 c0 -5 7 -10 15 -10 18 0 20 -30 3 -31 -10 0
-10 -2 0 -6 18 -7 15 -20 -8 -26 -27 -7 -50 18 -50 54 0 22 5 29 20 29 11 0
20 -4 20 -10z m-6340 -40 c0 -13 -1 -13 -10 0 -5 8 -10 22 -10 30 0 13 1 13
10 0 5 -8 10 -22 10 -30z m6300 -70 c0 -5 -2 -10 -4 -10 -3 0 -8 5 -11 10 -3
6 -1 10 4 10 6 0 11 -4 11 -10z m-7390 -126 c0 -8 4 -13 9 -10 5 4 4 -5 -2
-18 -9 -19 -15 -22 -25 -13 -12 9 -11 12 5 18 10 4 12 8 6 8 -15 1 -18 31 -3
31 6 0 10 -7 10 -16z m1065 -4 c3 -6 -1 -7 -9 -4 -18 7 -21 14 -7 14 6 0 13
-4 16 -10z m-1320 -30 c-4 -21 19 -28 30 -10 3 6 10 10 16 10 5 0 9 -4 9 -10
0 -5 -7 -10 -15 -10 -8 0 -15 -8 -16 -17 0 -12 -2 -13 -6 -5 -4 11 -8 10 -22
-2 -15 -14 -18 -13 -28 3 -10 16 -9 18 7 14 14 -4 18 0 16 14 -2 10 -1 21 1
26 8 13 12 7 8 -13z m144 -39 c8 -26 8 -37 -2 -49 -10 -13 -9 -15 5 -9 14 5
19 0 24 -21 3 -15 10 -35 15 -45 5 -10 7 -23 3 -29 -4 -5 -2 -13 3 -17 18 -12
43 -102 33 -120 -6 -10 -10 -11 -10 -3 0 19 -20 14 -20 -5 0 -14 -3 -13 -16 5
-9 13 -13 29 -11 37 4 8 -7 19 -29 30 -19 9 -34 18 -34 20 0 2 -3 11 -7 21 -5
14 -2 13 15 -4 22 -22 69 -31 57 -12 -3 6 -13 10 -21 10 -8 0 -14 6 -14 13 0
7 -13 21 -30 30 -35 21 -38 33 -10 40 27 7 25 27 -2 27 -22 1 -22 1 -5 14 12
10 15 16 7 21 -17 11 -43 -3 -36 -20 7 -18 -3 -45 -16 -45 -6 0 -8 7 -5 15 4
8 1 17 -5 21 -6 4 -8 3 -4 -4 3 -6 2 -13 -3 -16 -5 -4 -12 2 -14 11 -20 73
-17 90 9 56 13 -16 13 -16 8 -1 -4 13 2 18 30 24 26 4 36 11 36 24 0 19 20 32
31 21 4 -3 11 -21 18 -40z m317 -9 c-9 -8 -26 10 -26 26 1 15 2 15 15 -2 8
-11 13 -21 11 -24z m-155 8 c10 0 20 -8 24 -18 3 -11 17 -24 31 -30 34 -16 53
-15 32 1 -23 18 -6 46 19 32 10 -6 27 -11 38 -10 11 0 27 -11 36 -25 20 -33
51 -122 38 -115 -5 4 -9 13 -9 21 0 8 -4 14 -10 14 -14 0 -13 -16 3 -40 16
-27 -2 -39 -50 -35 -42 4 -87 -11 -78 -26 4 -6 13 -8 21 -5 8 3 14 -1 14 -10
0 -11 -9 -14 -37 -11 -34 3 -40 9 -59 48 -39 80 -68 209 -44 194 5 -3 10 -2
10 3 0 17 -13 22 -29 9 -14 -11 -14 -10 -2 6 10 12 17 15 25 7 5 -5 18 -10 27
-10z m3573 12 c3 -5 -1 -9 -9 -9 -8 0 -12 4 -9 9 3 4 7 8 9 8 2 0 6 -4 9 -8z
m66 -28 c22 -15 38 -29 36 -32 -3 -2 -25 -7 -48 -9 -24 -3 -48 -9 -53 -14 -18
-14 -55 -6 -55 11 0 13 11 16 51 16 28 -1 53 2 55 6 3 5 -2 8 -10 8 -10 0 -13
6 -9 18 5 14 3 15 -8 5 -18 -18 -33 -16 -17 2 17 18 12 19 58 -11z m139 0 c2
-2 1 -7 -2 -11 -4 -3 -22 1 -40 10 l-32 16 35 -6 c19 -3 37 -7 39 -9z m-226
-1 c-7 -2 -19 -2 -25 0 -7 3 -2 5 12 5 14 0 19 -2 13 -5z m287 -18 c11 -13 8
-15 -21 -14 -28 1 -30 3 -9 7 23 4 24 5 5 13 -15 6 -16 8 -4 8 9 1 22 -6 29
-14z m-836 -20 c-4 -8 -11 -12 -16 -9 -6 4 -5 10 3 15 19 12 19 11 13 -6z
m1357 -6 c11 -5 17 -14 14 -19 -3 -6 0 -7 8 -4 8 3 14 -1 14 -9 0 -13 -7 -12
-46 1 -57 20 -54 19 -46 31 8 14 31 14 56 0z m-1835 -60 c3 -6 -5 -3 -20 6
-14 10 -26 19 -26 22 0 7 39 -17 46 -28z m286 13 c29 1 58 -17 58 -34 0 -6 -8
-7 -17 -3 -20 8 -19 8 -81 0 -31 -5 -47 -2 -58 10 -15 15 -14 15 11 9 23 -6
27 -4 22 9 -6 16 23 30 33 16 3 -4 17 -7 32 -7z m242 -17 c3 -9 0 -15 -9 -15
-8 0 -15 7 -15 15 0 8 4 15 9 15 5 0 11 -7 15 -15z m-469 -17 c14 -6 25 -15
25 -20 0 -5 4 -7 9 -3 5 3 12 -4 16 -15 3 -11 11 -20 16 -20 6 0 8 -4 5 -9 -3
-4 -25 -11 -49 -14 -23 -3 -50 -9 -59 -12 -12 -5 -17 2 -20 32 -5 39 5 73 22
73 5 0 21 -5 35 -12z m-2960 -19 c-4 -6 2 -13 14 -16 11 -3 18 -9 15 -14 -3
-5 4 -9 15 -9 12 0 21 -7 21 -15 0 -8 4 -15 8 -15 4 0 16 -14 26 -31 18 -31
18 -31 -5 -27 -12 2 -24 -2 -26 -8 -2 -6 7 -9 24 -7 35 5 83 -35 87 -71 4 -32
2 -32 -37 -4 -53 37 -60 46 -39 51 11 3 7 5 -10 6 -30 1 -88 45 -88 67 0 8 -4
14 -10 14 -11 0 -14 73 -3 83 10 11 15 8 8 -4z m3239 1 c10 7 21 8 32 2 13 -7
9 -10 -21 -15 -40 -7 -55 -3 -55 15 0 7 6 6 15 -2 12 -10 18 -10 29 0z m1684
-45 c348 -88 920 -360 1282 -610 41 -29 131 -90 199 -136 222 -150 494 -398
618 -564 174 -231 248 -402 274 -631 38 -342 -106 -768 -339 -1001 -52 -52
-236 -194 -281 -217 -113 -59 -442 -186 -756 -292 -331 -113 -944 -263 -1300
-319 -279 -44 -436 -62 -422 -49 3 3 54 27 114 53 287 124 559 327 774 578
264 306 445 732 489 1146 11 107 15 412 5 439 -2 7 -11 60 -20 117 -30 209
-150 611 -234 787 -55 115 -224 382 -310 489 -31 39 -89 107 -129 153 -40 45
-71 82 -67 82 3 0 50 -11 103 -25z m-2108 -25 c9 -6 10 -10 3 -10 -6 0 -19 -3
-29 -7 -11 -4 -15 -3 -11 4 4 6 1 14 -5 16 -7 3 -4 6 7 6 11 0 27 -4 35 -9z
m-477 -36 c-6 -17 4 -17 79 1 30 8 85 -12 93 -33 7 -19 -52 -41 -95 -35 -19 3
-63 7 -98 10 l-63 5 33 33 c36 36 61 46 51 19z m-2549 -26 c-3 -5 -12 -4 -20
3 -19 16 -18 18 6 12 11 -3 17 -9 14 -15z m34 -26 c6 -18 -15 -14 -22 4 -4 10
-1 14 6 12 6 -2 14 -10 16 -16z m-352 -57 c9 -8 12 -15 8 -15 -5 0 10 -18 31
-40 29 -30 36 -43 27 -49 -10 -6 -10 -10 3 -21 8 -7 15 -9 15 -4 0 5 12 -4 26
-19 30 -33 25 -45 -12 -28 -26 12 -44 8 -44 -10 0 -6 4 -8 8 -5 5 3 16 -8 26
-25 l17 -29 -26 12 c-14 6 -35 26 -46 45 -11 18 -25 33 -30 33 -5 0 -14 11
-19 25 -5 14 -14 25 -19 25 -5 0 -11 9 -14 20 -3 11 -11 20 -19 20 -16 0 -40
48 -27 56 5 3 18 3 28 -1 10 -3 24 1 31 10 15 19 18 19 36 0z m2755 8 c28 -5
30 -8 14 -13 -11 -4 -26 -2 -34 4 -12 8 -13 8 -7 -2 6 -10 -6 -12 -54 -11 -33
1 -64 7 -67 12 -4 6 0 8 9 5 8 -4 21 -2 29 3 17 10 64 12 110 2z m3396 -28 c0
-8 -4 -12 -9 -9 -5 3 -6 10 -3 15 9 13 12 11 12 -6z m-6347 -49 c0 -11 -19
-15 -25 -6 -3 5 1 10 9 10 9 0 16 -2 16 -4z m-33 -21 c4 -4 3 -5 -4 -1 -7 4
-17 -2 -23 -14 -7 -13 -7 -20 0 -20 5 0 10 4 10 9 0 17 60 18 78 2 40 -37 45
-50 31 -68 -13 -16 -12 -17 2 -5 14 11 21 8 43 -20 14 -18 33 -40 42 -50 12
-13 13 -21 5 -37 -6 -11 -11 -24 -10 -28 3 -21 -2 -24 -18 -12 -10 9 -14 9
-10 2 11 -17 -26 -36 -41 -21 -7 7 -12 16 -12 20 0 14 -38 47 -46 40 -4 -4 -5
0 -1 9 3 11 0 16 -10 15 -9 0 -17 8 -19 19 -1 11 -9 24 -16 30 -7 6 -20 23
-28 39 -9 18 -24 30 -37 31 -13 1 -26 5 -30 10 -5 4 1 5 12 1 16 -4 25 1 38
23 9 15 14 31 11 34 -3 3 1 4 10 3 8 -1 19 -6 23 -11z m2593 -17 c0 -4 -13 -7
-30 -6 -16 1 -30 5 -30 9 0 4 14 7 30 7 17 -1 30 -5 30 -10z m4255 -30 c5 4 5
2 2 -4 -4 -7 0 -17 9 -24 11 -10 12 -15 3 -20 -8 -6 -8 -9 0 -14 6 -4 11 -2
11 3 0 6 14 9 33 7 29 -3 32 -6 34 -40 1 -42 -5 -44 -55 -13 -28 18 -44 22
-65 16 -16 -4 -25 -4 -21 2 3 5 -3 9 -12 9 -16 0 -16 1 2 15 11 8 14 15 7 15
-7 0 -13 9 -13 20 0 23 30 42 46 29 6 -5 15 -5 19 -1z m-4272 -140 c-4 -7 -56
-85 -114 -173 -125 -188 -229 -389 -294 -570 -44 -122 -87 -275 -99 -355 -3
-19 -12 -78 -21 -130 -32 -192 -35 -521 -5 -667 75 -368 363 -846 656 -1090
233 -194 494 -343 704 -402 l105 -30 -60 0 c-61 -1 -568 34 -660 44 -27 4
-133 17 -235 31 -581 78 -605 83 -979 206 -167 55 -279 99 -591 231 -195 83
-537 287 -629 375 -35 33 -41 48 -66 152 -51 206 -42 548 17 666 42 84 212
276 450 506 386 375 798 697 1148 897 154 89 443 231 529 261 36 12 83 31 105
41 49 22 49 22 39 7z m4527 -40 c0 -5 -3 -8 -7 -9 -5 0 -18 -2 -30 -3 -13 -2
-26 -6 -30 -11 -5 -4 2 -5 13 -1 14 4 28 1 37 -9 9 -8 18 -11 21 -6 4 5 0 12
-6 14 -7 3 -3 6 9 6 12 1 34 -12 50 -27 34 -34 62 -46 77 -33 7 6 22 0 43 -19
25 -22 29 -31 19 -39 -7 -6 -16 -8 -20 -4 -4 4 -4 -1 0 -11 5 -14 3 -17 -7
-14 -8 3 -20 -2 -26 -11 -12 -15 -14 -15 -25 0 -7 8 -21 18 -31 22 -10 4 -16
11 -12 16 7 12 -32 34 -45 26 -6 -3 -10 0 -10 8 0 7 -16 20 -36 27 -20 8 -31
16 -25 18 5 2 7 10 4 18 -3 7 -9 11 -14 8 -5 -3 -17 0 -26 5 -17 10 -16 11 5
17 12 3 22 10 22 14 0 4 11 7 25 6 14 0 25 -4 25 -8z m-6890 -7 c0 -6 -4 -12
-8 -15 -5 -3 -9 1 -9 9 0 8 4 15 9 15 4 0 8 -4 8 -9z m47 -71 c0 -24 -3 -27
-14 -19 -10 9 -13 8 -13 -1 0 -8 -3 -10 -6 -7 -4 4 -1 13 6 22 7 8 10 21 7 29
-4 10 -1 13 7 10 7 -3 13 -18 13 -34z m-607 -18 c0 -15 -2 -15 -10 -2 -13 20
-13 33 0 25 6 -3 10 -14 10 -23z m636 5 c1 -9 -2 -17 -7 -17 -5 0 -9 2 -9 4 0
2 -3 12 -7 22 -4 11 -2 15 7 12 7 -2 14 -12 16 -21z m-696 -9 c0 -11 -12 -10
-30 2 -12 7 -10 9 8 7 12 0 22 -5 22 -9z m30 -65 c13 -27 31 -56 39 -66 8 -9
12 -20 8 -23 -3 -3 6 -16 19 -28 18 -15 23 -26 18 -40 -7 -18 -8 -18 -22 0
-13 17 -13 16 -7 -15 5 -23 4 -31 -4 -27 -14 9 -14 0 0 -26 9 -16 8 -19 -2
-13 -9 6 -11 2 -7 -13 4 -15 2 -19 -8 -15 -8 3 -14 9 -14 13 0 5 -19 10 -42
12 -38 3 -43 6 -43 28 0 21 -8 28 -45 41 -54 19 -58 38 -10 54 20 7 29 14 21
16 -9 3 -3 10 17 18 40 17 40 25 1 41 l-31 13 27 14 c14 8 24 20 22 26 -2 7 6
17 17 23 12 7 21 12 22 13 0 1 11 -20 24 -46z m2395 37 c-3 -5 -12 -10 -18
-10 -7 0 -6 4 3 10 19 12 23 12 15 0z m-2140 -30 c3 -5 1 -10 -4 -10 -6 0 -11
5 -11 10 0 6 2 10 4 10 3 0 8 -4 11 -10z m-375 -24 c0 -14 -29 -31 -38 -22 -2
3 -2 12 1 21 8 19 37 20 37 1z m233 -6 c22 -26 22 -42 0 -38 -12 3 -17 12 -16
26 2 14 -1 21 -7 17 -6 -3 -10 -1 -10 4 0 17 14 13 33 -9z m177 -15 c10 -12 9
-15 -4 -15 -10 0 -15 4 -12 9 4 5 0 12 -6 14 -8 4 -9 6 -2 6 6 1 17 -6 24 -14z
m7400 1 c0 -3 -4 -8 -10 -11 -5 -3 -10 -1 -10 4 0 6 5 11 10 11 6 0 10 -2 10
-4z m-7898 -44 c-7 -2 -12 -8 -12 -14 0 -6 6 -8 13 -5 9 3 11 -7 8 -39 -2 -35
-7 -44 -22 -44 -15 0 -19 7 -19 34 0 47 17 89 32 80 9 -6 9 -9 0 -12z m2428
14 c0 -9 -30 -14 -35 -6 -4 6 3 10 14 10 12 0 21 -2 21 -4z m-2080 -37 c15
-28 5 -23 -15 7 -9 15 -12 23 -6 20 6 -4 16 -16 21 -27z m2040 15 c0 -5 -127
-87 -160 -103 -24 -11 -24 -11 -6 3 11 9 24 16 29 16 4 0 6 4 3 8 -3 5 15 19
40 31 25 13 50 31 56 41 10 15 38 18 38 4z m-1839 -11 c13 -16 12 -17 -3 -4
-10 7 -18 15 -18 17 0 8 8 3 21 -13z m7453 -29 c3 -8 2 -12 -4 -9 -6 3 -10 10
-10 16 0 14 7 11 14 -7z m69 -43 c14 -17 28 -27 31 -24 3 4 6 1 6 -6 0 -7 4
-10 8 -7 4 2 13 -4 20 -14 22 -36 -6 -30 -49 10 -24 22 -47 40 -51 40 -4 0 -8
7 -8 15 0 23 16 18 43 -14z m97 -53 c0 -4 8 -8 18 -8 9 0 23 -13 30 -30 8 -16
18 -28 25 -27 6 1 13 -6 15 -15 5 -27 -14 -21 -35 10 -11 17 -27 27 -42 27
-13 0 -26 6 -29 14 -3 9 0 11 9 5 12 -7 12 -5 0 9 -7 9 -10 17 -7 17 4 0 2 10
-4 23 -11 21 -10 21 4 3 9 -11 16 -23 16 -28z m3234 -46 c28 -21 84 -59 124
-86 39 -26 72 -54 72 -61 0 -24 -62 -198 -112 -315 -142 -333 -389 -675 -593
-822 -116 -83 -240 -124 -332 -111 l-32 5 47 72 c76 114 152 252 152 276 0 34
-22 12 -77 -79 -79 -129 -155 -241 -164 -241 -38 0 -40 165 -3 281 59 187 201
443 367 663 73 95 230 260 287 301 24 17 63 48 89 71 64 56 102 84 114 84 6 0
33 -17 61 -38z m-11554 -11 c3 -4 13 -10 23 -14 22 -8 20 -52 -3 -52 -8 0 -19
-4 -23 -10 -5 -6 -6 -2 -3 8 3 11 0 20 -9 23 -8 4 -15 10 -15 15 0 4 7 5 17 2
11 -4 14 -3 9 5 -4 7 -14 12 -22 12 -8 0 -14 5 -14 10 0 6 -4 10 -10 10 -5 0
-7 -8 -4 -17 5 -15 4 -16 -5 -3 -6 8 -11 19 -11 23 0 10 62 -2 70 -12z m339 9
c6 8 12 12 15 10 2 -3 -2 -14 -10 -25 -13 -17 -16 -18 -24 -5 -5 8 -10 20 -10
25 0 6 5 3 10 -5 9 -13 11 -13 19 0z m8241 -254 c129 -94 333 -246 452 -339
380 -294 525 -386 749 -478 68 -28 130 -53 137 -56 31 -13 1 -371 -36 -440
-15 -26 -46 -37 -187 -62 -135 -24 -222 -47 -435 -111 -91 -28 -190 -57 -220
-66 -86 -25 -335 -139 -445 -203 -55 -32 -101 -57 -103 -56 -2 2 23 36 55 77
151 186 257 435 294 688 17 116 6 342 -20 444 -62 236 -222 488 -456 720 -140
139 -137 137 215 -118z m-112 167 c15 -15 29 -27 32 -27 12 2 67 -41 85 -65
17 -22 11 -20 -35 13 -72 52 -133 106 -120 106 6 0 23 -12 38 -27z m-8408 0
c0 -15 2 -16 10 -3 7 11 10 8 9 -15 0 -16 -3 -24 -6 -17 -3 9 -9 10 -17 2 -10
-7 -13 -3 -14 20 0 17 4 30 9 30 5 0 9 -8 9 -17z m97 -59 c-3 -3 -12 -4 -19
-1 -8 3 -5 6 6 6 11 1 17 -2 13 -5z m1883 -19 c-14 -7 -28 -11 -32 -9 -5 3 -8
0 -8 -7 0 -7 -3 -9 -6 -6 -12 12 14 32 42 34 l29 1 -25 -13z m-271 -186 c-12
-10 -29 -19 -38 -19 -11 1 -9 4 7 13 12 7 20 15 18 18 -3 3 4 6 15 6 20 2 20
1 -2 -18z m-81 -33 c-7 -8 -15 -12 -17 -11 -5 6 10 25 20 25 5 0 4 -6 -3 -14z
m1692 -146 c19 -6 108 -21 198 -34 142 -21 165 -27 182 -48 30 -35 33 -60 16
-140 -24 -112 -45 -262 -52 -386 -5 -81 -11 -116 -22 -124 -10 -9 -43 -12 -96
-10 -120 3 -119 3 -112 70 18 153 50 349 76 457 28 119 27 157 -4 125 -29 -31
-79 -254 -112 -498 -7 -56 -16 -107 -19 -112 -11 -17 -62 -11 -132 15 -37 14
-68 27 -70 29 -16 16 88 666 107 666 3 0 21 -5 40 -10z m3081 -229 c15 -146 7
-464 -16 -586 -49 -272 -55 -294 -86 -314 -22 -13 -415 -38 -426 -27 -3 3 22
45 55 93 205 293 309 504 392 794 23 79 44 150 46 158 11 33 24 -11 35 -118z
m3714 -509 c33 -20 62 -37 63 -38 10 -7 -16 -29 -33 -29 -16 0 -22 -9 -28 -50
-5 -27 -13 -60 -18 -73 -8 -21 -11 -22 -25 -8 -17 17 -28 21 -20 7 5 -8 -26
-27 -31 -19 -1 2 -9 -6 -17 -17 -14 -19 -15 -19 -29 -1 -15 20 -67 31 -67 13
0 -5 -3 -8 -6 -5 -8 8 18 158 27 158 4 0 10 -8 12 -17 3 -11 5 -6 6 11 1 19
-3 27 -12 23 -10 -4 -13 13 -13 73 l0 78 65 -36 c36 -19 93 -51 126 -70z
m-6850 3 c49 -19 92 -40 97 -47 4 -7 8 -110 9 -228 1 -259 6 -305 34 -305 17
0 20 6 18 40 -1 22 -2 136 -3 254 -1 167 2 216 12 222 7 5 54 9 104 9 55 0 95
5 102 12 8 8 11 -43 12 -215 0 -124 3 -233 6 -242 5 -12 -10 -33 -47 -71 -53
-54 -55 -55 -99 -49 -73 10 -184 43 -259 76 l-69 31 -6 51 c-17 153 -18 497
-2 497 1 0 42 -16 91 -35z m7259 -119 c10 -15 38 -37 64 -48 40 -18 54 -19
125 -11 l79 9 -38 -30 c-163 -127 -272 -275 -325 -437 -50 -154 -48 -184 55
-801 35 -214 37 -306 6 -418 -34 -124 -129 -244 -237 -296 -46 -23 -62 -26
-115 -21 -51 4 -66 10 -94 38 -48 46 -58 86 -51 198 8 131 66 327 186 636 57
144 103 372 136 670 29 257 74 457 138 598 l31 70 11 -65 c6 -35 19 -77 29
-92z m-9620 -8 c-14 -113 -11 -375 5 -433 20 -76 29 -155 18 -155 -6 0 -34 24
-62 53 -43 42 -57 65 -75 122 -27 85 -38 245 -21 298 18 55 108 187 127 187
15 0 16 -8 8 -72z m9339 42 l39 -29 -30 -15 c-27 -14 -31 -14 -46 3 -16 18
-23 71 -8 71 4 0 24 -14 45 -30z m-177 -157 c-27 -16 -36 -16 -36 -2 0 20 32
38 46 25 9 -8 7 -14 -10 -23z m-111 7 c3 -5 -1 -10 -10 -10 -9 0 -13 5 -10 10
3 6 8 10 10 10 2 0 7 -4 10 -10z m-45 -21 c0 -6 -4 -7 -10 -4 -5 3 -10 11 -10
16 0 6 5 7 10 4 6 -3 10 -11 10 -16z m-6240 -354 c0 -21 -5 -25 -32 -25 l-31
0 23 25 c13 14 27 25 32 25 4 0 8 -11 8 -25z m-2791 -139 c-3 -3 -11 5 -18 17
-13 21 -12 21 5 5 10 -10 16 -20 13 -22z m16 -36 c3 -5 -1 -10 -10 -10 -9 0
-13 5 -10 10 3 6 8 10 10 10 2 0 7 -4 10 -10z m31 -56 c-8 -29 10 -32 19 -4 7
22 9 23 43 13 16 -4 22 -11 19 -23 -2 -10 2 -17 10 -17 8 0 12 6 8 16 -5 12
-3 13 6 4 6 -6 8 -16 5 -22 -8 -12 -66 -10 -66 2 0 5 -4 6 -10 2 -5 -3 -7 -12
-3 -20 3 -8 0 -15 -7 -15 -10 0 -10 -3 0 -15 9 -11 10 -18 1 -28 -6 -8 -7 -17
-3 -22 6 -6 -37 3 -45 9 -2 2 -4 19 -5 39 -3 36 -21 50 -31 25 -4 -10 -7 -10
-18 0 -10 9 -10 12 -1 12 7 0 12 8 10 18 -2 13 3 17 25 15 23 -1 27 2 27 23 0
16 4 23 11 18 6 -3 8 -17 5 -30z m-95 11 c0 -13 -41 -19 -41 -7 0 11 20 22 33
18 5 -1 8 -6 8 -11z m-43 -35 c7 -11 10 -20 7 -20 -3 0 -15 9 -27 20 -16 14
-18 20 -7 20 8 0 20 -9 27 -20z m82 -89 c0 -3 -4 -12 -9 -20 -8 -12 -12 -12
-25 2 -23 23 -20 35 9 29 14 -2 25 -7 25 -11z m136 -5 c17 -17 18 -36 3 -36
-5 0 -7 -4 -4 -10 3 -5 -1 -10 -9 -10 -16 0 -18 4 -18 40 0 36 5 39 28 16z
m51 -42 c-3 -3 -12 -4 -19 -1 -8 3 -5 6 6 6 11 1 17 -2 13 -5z m333 -118 c-5
-5 -15 -2 -24 7 -23 22 -20 27 8 14 15 -7 21 -16 16 -21z m-60 3 c0 -5 -10 -9
-21 -9 -18 0 -19 2 -9 15 12 15 30 12 30 -6z m110 -13 c0 -3 -4 -8 -10 -11 -5
-3 -10 -1 -10 4 0 6 5 11 10 11 6 0 10 -2 10 -4z m170 -71 c25 -14 50 -25 57
-25 7 0 13 -5 13 -12 0 -6 3 -8 6 -5 9 8 44 -11 44 -23 0 -6 -12 -10 -26 -10
-14 0 -23 4 -20 8 3 5 -9 16 -26 26 -25 15 -32 16 -40 5 -8 -11 -9 -11 -5 2 5
17 -45 45 -63 34 -5 -3 -10 -2 -10 4 0 5 6 12 13 15 6 3 0 3 -15 0 -18 -4 -28
-2 -28 6 0 6 -4 8 -10 5 -5 -3 -10 1 -10 9 0 9 -4 16 -10 16 -5 0 -10 5 -10
10 0 10 37 -7 140 -65z m-210 35 c0 -5 -4 -10 -10 -10 -5 0 -10 5 -10 10 0 6
5 10 10 10 6 0 10 -4 10 -10z m6507 -12 c-3 -8 -6 -5 -6 6 -1 11 2 17 5 13 3
-3 4 -12 1 -19z m-32 -8 c-3 -5 -13 -10 -21 -10 -8 0 -14 -5 -14 -11 0 -16
-63 -38 -110 -37 l-43 0 43 20 c24 11 53 21 65 22 11 2 30 8 41 14 24 14 47
15 39 2z m-228 -67 c-4 -3 -2 -12 4 -20 9 -10 7 -13 -9 -13 -28 0 -36 16 -15
29 21 12 29 14 20 4z m-65 -25 c-7 -7 -12 -20 -12 -30 0 -11 -7 -18 -19 -18
-11 0 -23 -9 -26 -20 -9 -28 -20 -25 -43 11 -15 24 -20 27 -25 15 -4 -9 -2
-16 4 -16 6 0 9 -5 7 -11 -5 -16 -59 -21 -75 -7 -10 8 -12 7 -8 -3 2 -8 1 -20
-4 -28 -10 -16 -69 -22 -94 -9 -12 6 -28 6 -46 0 -29 -10 -63 0 -42 12 6 4 15
5 20 2 5 -3 11 0 14 8 7 19 104 46 144 41 21 -2 40 3 55 14 26 21 87 40 106
34 6 -3 12 0 12 6 0 6 10 11 22 11 17 0 19 -3 10 -12z m-5683 -75 c-8 -9 -9
-14 -3 -10 7 4 19 -4 28 -18 15 -23 15 -26 1 -32 -18 -6 -65 15 -65 30 0 9 38
47 48 47 2 0 -2 -8 -9 -17z m-32 -69 c-1 -1 -14 0 -29 3 -24 5 -26 8 -17 26
11 20 12 20 30 -4 9 -13 17 -24 16 -25z m332 -16 c52 -17 90 -33 84 -36 -14
-10 -26 -44 -24 -64 3 -23 -37 -25 -45 -3 -4 8 -16 15 -29 15 -12 0 -29 10
-37 22 -12 17 -23 22 -53 20 -29 -2 -36 0 -32 11 4 11 0 13 -15 9 -14 -3 -19
-1 -14 6 5 8 0 12 -13 12 -12 0 -21 7 -21 16 0 11 -6 14 -20 9 -27 -9 -25 9 3
23 39 19 51 20 87 5 19 -9 77 -29 129 -45z m4891 22 c0 -5 -6 -10 -12 -10 -9
0 -8 -4 2 -10 12 -8 11 -10 -5 -10 -14 0 -25 -10 -32 -30 -12 -33 -34 -42 -26
-10 7 27 -6 25 -16 -2 -5 -14 -5 -26 2 -30 5 -3 -13 -6 -40 -6 -33 -1 -69 -10
-102 -25 -31 -16 -73 -26 -108 -28 -32 -2 -64 -8 -71 -13 -8 -5 -41 -11 -75
-13 -34 -1 -81 -4 -104 -6 -42 -4 -57 5 -28 17 8 3 15 13 15 21 0 9 5 13 10
10 6 -4 16 -2 23 3 7 6 41 15 77 22 36 7 80 19 98 27 18 8 40 12 47 9 8 -3 15
-1 17 3 2 5 14 12 27 16 17 5 21 4 16 -5 -6 -9 -3 -9 13 -1 11 6 34 11 49 11
16 0 34 5 41 12 15 15 80 37 87 30 3 -3 14 -6 24 -7 13 -1 17 3 13 13 -4 11
-1 14 11 9 9 -3 19 -2 22 3 8 13 25 13 25 0z m-4765 -70 c4 -6 9 -8 13 -6 4 2
13 -2 20 -10 8 -9 9 -14 2 -14 -7 0 -4 -7 4 -16 29 -29 9 -62 -29 -48 -16 7
-18 19 -5 49 6 15 2 24 -14 37 -11 10 -16 18 -9 18 6 0 15 -5 18 -10z m139
-39 c49 -18 50 -39 1 -27 -13 3 -27 2 -30 -4 -10 -16 -54 19 -52 41 1 21 2 21
81 -10z m4006 -51 c8 -5 11 -10 5 -10 -5 0 -17 5 -25 10 -8 5 -10 10 -5 10 6
0 17 -5 25 -10z m-46 -8 c2 -4 -5 -9 -17 -9 -17 -2 -19 0 -7 7 18 12 18 12 24
2z m-3789 -11 c3 -5 1 -12 -5 -16 -5 -3 -10 1 -10 9 0 18 6 21 15 7z m3709
-23 c-136 -13 -216 -16 -208 -9 14 13 152 32 178 25 13 -3 27 -1 30 4 4 7 17
6 37 -1 30 -12 28 -12 -37 -19z m-3534 2 c0 -14 5 -18 17 -13 11 4 12 8 5 11
-19 6 -14 21 6 17 9 -2 58 -11 108 -21 92 -17 92 -17 87 -45 -2 -16 1 -37 7
-48 9 -17 15 -19 36 -10 22 8 25 7 20 -7 -3 -8 -6 -20 -6 -25 0 -9 -44 -2 -65
10 -5 3 -17 6 -25 6 -8 0 -21 12 -28 28 -7 15 -21 27 -30 27 -15 0 -15 2 -2
10 12 8 10 10 -9 10 -13 0 -21 -3 -18 -6 10 -10 -33 -44 -54 -44 -10 0 -20 4
-23 9 -3 5 -22 12 -41 15 -26 5 -35 12 -33 23 2 12 -8 19 -34 26 -43 10 -53
32 -10 23 15 -3 38 0 52 8 35 19 40 19 40 -4z m310 -50 c14 -4 18 -8 11 -9
-12 -1 -12 -4 -3 -13 21 -21 13 -27 -18 -16 -24 8 -28 13 -20 23 9 10 6 14
-12 18 -18 3 -19 4 -3 5 11 0 31 -4 45 -8z m120 1 c0 -16 -27 -31 -44 -25 -13
5 -14 9 -5 20 13 15 49 19 49 5z m127 -17 c-3 -3 -12 -4 -19 -1 -8 3 -5 6 6 6
11 1 17 -2 13 -5z m-97 -27 c0 -13 5 -28 12 -35 6 -6 8 -15 4 -19 -11 -12 -44
38 -39 58 7 27 23 24 23 -4z m184 8 c-4 -8 -10 -15 -15 -15 -5 0 -9 7 -9 15 0
8 7 15 15 15 9 0 12 -6 9 -15z m-44 -10 c0 -8 -7 -15 -15 -15 -16 0 -20 12 -8
23 11 12 23 8 23 -8z m164 6 c6 -9 -94 -22 -108 -14 -4 3 -2 9 5 14 18 11 96
11 103 0z m225 -27 c-23 -14 -23 -14 11 -8 84 14 127 9 141 -17 7 -13 7 -19 1
-15 -6 3 -14 2 -17 -4 -5 -8 -11 -8 -21 0 -7 7 -19 10 -26 7 -8 -3 -6 -6 5 -6
10 -1 15 -6 11 -12 -3 -6 -15 -9 -25 -6 -10 3 -20 0 -23 -7 -3 -6 -5 -4 -5 4
1 8 1 21 0 28 -1 17 -59 15 -78 -3 -8 -8 -19 -12 -25 -9 -6 4 -5 10 3 15 11 7
11 9 -1 9 -13 0 -13 1 0 11 11 8 6 9 -22 7 -34 -4 -36 -2 -21 12 12 10 31 14
67 11 48 -3 49 -4 25 -17z m1739 9 c-16 -2 -40 -2 -55 0 -16 2 -3 4 27 4 30 0
43 -2 28 -4z m-174 -12 c4 -5 -3 -7 -14 -4 -23 6 -26 13 -6 13 8 0 17 -4 20
-9z m49 2 c-7 -2 -19 -2 -25 0 -7 3 -2 5 12 5 14 0 19 -2 13 -5z m-2003 -7 c0
-3 -4 -8 -10 -11 -5 -3 -10 -1 -10 4 0 6 5 11 10 11 6 0 10 -2 10 -4z m45 -6
c3 -5 -1 -10 -9 -10 -9 0 -16 5 -16 10 0 6 4 10 9 10 6 0 13 -4 16 -10z m630
-27 c-11 -10 -19 -12 -23 -6 -4 5 -14 13 -22 16 -8 3 2 6 23 6 36 1 37 0 22
-16z m568 -30 c-7 -2 -19 -2 -25 0 -7 3 -2 5 12 5 14 0 19 -2 13 -5z m107 -3
c20 -6 21 -8 5 -8 -11 0 -31 4 -45 8 -20 6 -21 8 -5 8 11 0 31 -4 45 -8z m57
-6 c-3 -3 -12 -4 -19 -1 -8 3 -5 6 6 6 11 1 17 -2 13 -5z m-2680 -289 c12 -19
18 -37 12 -40 -5 -4 -9 -2 -9 3 0 5 -9 12 -19 15 -15 4 -18 11 -14 27 5 18 3
21 -7 15 -9 -5 -11 -4 -6 3 11 18 19 14 43 -23z m4863 21 c0 -2 -7 -7 -16 -10
-8 -3 -12 -2 -9 4 6 10 25 14 25 6z m-4565 -35 c-6 -5 -25 10 -25 20 0 5 6 4
14 -3 8 -7 12 -15 11 -17z m4639 14 c-4 -8 -11 -12 -16 -9 -6 4 -5 10 3 15 19
12 19 11 13 -6z m-4727 -40 c-7 -16 -37 -21 -37 -5 0 10 32 31 39 25 2 -2 1
-11 -2 -20z m4303 -8 c18 -2 40 -36 33 -53 -7 -18 -62 -35 -81 -25 -13 7 -12
10 7 21 12 6 29 9 36 6 7 -2 15 4 18 14 3 13 0 17 -9 13 -14 -5 -84 23 -84 34
0 3 15 2 33 -2 17 -4 39 -8 47 -8z m310 9 c0 -3 -4 -8 -10 -11 -5 -3 -10 -1
-10 4 0 6 5 11 10 11 6 0 10 -2 10 -4z m-426 -28 c-3 -4 -12 -8 -20 -8 -8 0
-14 4 -14 8 0 4 9 8 19 8 11 0 17 -4 15 -8z m56 -18 c12 -8 9 -10 -12 -10 -16
0 -28 5 -28 10 0 13 20 13 40 0z m-90 -14 c0 -8 -9 -18 -20 -21 -11 -3 -20
-11 -20 -16 0 -5 -7 -9 -15 -9 -21 0 -19 12 5 38 24 25 50 29 50 8z m-3300
-26 c0 -14 -6 -20 -22 -19 -13 0 -17 3 -10 6 6 2 12 11 12 19 0 8 5 14 10 14
6 0 10 -9 10 -20z m3125 -10 c3 -5 -1 -10 -10 -10 -9 0 -13 5 -10 10 3 6 8 10
10 10 2 0 7 -4 10 -10z m-905 -14 c0 -3 -4 -8 -10 -11 -5 -3 -10 -1 -10 4 0 6
5 11 10 11 6 0 10 -2 10 -4z m203 -10 c3 -7 -1 -26 -9 -41 -8 -15 -14 -33 -14
-40 0 -7 -6 -15 -13 -18 -17 -6 -52 19 -38 28 6 3 11 14 10 23 0 12 -3 11 -9
-6 -8 -18 -15 -21 -35 -16 -15 4 -25 2 -25 -5 0 -6 -13 -11 -29 -11 -16 0 -32
-6 -34 -12 -3 -8 -6 -6 -6 5 -1 27 -21 20 -21 -7 0 -23 -5 -25 -62 -31 -68 -7
-179 -2 -197 9 -6 4 -9 12 -5 17 3 5 10 7 15 4 5 -4 9 12 9 34 l0 41 53 2 c28
0 59 0 67 -1 8 -1 47 -1 85 1 39 1 96 3 128 3 46 0 58 4 63 18 7 21 59 24 67
3z m377 4 c0 -5 -2 -10 -4 -10 -3 0 -8 5 -11 10 -3 6 -1 10 4 10 6 0 11 -4 11
-10z m-150 -14 c0 -8 -4 -18 -10 -21 -5 -3 -10 3 -10 14 0 12 5 21 10 21 6 0
10 -6 10 -14z m510 0 c0 -3 -4 -8 -10 -11 -5 -3 -10 -1 -10 4 0 6 5 11 10 11
6 0 10 -2 10 -4z m-33 -12 c-3 -3 -12 -4 -19 -1 -8 3 -5 6 6 6 11 1 17 -2 13
-5z m-1743 -35 c-6 -11 -24 -2 -24 11 0 5 7 7 15 4 8 -4 12 -10 9 -15z m1419
8 c23 -2 22 -13 -2 -20 -10 -2 -29 4 -42 15 l-24 20 25 -7 c14 -4 33 -7 43 -8z
m-1540 -22 c-17 -13 -17 -14 6 -23 24 -8 24 -9 3 -14 -13 -4 -23 0 -26 9 -4 8
-12 13 -19 10 -7 -3 -13 3 -13 12 0 13 9 17 34 18 30 1 31 0 15 -12z m77 -5
c0 -5 -2 -10 -4 -10 -3 0 -8 5 -11 10 -3 6 -1 10 4 10 6 0 11 -4 11 -10z
m1220 0 c0 -5 -7 -10 -15 -10 -8 0 -15 5 -15 10 0 6 7 10 15 10 8 0 15 -4 15
-10z m-1253 -32 c-3 -8 -6 -5 -6 6 -1 11 2 17 5 13 3 -3 4 -12 1 -19z m223 7
c4 3 7 -6 6 -20 -1 -26 -16 -36 -16 -11 0 8 -2 20 -3 28 -2 7 -2 10 0 5 3 -4
8 -5 13 -2z m813 -12 c-13 -2 -33 -2 -45 0 -13 2 -3 4 22 4 25 0 35 -2 23 -4z
m2122 -44 c10 -14 1 -21 -19 -13 -9 3 -13 10 -10 15 7 12 21 11 29 -2z m-65
-814 c41 -9 109 -28 150 -41 79 -26 478 -220 520 -254 l25 -20 -70 6 c-148 13
-227 -41 -256 -175 -10 -47 -1 -153 17 -213 5 -15 -1 -18 -38 -18 -175 0 -463
-153 -650 -346 -106 -110 -229 -266 -226 -289 6 -40 37 -18 119 85 108 136
205 232 310 310 181 136 453 229 501 173 8 -10 27 -52 43 -93 205 -546 855
-1346 1469 -1808 112 -85 318 -206 409 -241 193 -73 282 -73 356 2 111 111
108 209 -14 551 -37 104 -146 312 -225 433 l-48 71 30 29 c16 15 27 21 23 12
-4 -10 30 -72 93 -170 127 -199 186 -304 262 -464 218 -458 336 -876 316
-1112 -10 -128 -63 -342 -107 -442 -74 -163 -247 -338 -574 -581 -388 -288
-1134 -765 -1565 -1000 -63 -34 -214 -117 -335 -183 -429 -234 -1242 -646
-1665 -844 -305 -143 -621 -283 -637 -283 -51 0 -288 120 -508 258 -434 271
-794 627 -1098 1087 -113 172 -137 431 -55 609 39 84 23 64 409 502 676 770
679 773 679 801 0 56 -78 -25 -520 -537 -107 -124 -275 -316 -375 -428 -181
-204 -236 -282 -270 -387 -23 -71 -35 -195 -26 -257 5 -29 7 -55 6 -57 -2 -2
-38 66 -81 150 -152 305 -222 516 -231 704 -3 67 -1 126 6 151 11 41 107 194
295 471 56 83 109 165 116 182 7 17 16 31 21 31 4 0 18 20 30 45 12 25 26 45
31 45 4 0 8 5 8 12 0 6 38 69 85 139 46 71 135 211 196 311 62 101 187 298
280 438 92 140 240 377 329 525 296 491 541 850 914 1340 381 499 647 704
1012 780 94 19 409 13 514 -10z m-2963 -6175 c5 0 20 -12 34 -26 l24 -27 -26
17 c-14 9 -29 14 -32 11 -4 -3 -5 -2 -2 2 3 3 -9 15 -26 25 -18 11 -27 23 -23
30 5 8 13 4 25 -10 9 -12 21 -22 26 -22z m97 -90 c18 -18 19 -20 3 -20 -9 0
-17 5 -17 11 0 5 -5 7 -10 4 -6 -4 -8 -10 -5 -15 3 -4 -2 -7 -11 -6 -10 2 -18
13 -20 29 -2 21 1 25 19 21 12 -2 30 -13 41 -24z m91 -80 c30 -27 49 -50 41
-50 -8 0 -16 7 -20 15 -3 8 -9 15 -13 14 -19 -3 -47 3 -35 8 6 2 12 9 12 14 0
6 -5 7 -10 4 -6 -4 -9 -1 -8 7 2 7 -3 12 -9 11 -7 -2 -13 2 -13 8 0 5 -5 7
-12 3 -7 -4 -8 -3 -4 4 10 17 10 17 71 -38z m83 -78 c5 -16 -9 -14 -33 4 -19
14 -19 14 5 11 13 -2 26 -9 28 -15z m72 -70 c-14 -5 -2 -22 16 -22 8 0 12 5 9
10 -3 6 -3 10 0 10 9 0 118 -85 134 -104 7 -9 17 -13 22 -10 5 3 9 0 9 -5 0
-6 4 -11 9 -11 5 0 61 -33 125 -74 104 -67 113 -74 88 -79 -15 -3 -30 -1 -33
4 -3 5 -20 11 -37 12 -24 1 -32 7 -33 22 0 11 -3 14 -6 8 -7 -19 -21 -15 -28
8 -4 11 -9 18 -12 15 -3 -3 -12 1 -20 9 -8 8 -23 15 -34 15 -34 0 -61 19 -54
40 4 13 -1 21 -22 28 -17 7 -21 11 -10 11 21 1 23 21 1 21 -8 0 -12 4 -9 10 3
6 -1 7 -10 4 -12 -5 -13 -9 -4 -20 6 -8 8 -14 3 -14 -5 0 2 -9 16 -20 19 -15
21 -20 9 -20 -9 0 -31 14 -49 30 -33 30 -46 38 -35 20 7 -11 -8 -14 -18 -4
-12 12 14 46 31 39 13 -5 12 -2 -3 15 -10 11 -25 18 -33 15 -18 -7 -62 43 -55
62 3 9 0 14 -8 13 -34 -5 -42 -1 -29 15 12 14 17 12 47 -17 19 -18 29 -34 23
-36z m965 -448 c-9 -9 -18 -14 -21 -11 -9 9 6 27 22 27 13 0 13 -2 -1 -16z"/>
<path d="M12838 19083 c7 -3 16 -2 19 1 4 3 -2 6 -13 5 -11 0 -14 -3 -6 -6z"/>
<path d="M12412 19029 c2 -6 8 -10 13 -10 5 0 11 4 13 10 2 6 -4 11 -13 11 -9
0 -15 -5 -13 -11z"/>
<path d="M12640 18980 c0 -32 30 -56 57 -46 14 6 14 9 -2 26 -9 10 -14 23 -11
28 6 9 -15 22 -35 22 -5 0 -9 -13 -9 -30z"/>
<path d="M12720 19000 c0 -13 18 -22 24 -11 3 5 -1 11 -9 15 -8 3 -15 1 -15
-4z"/>
<path d="M12368 18973 c6 -2 18 -2 25 0 6 3 1 5 -13 5 -14 0 -19 -2 -12 -5z"/>
<path d="M14910 18835 c7 -9 15 -13 17 -11 7 7 -7 26 -19 26 -6 0 -6 -6 2 -15z"/>
<path d="M11340 17010 c-9 -6 -10 -10 -3 -10 6 0 15 5 18 10 8 12 4 12 -15 0z"/>
<path d="M9948 16763 c7 -3 16 -2 19 1 4 3 -2 6 -13 5 -11 0 -14 -3 -6 -6z"/>
<path d="M10326 16347 c3 -10 9 -15 12 -12 3 3 0 11 -7 18 -10 9 -11 8 -5 -6z"/>
<path d="M9680 16272 c0 -7 -15 -12 -35 -12 -19 0 -35 -4 -35 -10 0 -17 70
-12 77 5 3 9 3 19 -1 22 -3 4 -6 1 -6 -5z"/>
<path d="M9596 16185 c-3 -10 1 -15 14 -15 25 0 34 16 14 24 -21 8 -21 8 -28
-9z"/>
<path d="M9353 16182 c-7 -4 -9 -13 -5 -19 5 -8 13 -9 22 -3 10 6 11 13 5 19
-6 6 -16 7 -22 3z"/>
<path d="M9506 16177 c3 -10 9 -15 12 -12 3 3 0 11 -7 18 -10 9 -11 8 -5 -6z"/>
<path d="M11210 16690 c-12 -8 -9 -10 13 -10 15 0 27 5 27 10 0 13 -20 13 -40
0z"/>
<path d="M11450 16679 c-11 -8 -8 -9 14 -4 18 4 32 2 37 -6 4 -6 14 -9 24 -6
9 4 13 11 10 17 -8 13 -66 13 -85 -1z"/>
<path d="M11310 16580 c6 -11 13 -20 15 -20 3 0 5 9 5 20 0 11 -7 20 -15 20
-13 0 -14 -4 -5 -20z"/>
<path d="M11895 16590 c3 -5 8 -10 11 -10 2 0 4 5 4 10 0 6 -5 10 -11 10 -5 0
-7 -4 -4 -10z"/>
<path d="M11314 16306 c-9 -24 0 -51 19 -54 12 -2 15 1 11 12 -9 23 24 32 39
12 14 -19 46 -12 43 9 -3 20 -6 22 -59 29 -37 6 -48 4 -53 -8z"/>
<path d="M11040 16274 c0 -8 5 -12 10 -9 6 4 8 11 5 16 -9 14 -15 11 -15 -7z"/>
<path d="M11125 16250 c-4 -6 5 -10 20 -10 15 0 24 4 20 10 -3 6 -12 10 -20
10 -8 0 -17 -4 -20 -10z"/>
<path d="M12270 16270 c0 -5 5 -10 10 -10 6 0 10 5 10 10 0 6 -4 10 -10 10 -5
0 -10 -4 -10 -10z"/>
<path d="M11955 16161 c-3 -5 4 -13 16 -16 23 -8 34 -1 24 14 -8 13 -32 14
-40 2z"/>
<path d="M12110 16155 c0 -8 5 -15 10 -15 6 0 10 7 10 15 0 8 -4 15 -10 15 -5
0 -10 -7 -10 -15z"/>
<path d="M12048 16146 c-16 -5 -28 -13 -28 -18 0 -14 40 -29 60 -23 23 7 24
14 7 35 -9 13 -18 14 -39 6z"/>
<path d="M8200 16469 c0 -5 5 -7 10 -4 6 3 10 8 10 11 0 2 -4 4 -10 4 -5 0
-10 -5 -10 -11z"/>
<path d="M8405 16360 c-3 -5 -1 -10 4 -10 6 0 11 5 11 10 0 6 -2 10 -4 10 -3
0 -8 -4 -11 -10z"/>
<path d="M8210 16300 c0 -5 9 -10 20 -10 11 0 20 5 20 10 0 6 -9 10 -20 10
-11 0 -20 -4 -20 -10z"/>
<path d="M13050 16092 c0 -4 5 -13 12 -20 6 -6 9 -15 5 -18 -10 -10 -39 5 -32
16 3 5 -1 10 -11 10 -12 0 -15 -6 -11 -22 4 -14 0 -26 -11 -34 -16 -12 -16
-13 2 -20 14 -5 24 -2 34 14 15 22 42 30 42 12 0 -6 8 -5 20 2 11 7 20 16 20
20 0 5 -9 17 -20 28 -20 20 -50 27 -50 12z"/>
<path d="M13167 16052 c-3 -15 -4 -29 -2 -31 8 -8 25 12 25 29 0 30 -17 32
-23 2z"/>
<path d="M13120 16000 c0 -19 3 -21 12 -12 9 9 9 15 0 24 -9 9 -12 7 -12 -12z"/>
<path d="M13070 15985 c0 -14 5 -25 10 -25 6 0 10 11 10 25 0 14 -4 25 -10 25
-5 0 -10 -11 -10 -25z"/>
<path d="M7495 15880 c-3 -5 1 -10 9 -10 9 0 16 5 16 10 0 6 -4 10 -9 10 -6 0
-13 -4 -16 -10z"/>
<path d="M6880 15554 c0 -8 5 -12 10 -9 6 4 8 11 5 16 -9 14 -15 11 -15 -7z"/>
<path d="M6157 15365 c-4 -8 -2 -17 3 -20 6 -4 10 3 10 14 0 25 -6 27 -13 6z"/>
<path d="M7960 15190 c0 -5 5 -10 11 -10 5 0 7 5 4 10 -3 6 -8 10 -11 10 -2 0
-4 -4 -4 -10z"/>
<path d="M5122 15015 c0 -16 2 -22 5 -12 2 9 2 23 0 30 -3 6 -5 -1 -5 -18z"/>
<path d="M5007 14875 c-4 -8 -2 -17 3 -20 6 -4 10 3 10 14 0 25 -6 27 -13 6z"/>
<path d="M5030 14863 c1 -18 18 -35 24 -24 4 6 2 11 -4 11 -6 0 -8 5 -5 10 3
6 1 10 -4 10 -6 0 -11 -3 -11 -7z"/>
<path d="M5065 14829 c-4 -6 -5 -12 -2 -15 2 -3 7 2 10 11 7 17 1 20 -8 4z"/>
<path d="M12073 14672 c10 -10 14 -23 10 -28 -5 -5 3 0 17 11 14 11 26 20 28
21 2 1 -4 4 -13 8 -9 3 -13 2 -10 -4 3 -6 2 -10 -4 -10 -5 0 -13 5 -16 10 -3
6 -11 10 -17 10 -6 0 -4 -8 5 -18z"/>
<path d="M12120 14640 c0 -5 5 -10 11 -10 5 0 7 5 4 10 -3 6 -8 10 -11 10 -2
0 -4 -4 -4 -10z"/>
<path d="M4490 14610 c-1 -3 -2 -21 -4 -42 -2 -29 0 -34 10 -23 9 9 10 21 4
41 -4 16 -9 27 -10 24z"/>
<path d="M4519 14557 c-4 -29 -2 -36 9 -32 7 3 16 5 19 5 3 0 1 6 -5 13 -5 6
-12 21 -14 32 -3 13 -6 6 -9 -18z"/>
<path d="M15524 14184 c-132 -142 -338 -399 -425 -533 -77 -118 -153 -266
-144 -281 13 -21 25 -8 59 64 70 144 275 425 522 714 27 31 34 46 26 54 -8 8
-18 3 -38 -18z"/>
<path d="M15690 14113 c-23 -26 -69 -86 -102 -133 -34 -47 -81 -108 -105 -137
-81 -96 -323 -425 -323 -440 0 -37 42 4 152 147 65 85 138 179 161 209 48 62
189 251 243 329 26 36 34 56 27 63 -7 7 -23 -5 -53 -38z"/>
<path d="M15653 13858 c-11 -13 -63 -84 -115 -158 -52 -74 -156 -222 -232
-329 -147 -207 -153 -216 -138 -225 13 -8 90 79 147 166 25 37 45 70 45 73 0
3 24 36 53 73 29 37 71 94 92 127 22 33 72 107 112 164 68 97 85 131 65 131
-5 0 -18 -10 -29 -22z"/>
<path d="M6301 11661 c-8 -5 -9 -11 -3 -15 5 -3 12 1 16 9 6 17 6 18 -13 6z"/>
<path d="M11170 11621 c0 -5 5 -13 10 -16 6 -3 10 -2 10 4 0 5 -4 13 -10 16
-5 3 -10 2 -10 -4z"/>
<path d="M10740 11510 c-14 -4 -19 -8 -12 -9 7 -1 10 -6 6 -12 -4 -8 0 -8 15
0 11 7 21 16 21 21 0 6 -1 10 -2 9 -2 -1 -14 -5 -28 -9z"/>
<path d="M10850 11506 c0 -2 7 -6 15 -10 8 -3 15 -1 15 4 0 6 -7 10 -15 10 -8
0 -15 -2 -15 -4z"/>
<path d="M9482 10763 c2 -11 14 -18 31 -20 31 -2 34 4 10 23 -25 19 -45 17
-41 -3z"/>
<path d="M9410 10760 c0 -5 5 -10 10 -10 6 0 10 5 10 10 0 6 -4 10 -10 10 -5
0 -10 -4 -10 -10z"/>
<path d="M9445 10720 c-4 -6 5 -10 20 -10 15 0 24 4 20 10 -3 6 -12 10 -20 10
-8 0 -17 -4 -20 -10z"/>
<path d="M10879 7943 c-20 -21 -96 -110 -170 -198 -74 -88 -171 -203 -215
-255 -563 -667 -864 -1032 -864 -1044 0 -9 9 -16 19 -16 23 0 54 36 497 565
659 789 789 947 792 966 5 30 -21 23 -59 -18z"/>
</g>
</svg>
